<?xml version="1.0" encoding="UTF-8" standalone="no"?>
<svg
   xmlns:dc="http://purl.org/dc/elements/1.1/"
   xmlns:cc="http://creativecommons.org/ns#"
   xmlns:rdf="http://www.w3.org/1999/02/22-rdf-syntax-ns#"
   xmlns:svg="http://www.w3.org/2000/svg"
   xmlns="http://www.w3.org/2000/svg"
   xmlns:sodipodi="http://sodipodi.sourceforge.net/DTD/sodipodi-0.dtd"
   xmlns:inkscape="http://www.inkscape.org/namespaces/inkscape"
   width="100"
   height="100"
   viewBox="0 0 26.458333 26.458334"
   version="1.1"
   id="svg5"
   inkscape:version="1.0.1 (3bc2e813f5, 2020-09-07)"
   sodipodi:docname="cemetery.svg">
  <metadata
     id="metadata12">
    <rdf:RDF>
      <cc:Work
         rdf:about="">
        <dc:format>image/svg+xml</dc:format>
        <dc:type
           rdf:resource="http://purl.org/dc/dcmitype/StillImage" />
        <dc:title></dc:title>
      </cc:Work>
    </rdf:RDF>
  </metadata>
  <sodipodi:namedview
     id="namedview7"
     pagecolor="#ffffff"
     bordercolor="#666666"
     borderopacity="1.0"
     inkscape:pageshadow="2"
     inkscape:pageopacity="0.0"
     inkscape:pagecheckerboard="0"
     inkscape:document-units="mm"
     showgrid="false"
     units="px"
     showguides="true"
     inkscape:guide-bbox="true"
     inkscape:zoom="4.2230384"
     inkscape:cx="105.98172"
     inkscape:cy="112.45053"
     inkscape:window-width="2560"
     inkscape:window-height="1377"
     inkscape:window-x="-8"
     inkscape:window-y="-8"
     inkscape:window-maximized="1"
     inkscape:current-layer="layer1"
     inkscape:document-rotation="0">
    <sodipodi:guide
       position="13.201969,13.256364"
       orientation="0,-1"
       id="guide836" />
    <sodipodi:guide
       position="13.201969,13.256364"
       orientation="1,0"
       id="guide838" />
    <sodipodi:guide
       position="4.1643795,23.800219"
       orientation="0,-1"
       id="guide902" />
    <sodipodi:guide
       position="5.1390215,3.0669248"
       orientation="0,-1"
       id="guide904" />
    <sodipodi:guide
       position="4.1643794,23.800219"
       orientation="1,0"
       id="guide906" />
    <sodipodi:guide
       position="22.239559,23.800219"
       orientation="1,0"
       id="guide908" />
  </sodipodi:namedview>
  <defs
     id="defs2">
    <rect
       x="0.66976112"
       y="1.3395222"
       width="119.88725"
       height="118.54772"
       id="rect5432" />
    <style
       type="text/css"
       id="style910">
   
    .fil1 {fill:none}
    .fil0 {fill:black}
   
  </style>
    <style
       type="text/css"
       id="style1028">
   
    .fil0 {fill:black;fill-rule:nonzero}
   
  </style>
  </defs>
  <g
     inkscape:label="Layer 1"
     inkscape:groupmode="layer"
     id="layer1">
    <rect
       style="fill:#ff7f00;fill-opacity:1;stroke:none;stroke-width:1.07353"
       id="rect1975"
       width="25.929167"
       height="25.929167"
       x="0.26458332"
       y="0.26458332"
       rx="2" />
    <rect
       class="fil1"
       width="1.8062205"
       height="1.8062205"
       id="rect934"
       x="26.503439"
       y="-9.8018103"
       style="clip-rule:evenodd;fill-rule:evenodd;stroke-width:0.264583;image-rendering:optimizeQuality;shape-rendering:geometricPrecision;text-rendering:geometricPrecision" />
    <g
       id="g1257"
       transform="matrix(0.41503819,0,0,0.41503819,-0.17250314,-0.70166923)"
       style="fill:#ffffff">
      <g
         id="g1255"
         style="fill:#ffffff">
        <path
           d="M 54,44 H 48 V 24 C 48,15.178 40.822,8 32,8 23.178,8 16,15.178 16,24 v 20 h -6 c -1.104,0 -2,0.896 -2,2 0,1.104 0.896,2 2,2 h 44 c 1.104,0 2,-0.896 2,-2 0,-1.104 -0.896,-2 -2,-2 z M 36,26 h -2 v 10 c 0,1.104 -0.896,2 -2,2 -1.104,0 -2,-0.896 -2,-2 V 26 h -2 c -1.104,0 -2,-0.896 -2,-2 0,-1.104 0.896,-2 2,-2 h 2 v -2 c 0,-1.104 0.896,-2 2,-2 1.104,0 2,0.896 2,2 v 2 h 2 c 1.104,0 2,0.896 2,2 0,1.104 -0.896,2 -2,2 z"
           id="path1251"
           style="fill:#ffffff" />
        <path
           d="M 46,52 H 18 c -1.104,0 -2,0.896 -2,2 0,1.104 0.896,2 2,2 h 28 c 1.104,0 2,-0.896 2,-2 0,-1.104 -0.896,-2 -2,-2 z"
           id="path1253"
           style="fill:#ffffff" />
      </g>
    </g>
  </g>
</svg>
