<?xml version="1.0" encoding="UTF-8" standalone="no"?>
<svg
   xmlns:dc="http://purl.org/dc/elements/1.1/"
   xmlns:cc="http://creativecommons.org/ns#"
   xmlns:rdf="http://www.w3.org/1999/02/22-rdf-syntax-ns#"
   xmlns:svg="http://www.w3.org/2000/svg"
   xmlns="http://www.w3.org/2000/svg"
   xmlns:sodipodi="http://sodipodi.sourceforge.net/DTD/sodipodi-0.dtd"
   xmlns:inkscape="http://www.inkscape.org/namespaces/inkscape"
   width="100"
   height="100"
   viewBox="0 0 26.458333 26.458334"
   version="1.1"
   id="svg5"
   inkscape:version="1.0.1 (3bc2e813f5, 2020-09-07)"
   sodipodi:docname="7201_StormWasteWaterOutlet.svg">
  <metadata
     id="metadata12">
    <rdf:RDF>
      <cc:Work
         rdf:about="">
        <dc:format>image/svg+xml</dc:format>
        <dc:type
           rdf:resource="http://purl.org/dc/dcmitype/StillImage" />
        <dc:title />
      </cc:Work>
    </rdf:RDF>
  </metadata>
  <sodipodi:namedview
     id="namedview7"
     pagecolor="#ffffff"
     bordercolor="#666666"
     borderopacity="1.0"
     inkscape:pageshadow="2"
     inkscape:pageopacity="0.0"
     inkscape:pagecheckerboard="0"
     inkscape:document-units="mm"
     showgrid="false"
     units="px"
     showguides="true"
     inkscape:guide-bbox="true"
     inkscape:zoom="5.9722782"
     inkscape:cx="94.463642"
     inkscape:cy="43.565576"
     inkscape:window-width="2560"
     inkscape:window-height="1377"
     inkscape:window-x="-8"
     inkscape:window-y="-8"
     inkscape:window-maximized="1"
     inkscape:current-layer="layer1"
     inkscape:document-rotation="0">
    <sodipodi:guide
       position="13.201969,13.256364"
       orientation="0,-1"
       id="guide836" />
    <sodipodi:guide
       position="13.201969,13.256364"
       orientation="1,0"
       id="guide838" />
    <sodipodi:guide
       position="4.1643795,23.800219"
       orientation="0,-1"
       id="guide902" />
    <sodipodi:guide
       position="5.1390215,3.0669248"
       orientation="0,-1"
       id="guide904" />
    <sodipodi:guide
       position="5.3162293,11.617193"
       orientation="1,0"
       id="guide906" />
    <sodipodi:guide
       position="22.239559,23.800219"
       orientation="1,0"
       id="guide908" />
  </sodipodi:namedview>
  <defs
     id="defs2">
    <rect
       x="0.66976112"
       y="1.3395222"
       width="119.88725"
       height="118.54772"
       id="rect5432" />
    <style
       type="text/css"
       id="style910">
   
    .fil1 {fill:none}
    .fil0 {fill:black}
   
  </style>
    <style
       type="text/css"
       id="style1028">
   
    .fil0 {fill:black;fill-rule:nonzero}
   
  </style>
  </defs>
  <g
     inkscape:label="Layer 1"
     inkscape:groupmode="layer"
     id="layer1">
    <rect
       style="fill:#ff7f00;fill-opacity:1;stroke:none;stroke-width:1.07353"
       id="rect1975"
       width="25.929167"
       height="25.929167"
       x="0.26458332"
       y="0.26458332"
       rx="2" />
    <rect
       class="fil1"
       width="1.8062205"
       height="1.8062205"
       id="rect934"
       x="26.503439"
       y="-9.8018103"
       style="clip-rule:evenodd;fill-rule:evenodd;stroke-width:0.264583;image-rendering:optimizeQuality;shape-rendering:geometricPrecision;text-rendering:geometricPrecision" />
    <g
       transform="matrix(1.3333333,0,0,1.3333333,0.19562947,-369.74525)"
       id="g1417"
       style="fill:#ffffff;stroke:#ffffff;stroke-opacity:1" />
    <g
       id="g851"
       transform="matrix(1.2871011,0,0,1.4891206,-1.7330968,-0.23136857)"
       style="stroke:#ffffff;stroke-width:0.999826;stroke-miterlimit:4;stroke-dasharray:none;stroke-opacity:1">
      <path
         d="m 12.839851,1.6902239 -0.860038,0.00174 c 0,0 -0.104708,6.5668421 2.1e-4,7.0704426 0,0 -2.4594294,-1.5098674 -3.6336517,-0.064622 C 7.2844473,10.005223 6.7677056,11.956545 6.5305607,13.221318 6.2559828,12.697885 5.8059512,12.206029 5.085106,12.206029 c -0.00627,0 -0.012966,0 -0.019448,4.18e-4 -0.4517045,0.0048 -0.8546836,0.240909 -1.1192235,0.444803 -2.1082012,-0.546564 -0.4857523,0.321657 -0.3860407,0.567757 0.029486,0.101843 0.1118805,0.179636 0.215187,0.203267 0.1037247,0.02426 0.2112137,-0.01087 0.2821062,-0.08971 0.00481,-0.0052 0.4960386,-0.537026 1.0146624,-0.5433 h 0.010874 c 1.0042062,0 1.2651911,1.724215 1.2677006,1.74199 0.020703,0.143668 0.1440854,0.249484 0.2883799,0.249484 h 0.00816 c 0.1478496,-0.004 0.2693498,-0.117945 0.2825245,-0.265168 0.00335,-0.03576 0.3333413,-3.559474 1.8691372,-5.4501504 0.614402,-0.756187 -0.05879,-0.1209758 0.4897381,-0.4229486 -0.51716,0.4295368 0.331277,-0.1630124 -0.018376,0.4509706 -1.2214847,2.1449704 -1.0311833,5.5260624 -1.0226092,5.6686844 0.00795,0.129447 0.1049792,0.235681 0.2333802,0.255547 0.01401,0.0023 0.02781,0.0031 0.04182,0.0031 0.112717,0 0.216023,-0.06922 0.257221,-0.177336 0.004,-0.01004 0.396705,-1.019681 1.1298881,-1.386063 0.7260742,-0.362828 1.4136682,-0.165416 1.4193152,-0.163534 0.144922,0.04371 0.299672,-0.03702 0.344425,-0.182146 0.04496,-0.14534 -0.03702,-0.299463 -0.182355,-0.344216 -0.03639,-0.0115 -0.897763,-0.267467 -1.8277312,0.197203 -0.3628271,0.181309 -0.6528801,0.470944 -0.8726681,0.759115 0.03158,-1.14871 0.20724,-3.039178 0.9581991,-4.3579044 0.4544232,-0.79843 2.2306492,0.3665946 2.2306492,0.3665946 V 11.28773 l 0.871848,-10e-7 z"
         id="path1910"
         style="fill:#ffffff;stroke:#ffffff;stroke-width:0.78299324;stroke-miterlimit:4;stroke-dasharray:none;stroke-opacity:1"
         sodipodi:nodetypes="cccccsccccccscscccccccscscccccccccc" />
      <rect
         style="fill:#ffffff;stroke:#ffffff;stroke-width:0.999826;stroke-miterlimit:4;stroke-dasharray:none;stroke-opacity:1"
         id="rect847"
         width="5.8955922"
         height="7.0136061"
         x="14.175353"
         y="3.0591292"
         ry="0.059500769" />
    </g>
  </g>
</svg>
