<?xml version="1.0" encoding="UTF-8" standalone="no"?>
<svg
   xmlns:dc="http://purl.org/dc/elements/1.1/"
   xmlns:cc="http://creativecommons.org/ns#"
   xmlns:rdf="http://www.w3.org/1999/02/22-rdf-syntax-ns#"
   xmlns:svg="http://www.w3.org/2000/svg"
   xmlns="http://www.w3.org/2000/svg"
   xmlns:sodipodi="http://sodipodi.sourceforge.net/DTD/sodipodi-0.dtd"
   xmlns:inkscape="http://www.inkscape.org/namespaces/inkscape"
   width="100"
   height="100"
   viewBox="0 0 26.458333 26.458334"
   version="1.1"
   id="svg5"
   inkscape:version="1.0.1 (3bc2e813f5, 2020-09-07)"
   sodipodi:docname="drain.svg">
  <metadata
     id="metadata12">
    <rdf:RDF>
      <cc:Work
         rdf:about="">
        <dc:format>image/svg+xml</dc:format>
        <dc:type
           rdf:resource="http://purl.org/dc/dcmitype/StillImage" />
        <dc:title></dc:title>
      </cc:Work>
    </rdf:RDF>
  </metadata>
  <sodipodi:namedview
     id="namedview7"
     pagecolor="#ffffff"
     bordercolor="#666666"
     borderopacity="1.0"
     inkscape:pageshadow="2"
     inkscape:pageopacity="0.0"
     inkscape:pagecheckerboard="0"
     inkscape:document-units="mm"
     showgrid="false"
     units="px"
     showguides="true"
     inkscape:guide-bbox="true"
     inkscape:zoom="4.2230384"
     inkscape:cx="105.98172"
     inkscape:cy="112.45053"
     inkscape:window-width="2560"
     inkscape:window-height="1377"
     inkscape:window-x="-8"
     inkscape:window-y="-8"
     inkscape:window-maximized="1"
     inkscape:current-layer="layer1"
     inkscape:document-rotation="0">
    <sodipodi:guide
       position="13.201969,13.256364"
       orientation="0,-1"
       id="guide836" />
    <sodipodi:guide
       position="13.201969,13.256364"
       orientation="1,0"
       id="guide838" />
    <sodipodi:guide
       position="4.1643795,23.800219"
       orientation="0,-1"
       id="guide902" />
    <sodipodi:guide
       position="5.1390215,3.0669248"
       orientation="0,-1"
       id="guide904" />
    <sodipodi:guide
       position="4.1643794,23.800219"
       orientation="1,0"
       id="guide906" />
    <sodipodi:guide
       position="22.239559,23.800219"
       orientation="1,0"
       id="guide908" />
  </sodipodi:namedview>
  <defs
     id="defs2">
    <rect
       x="0.66976112"
       y="1.3395222"
       width="119.88725"
       height="118.54772"
       id="rect5432" />
    <style
       type="text/css"
       id="style910">
   
    .fil1 {fill:none}
    .fil0 {fill:black}
   
  </style>
    <style
       type="text/css"
       id="style1028">
   
    .fil0 {fill:black;fill-rule:nonzero}
   
  </style>
  </defs>
  <g
     inkscape:label="Layer 1"
     inkscape:groupmode="layer"
     id="layer1">
    <rect
       style="fill:#ff7f00;fill-opacity:1;stroke:none;stroke-width:1.07353"
       id="rect1975"
       width="25.929167"
       height="25.929167"
       x="0.26458332"
       y="0.26458332"
       rx="2" />
    <rect
       class="fil1"
       width="1.8062205"
       height="1.8062205"
       id="rect934"
       x="26.503439"
       y="-9.8018103"
       style="clip-rule:evenodd;fill-rule:evenodd;stroke-width:0.264583;image-rendering:optimizeQuality;shape-rendering:geometricPrecision;text-rendering:geometricPrecision" />
    <path
       d="m 10.635653,9.2745599 c -0.39154,0 -0.6851957,0.3181274 -0.6851957,0.6851964 v 6.6317147 c 0,0.39154 0.3181267,0.685195 0.6851957,0.685195 0.39154,0 0.685195,-0.318126 0.685195,-0.685195 V 9.9597563 c 0,-0.367069 -0.318126,-0.6851964 -0.685195,-0.6851964 z M 8.237468,10.42471 c -0.3915401,0 -0.6851954,0.318126 -0.6851954,0.685195 v 4.355886 c 0,0.391541 0.3181263,0.685197 0.6851954,0.685197 0.391541,0 0.6851963,-0.318127 0.6851963,-0.685197 v -4.355886 c 0,-0.39154 -0.3181272,-0.685195 -0.6851963,-0.685195 z m 4.796369,-2.1779437 c -0.39154,0 -0.685195,0.3181272 -0.685195,0.6851963 v 8.7117724 c 0,0.39154 0.318127,0.685196 0.685195,0.685196 0.391541,0 0.685196,-0.318127 0.685196,-0.685196 V 8.9319626 c 0,-0.391541 -0.318127,-0.6851963 -0.685196,-0.6851963 z m 0,-6.1178185 c -6.068875,0 -10.9631304,4.9187263 -10.9631304,10.9631302 0,6.044405 4.8942554,10.963131 10.9631304,10.963131 6.068877,0 10.963132,-4.918726 10.963132,-10.963131 0,-6.0444039 -4.918726,-10.9631302 -10.963132,-10.9631302 z m 0,19.1610082 c -4.5271847,0 -8.197876,-3.670692 -8.197876,-8.197878 0,-4.5271845 3.6706913,-8.1978762 8.197876,-8.1978762 4.527186,0 8.197878,3.6706917 8.197878,8.1978762 0,4.527186 -3.695163,8.197878 -8.197878,8.197878 z M 15.407551,9.2745599 c -0.391541,0 -0.685196,0.3181274 -0.685196,0.6851964 v 6.6317147 c 0,0.39154 0.318127,0.685195 0.685196,0.685195 0.391541,0 0.685196,-0.318126 0.685196,-0.685195 V 9.9597563 c 0.02447,-0.367069 -0.293655,-0.6851964 -0.685196,-0.6851964 z m 2.398185,1.1501501 c -0.39154,0 -0.685196,0.318126 -0.685196,0.685195 v 4.355886 c 0,0.391541 0.318127,0.685197 0.685196,0.685197 0.367069,0 0.685196,-0.318127 0.685196,-0.685197 v -4.355886 c 0,-0.39154 -0.293655,-0.685195 -0.685196,-0.685195 z"
       id="path1315"
       style="fill:#ffffff;stroke-width:0.244712" />
  </g>
</svg>
