<?xml version="1.0" encoding="UTF-8" standalone="no"?>
<svg
   xmlns:dc="http://purl.org/dc/elements/1.1/"
   xmlns:cc="http://creativecommons.org/ns#"
   xmlns:rdf="http://www.w3.org/1999/02/22-rdf-syntax-ns#"
   xmlns:svg="http://www.w3.org/2000/svg"
   xmlns="http://www.w3.org/2000/svg"
   xmlns:sodipodi="http://sodipodi.sourceforge.net/DTD/sodipodi-0.dtd"
   xmlns:inkscape="http://www.inkscape.org/namespaces/inkscape"
   width="100"
   height="100"
   viewBox="0 0 26.458333 26.458334"
   version="1.1"
   id="svg5"
   inkscape:version="1.0.1 (3bc2e813f5, 2020-09-07)"
   sodipodi:docname="7204_RubbishTrap.svg">
  <metadata
     id="metadata12">
    <rdf:RDF>
      <cc:Work
         rdf:about="">
        <dc:format>image/svg+xml</dc:format>
        <dc:type
           rdf:resource="http://purl.org/dc/dcmitype/StillImage" />
        <dc:title />
      </cc:Work>
    </rdf:RDF>
  </metadata>
  <sodipodi:namedview
     id="namedview7"
     pagecolor="#ffffff"
     bordercolor="#666666"
     borderopacity="1.0"
     inkscape:pageshadow="2"
     inkscape:pageopacity="0.0"
     inkscape:pagecheckerboard="0"
     inkscape:document-units="mm"
     showgrid="false"
     units="px"
     showguides="true"
     inkscape:guide-bbox="true"
     inkscape:zoom="4.2230384"
     inkscape:cx="117.84367"
     inkscape:cy="48.876529"
     inkscape:window-width="2560"
     inkscape:window-height="1377"
     inkscape:window-x="-8"
     inkscape:window-y="-8"
     inkscape:window-maximized="1"
     inkscape:current-layer="layer1"
     inkscape:document-rotation="0">
    <sodipodi:guide
       position="13.201969,13.256364"
       orientation="0,-1"
       id="guide836" />
    <sodipodi:guide
       position="13.201969,13.256364"
       orientation="1,0"
       id="guide838" />
    <sodipodi:guide
       position="4.1643795,23.800219"
       orientation="0,-1"
       id="guide902" />
    <sodipodi:guide
       position="2.693829,21.418646"
       orientation="1,0"
       id="guide906" />
    <sodipodi:guide
       position="21.478922,2.6335543"
       orientation="1,0"
       id="guide908" />
  </sodipodi:namedview>
  <defs
     id="defs2">
    <rect
       x="0.66976112"
       y="1.3395222"
       width="119.88725"
       height="118.54772"
       id="rect5432" />
    <style
       type="text/css"
       id="style910">
   
    .fil1 {fill:none}
    .fil0 {fill:black}
   
  </style>
    <style
       type="text/css"
       id="style1028">
   
    .fil0 {fill:black;fill-rule:nonzero}
   
  </style>
  </defs>
  <g
     inkscape:label="Layer 1"
     inkscape:groupmode="layer"
     id="layer1">
    <rect
       style="fill:#ff7f00;fill-opacity:1;stroke:none;stroke-width:1.07353"
       id="rect1975"
       width="25.929167"
       height="25.929167"
       x="0.26458332"
       y="0.26458332"
       rx="2" />
    <rect
       class="fil1"
       width="1.8062205"
       height="1.8062205"
       id="rect934"
       x="26.503439"
       y="-9.8018103"
       style="clip-rule:evenodd;fill-rule:evenodd;stroke-width:0.264583;image-rendering:optimizeQuality;shape-rendering:geometricPrecision;text-rendering:geometricPrecision" />
    <g
       transform="matrix(1.3333333,0,0,1.3333333,0.19562947,-369.74525)"
       id="g1417"
       style="fill:#ffffff;stroke:#ffffff;stroke-opacity:1" />
    <path
       d="M 22.027583,3.3708108 H 3.9217508 c -0.3017643,0 -0.548662,0.2468976 -0.548662,0.5486616 V 22.025304 c 0,0.301763 0.2468977,0.548662 0.548662,0.548662 H 22.027583 c 0.301764,0 0.548662,-0.246899 0.548662,-0.548662 V 3.9194724 c 0,-0.301764 -0.246898,-0.5486616 -0.548662,-0.5486616 z M 21.478922,21.476641 H 4.4704118 V 4.468134 H 21.478922 Z M 6.1163966,7.2114419 c 0,-0.3017642 0.2468978,-0.5486619 0.548662,-0.5486619 h 4.9379534 c 0.301764,0 0.548662,0.2468977 0.548662,0.5486619 0,0.3017643 -0.246898,0.5486617 -0.548662,0.5486617 H 6.6650586 c -0.3017642,0 -0.548662,-0.2468974 -0.548662,-0.5486617 z m 0,3.8406291 c 0,-0.301764 0.2468978,-0.548661 0.548662,-0.548661 h 4.9379534 c 0.301764,0 0.548662,0.246897 0.548662,0.548661 0,0.301764 -0.246898,0.548661 -0.548662,0.548661 H 6.6650586 c -0.3017642,0 -0.548662,-0.246897 -0.548662,-0.548661 z m 0,3.840631 c 0,-0.301763 0.2468978,-0.548661 0.548662,-0.548661 h 4.9379534 c 0.301764,0 0.548662,0.246898 0.548662,0.548661 0,0.301765 -0.246898,0.548662 -0.548662,0.548662 H 6.6650586 c -0.3017642,0 -0.548662,-0.246897 -0.548662,-0.548662 z m 0,3.840632 c 0,-0.301764 0.2468978,-0.548663 0.548662,-0.548663 h 4.9379534 c 0.301764,0 0.548662,0.246899 0.548662,0.548663 0,0.301764 -0.246898,0.548662 -0.548662,0.548662 H 6.6650586 c -0.3017642,0 -0.548662,-0.246898 -0.548662,-0.548662 z M 13.797659,7.2114419 c 0,-0.3017642 0.246897,-0.5486619 0.548661,-0.5486619 h 4.937956 c 0.301763,0 0.548661,0.2468977 0.548661,0.5486619 0,0.3017643 -0.246898,0.5486617 -0.548661,0.5486617 H 14.34632 c -0.301764,0 -0.548661,-0.2468974 -0.548661,-0.5486617 z m 0,3.8406291 c 0,-0.301764 0.246897,-0.548661 0.548661,-0.548661 h 4.937956 c 0.301763,0 0.548661,0.246897 0.548661,0.548661 0,0.301764 -0.246898,0.548661 -0.548661,0.548661 H 14.34632 c -0.301764,0 -0.548661,-0.246897 -0.548661,-0.548661 z m 0,3.840631 c 0,-0.301763 0.246897,-0.548661 0.548661,-0.548661 h 4.937956 c 0.301763,0 0.548661,0.246898 0.548661,0.548661 0,0.301765 -0.246898,0.548662 -0.548661,0.548662 H 14.34632 c -0.301764,0 -0.548661,-0.246897 -0.548661,-0.548662 z m 0,3.840632 c 0,-0.301764 0.246897,-0.548663 0.548661,-0.548663 h 4.937956 c 0.301763,0 0.548661,0.246899 0.548661,0.548663 0,0.301764 -0.246898,0.548662 -0.548661,0.548662 H 14.34632 c -0.301764,0 -0.548661,-0.246898 -0.548661,-0.548662 z"
       id="path2259"
       style="fill:#ffffff;stroke:#ffffff;stroke-width:0.975523;stroke-miterlimit:4;stroke-dasharray:none;stroke-opacity:1"
       sodipodi:nodetypes="ssssssssscccccssssssssssssssssssssssssssssssssssssssssssssssssssssssss" />
  </g>
</svg>
