<?xml version="1.0" encoding="UTF-8" standalone="no"?>
<svg
   xmlns:dc="http://purl.org/dc/elements/1.1/"
   xmlns:cc="http://creativecommons.org/ns#"
   xmlns:rdf="http://www.w3.org/1999/02/22-rdf-syntax-ns#"
   xmlns:svg="http://www.w3.org/2000/svg"
   xmlns="http://www.w3.org/2000/svg"
   xmlns:sodipodi="http://sodipodi.sourceforge.net/DTD/sodipodi-0.dtd"
   xmlns:inkscape="http://www.inkscape.org/namespaces/inkscape"
   width="100"
   height="100"
   viewBox="0 0 26.458333 26.458334"
   version="1.1"
   id="svg5"
   inkscape:version="1.0.1 (3bc2e813f5, 2020-09-07)"
   sodipodi:docname="hydrant.svg">
  <metadata
     id="metadata12">
    <rdf:RDF>
      <cc:Work
         rdf:about="">
        <dc:format>image/svg+xml</dc:format>
        <dc:type
           rdf:resource="http://purl.org/dc/dcmitype/StillImage" />
        <dc:title></dc:title>
      </cc:Work>
    </rdf:RDF>
  </metadata>
  <sodipodi:namedview
     id="namedview7"
     pagecolor="#ffffff"
     bordercolor="#666666"
     borderopacity="1.0"
     inkscape:pageshadow="2"
     inkscape:pageopacity="0.0"
     inkscape:pagecheckerboard="0"
     inkscape:document-units="mm"
     showgrid="false"
     units="px"
     showguides="true"
     inkscape:guide-bbox="true"
     inkscape:zoom="4.2230384"
     inkscape:cx="105.98172"
     inkscape:cy="112.45053"
     inkscape:window-width="2560"
     inkscape:window-height="1377"
     inkscape:window-x="-8"
     inkscape:window-y="-8"
     inkscape:window-maximized="1"
     inkscape:current-layer="g1417"
     inkscape:document-rotation="0">
    <sodipodi:guide
       position="13.201969,13.256364"
       orientation="0,-1"
       id="guide836" />
    <sodipodi:guide
       position="13.201969,13.256364"
       orientation="1,0"
       id="guide838" />
    <sodipodi:guide
       position="4.1643795,23.800219"
       orientation="0,-1"
       id="guide902" />
    <sodipodi:guide
       position="5.1390215,3.0669248"
       orientation="0,-1"
       id="guide904" />
    <sodipodi:guide
       position="4.1643794,23.800219"
       orientation="1,0"
       id="guide906" />
    <sodipodi:guide
       position="22.239559,23.800219"
       orientation="1,0"
       id="guide908" />
  </sodipodi:namedview>
  <defs
     id="defs2">
    <rect
       x="0.66976112"
       y="1.3395222"
       width="119.88725"
       height="118.54772"
       id="rect5432" />
    <style
       type="text/css"
       id="style910">
   
    .fil1 {fill:none}
    .fil0 {fill:black}
   
  </style>
    <style
       type="text/css"
       id="style1028">
   
    .fil0 {fill:black;fill-rule:nonzero}
   
  </style>
  </defs>
  <g
     inkscape:label="Layer 1"
     inkscape:groupmode="layer"
     id="layer1">
    <rect
       style="fill:#ff7f00;fill-opacity:1;stroke:none;stroke-width:1.07353"
       id="rect1975"
       width="25.929167"
       height="25.929167"
       x="0.26458332"
       y="0.26458332"
       rx="2" />
    <rect
       class="fil1"
       width="1.8062205"
       height="1.8062205"
       id="rect934"
       x="26.503439"
       y="-9.8018103"
       style="clip-rule:evenodd;fill-rule:evenodd;stroke-width:0.264583;image-rendering:optimizeQuality;shape-rendering:geometricPrecision;text-rendering:geometricPrecision" />
    <g
       transform="matrix(1.3333333,0,0,1.3333333,0.19562947,-369.74525)"
       id="g1417"
       style="fill:#ffffff;stroke:#ffffff;stroke-opacity:1">
      <g
         id="g1569"
         transform="matrix(0.26532898,0,0,0.26532898,1.3801147,278.46104)"
         style="stroke:none">
        <g
           id="g1557"
           style="stroke:none">
          <path
             d="m 16,28 h 32 c 1.104,0 2,-0.896 2,-2 v -4 c 0,-1.104 -0.896,-2 -2,-2 H 16 c -1.104,0 -2,0.896 -2,2 v 4 c 0,1.104 0.896,2 2,2 z"
             id="path1551"
             style="stroke:none" />
          <path
             d="M 48,56 H 16 c -1.104,0 -2,0.896 -2,2 v 4 c 0,1.104 0.896,2 2,2 h 32 c 1.104,0 2,-0.896 2,-2 v -4 c 0,-1.104 -0.896,-2 -2,-2 z"
             id="path1553"
             style="stroke:none" />
          <path
             d="M 38,9.362 V 6 C 38,2.691 35.309,0 32,0 28.691,0 26,2.691 26,6 V 9.362 C 22.393,11.075 19.731,14.249 18.604,18 H 45.397 C 44.269,14.25 41.607,11.076 38,9.362 Z"
             id="path1555"
             style="stroke:none" />
        </g>
        <g
           id="g1567"
           style="stroke:none">
          <path
             d="m 12,36 c -1.104,0 -2,0.896 -2,2 v 8 c 0,1.104 0.896,2 2,2 h 4 V 36 Z"
             id="path1559"
             style="stroke:none" />
          <polygon
             points="18,52 18,54 30,54 30,30 18,30 18,34 18,36 18,48 "
             id="polygon1561"
             style="stroke:none" />
          <polygon
             points="34,30 34,54 46,54 46,52 46,48 46,36 46,34 46,30 "
             id="polygon1563"
             style="stroke:none" />
          <path
             d="m 52,36 h -4 v 12 h 4 c 1.104,0 2,-0.896 2,-2 v -8 c 0,-1.104 -0.896,-2 -2,-2 z"
             id="path1565"
             style="stroke:none" />
        </g>
      </g>
    </g>
  </g>
</svg>
