<?xml version="1.0" encoding="UTF-8" standalone="no"?>
<svg
   xmlns:dc="http://purl.org/dc/elements/1.1/"
   xmlns:cc="http://creativecommons.org/ns#"
   xmlns:rdf="http://www.w3.org/1999/02/22-rdf-syntax-ns#"
   xmlns:svg="http://www.w3.org/2000/svg"
   xmlns="http://www.w3.org/2000/svg"
   xmlns:sodipodi="http://sodipodi.sourceforge.net/DTD/sodipodi-0.dtd"
   xmlns:inkscape="http://www.inkscape.org/namespaces/inkscape"
   width="100"
   height="100"
   viewBox="0 0 26.458333 26.458334"
   version="1.1"
   id="svg5"
   inkscape:version="1.0.1 (3bc2e813f5, 2020-09-07)"
   sodipodi:docname="7610_WaterMeter.svg">
  <metadata
     id="metadata12">
    <rdf:RDF>
      <cc:Work
         rdf:about="">
        <dc:format>image/svg+xml</dc:format>
        <dc:type
           rdf:resource="http://purl.org/dc/dcmitype/StillImage" />
        <dc:title />
      </cc:Work>
    </rdf:RDF>
  </metadata>
  <sodipodi:namedview
     id="namedview7"
     pagecolor="#ffffff"
     bordercolor="#666666"
     borderopacity="1.0"
     inkscape:pageshadow="2"
     inkscape:pageopacity="0.0"
     inkscape:pagecheckerboard="0"
     inkscape:document-units="mm"
     showgrid="false"
     units="px"
     showguides="true"
     inkscape:guide-bbox="true"
     inkscape:zoom="5.9722782"
     inkscape:cx="43.915511"
     inkscape:cy="69.152719"
     inkscape:window-width="2560"
     inkscape:window-height="1377"
     inkscape:window-x="-8"
     inkscape:window-y="-8"
     inkscape:window-maximized="1"
     inkscape:current-layer="layer1"
     inkscape:document-rotation="0">
    <sodipodi:guide
       position="13.201969,13.256364"
       orientation="0,-1"
       id="guide836" />
    <sodipodi:guide
       position="13.201969,13.256364"
       orientation="1,0"
       id="guide838" />
    <sodipodi:guide
       position="4.1643795,23.800219"
       orientation="0,-1"
       id="guide902" />
    <sodipodi:guide
       position="5.1390215,3.0669248"
       orientation="0,-1"
       id="guide904" />
    <sodipodi:guide
       position="4.1643794,23.800219"
       orientation="1,0"
       id="guide906" />
    <sodipodi:guide
       position="22.239559,23.800219"
       orientation="1,0"
       id="guide908" />
  </sodipodi:namedview>
  <defs
     id="defs2">
    <rect
       x="0.66976112"
       y="1.3395222"
       width="119.88725"
       height="118.54772"
       id="rect5432" />
    <style
       type="text/css"
       id="style910">
   
    .fil1 {fill:none}
    .fil0 {fill:black}
   
  </style>
    <style
       type="text/css"
       id="style1028">
   
    .fil0 {fill:black;fill-rule:nonzero}
   
  </style>
  </defs>
  <g
     inkscape:label="Layer 1"
     inkscape:groupmode="layer"
     id="layer1">
    <rect
       style="fill:#ff7f00;fill-opacity:1;stroke:none;stroke-width:1.07353"
       id="rect1975"
       width="25.929167"
       height="25.929167"
       x="0.26458332"
       y="0.26458332"
       rx="2" />
    <g
       transform="matrix(1.3333333,0,0,1.3333333,0.19562947,-369.74525)"
       id="g1417"
       style="fill:#ffffff;stroke:#ffffff;stroke-opacity:1" />
    <path
       d="M 7.5974015,3.1611084 1.9931766,12.86824 7.5974015,22.575203 H 18.810764 L 24.415068,12.86824 18.810764,3.1611084 H 7.6026265 7.5971672 Z m 1.5993132,2.7728782 h 8.0099013 l 4.00538,6.9342534 -4.00538,6.934112 H 9.1967147 L 5.1921148,12.86824 Z"
       style="fill:#ffffff;fill-opacity:1;stroke:none;stroke-width:1.61805;stroke-linecap:butt;stroke-linejoin:miter;stroke-miterlimit:4;stroke-dasharray:none;stroke-dashoffset:0;stroke-opacity:1"
       id="path841"
       sodipodi:nodetypes="cccccccccccccccc" />
    <g
       id="g848"
       style="fill:#ffffff"
       transform="matrix(0.26458333,0,0,0.26458333,8.9686356,8.1328831)">
      <path
         d="m 16,32 c 6.1142,0 11.09156,-4.97736 11.09156,-11.09156 0,-10.57282 -10.27488,-20.35111 -10.7163,-20.75945 -0.20969,-0.19865 -0.54077,-0.19865 -0.75047,0 C 15.18332,0.55733 4.90844,10.33562 4.90844,20.90844 4.90844,27.02264 9.88586,32 16,32 Z m 3.59788,-7.0522 c 1.44576,-1.12573 2.26245,-2.80329 2.26245,-4.62425 0,-0.30905 0.25388,-0.55182 0.55182,-0.55182 0.30905,0 0.55182,0.24277 0.55182,0.55182 0,2.16309 -0.98219,4.16068 -2.68184,5.4961 -0.09929,0.07726 -0.22074,0.11034 -0.34212,0.11034 -0.16551,0 -0.33108,-0.06622 -0.43044,-0.20969 -0.18761,-0.24278 -0.14348,-0.5849 0.08831,-0.7725 z"
         id="path846"
         style="fill:#ffffff" />
    </g>
  </g>
</svg>
