<?xml version="1.0" encoding="UTF-8" standalone="no"?>
<svg
   xmlns:dc="http://purl.org/dc/elements/1.1/"
   xmlns:cc="http://creativecommons.org/ns#"
   xmlns:rdf="http://www.w3.org/1999/02/22-rdf-syntax-ns#"
   xmlns:svg="http://www.w3.org/2000/svg"
   xmlns="http://www.w3.org/2000/svg"
   xmlns:sodipodi="http://sodipodi.sourceforge.net/DTD/sodipodi-0.dtd"
   xmlns:inkscape="http://www.inkscape.org/namespaces/inkscape"
   width="100"
   height="100"
   viewBox="0 0 26.458333 26.458334"
   version="1.1"
   id="svg5"
   inkscape:version="1.0.1 (3bc2e813f5, 2020-09-07)"
   sodipodi:docname="8104_PowerGenerator.svg">
  <metadata
     id="metadata12">
    <rdf:RDF>
      <cc:Work
         rdf:about="">
        <dc:format>image/svg+xml</dc:format>
        <dc:type
           rdf:resource="http://purl.org/dc/dcmitype/StillImage" />
        <dc:title />
      </cc:Work>
    </rdf:RDF>
  </metadata>
  <sodipodi:namedview
     id="namedview7"
     pagecolor="#ffffff"
     bordercolor="#666666"
     borderopacity="1.0"
     inkscape:pageshadow="2"
     inkscape:pageopacity="0.0"
     inkscape:pagecheckerboard="0"
     inkscape:document-units="mm"
     showgrid="false"
     units="px"
     showguides="true"
     inkscape:guide-bbox="true"
     inkscape:zoom="5.9722782"
     inkscape:cx="43.915511"
     inkscape:cy="69.152719"
     inkscape:window-width="2560"
     inkscape:window-height="1377"
     inkscape:window-x="-8"
     inkscape:window-y="-8"
     inkscape:window-maximized="1"
     inkscape:current-layer="layer1"
     inkscape:document-rotation="0">
    <sodipodi:guide
       position="13.201969,13.256364"
       orientation="0,-1"
       id="guide836" />
    <sodipodi:guide
       position="5.1390215,3.0669248"
       orientation="0,-1"
       id="guide904" />
    <sodipodi:guide
       position="4.1643794,23.800219"
       orientation="1,0"
       id="guide906" />
    <sodipodi:guide
       position="22.239559,23.800219"
       orientation="1,0"
       id="guide908" />
  </sodipodi:namedview>
  <defs
     id="defs2">
    <rect
       x="0.66976112"
       y="1.3395222"
       width="119.88725"
       height="118.54772"
       id="rect5432" />
    <style
       type="text/css"
       id="style910">
   
    .fil1 {fill:none}
    .fil0 {fill:black}
   
  </style>
    <style
       type="text/css"
       id="style1028">
   
    .fil0 {fill:black;fill-rule:nonzero}
   
  </style>
  </defs>
  <g
     inkscape:label="Layer 1"
     inkscape:groupmode="layer"
     id="layer1">
    <rect
       style="fill:#ff7f00;fill-opacity:1;stroke:none;stroke-width:1.07353"
       id="rect1975"
       width="25.929167"
       height="25.929167"
       x="0.26458332"
       y="0.26458332"
       rx="2" />
    <g
       transform="matrix(1.3333333,0,0,1.3333333,0.19562947,-369.74525)"
       id="g1417"
       style="fill:#ffffff;stroke:#ffffff;stroke-opacity:1" />
    <g
       id="g845"
       style="fill:#ffffff"
       transform="matrix(0.38428445,0,0,0.38428445,-0.14153306,-0.0085841)">
      <path
         d="m 39.1,66 h -6 C 32.8,66 32.6,65.9 32.4,65.7 32.2,65.5 32.1,65.2 32.1,65 l 0.7,-34 h 2 2.8 2 l 0.7,34 c 0,0.3 -0.1,0.5 -0.3,0.7 -0.2,0.2 -0.6,0.3 -0.9,0.3 z"
         id="path843"
         style="fill:#ffffff"
         sodipodi:nodetypes="sssccccccss" />
    </g>
    <g
       id="g849"
       style="fill:#ffffff"
       transform="matrix(0.38428445,0,0,0.38428445,-0.14153306,-0.0085841)">
      <path
         d="m 36.1,33 c -3.3,0 -6,-2.7 -6,-6 0,-3.3 2.7,-6 6,-6 3.3,0 6,2.7 6,6 0,3.3 -2.7,6 -6,6 z m 0,-10 c -2.2,0 -4,1.8 -4,4 0,2.2 1.8,4 4,4 2.2,0 4,-1.8 4,-4 0,-2.2 -1.8,-4 -4,-4 z"
         id="path847"
         style="fill:#ffffff" />
    </g>
    <g
       id="g853"
       style="fill:#ffffff"
       transform="matrix(0.38428445,0,0,0.38428445,-0.14153306,-0.0085841)">
      <path
         d="m 39.2,23.2 -2,-0.3 c -2.1,0 0,0 -2.1,0 l -2,0.3 -0.7,-5.4 C 31.9,14.3 32,10.8 32.6,7.6 33.1,5.1 34,1.8 36.3,2 c 0.8,0.1 1.5,0.5 2.1,1.2 3.1,4 1,18.3 0.8,20 z"
         id="path851"
         style="fill:#ffffff"
         sodipodi:nodetypes="ccccccccc" />
    </g>
    <g
       id="g857"
       style="fill:#ffffff"
       transform="matrix(0.38428445,0,0,0.38428445,-0.14153306,-0.0085841)">
      <path
         d="m 54.8,41.1 c -5.3,0 -15.8,-8.5 -17,-9.5 l 1.3,-1.5 c 1,-1.7 0,0 1,-1.7 l 0.8,-1.8 5,2.1 c 3.3,1.4 6.2,3.2 8.7,5.4 1.9,1.7 4.2,4.1 2.9,6 -0.5,0.7 -1.2,1.1 -2.1,1.2 -0.2,-0.2 -0.4,-0.2 -0.6,-0.2 z"
         id="path855"
         style="fill:#ffffff"
         sodipodi:nodetypes="sccccccccs" />
    </g>
    <g
       id="g861"
       style="fill:#ffffff"
       transform="matrix(0.38428445,0,0,0.38428445,-0.14153306,-0.0085841)">
      <path
         d="m 16.7,40.2 c -1.2,0 -2.2,-0.3 -2.6,-1.4 -0.3,-0.8 -0.3,-1.6 0.1,-2.4 2,-4.7 15.6,-9.7 17.1,-10.2 l 0.7,1.9 c 0.9,1.8 0,0 0.9,1.8 l 1.2,1.6 -4.4,3.2 c -2.9,2.1 -5.9,3.7 -9.1,4.7 -1.2,0.4 -2.7,0.8 -3.9,0.8 z"
         id="path859"
         style="fill:#ffffff"
         sodipodi:nodetypes="sccccccccs" />
    </g>
    <g
       id="g865"
       style="fill:#ffffff;stroke:#ffffff;stroke-width:1.51971;stroke-miterlimit:4;stroke-dasharray:none;stroke-opacity:1"
       transform="matrix(0.38428445,0,0,0.38428445,-0.67069973,-0.0085841)">
      <path
         d="m 25.1,11 h -14 c -0.6,0 -1,-0.4 -1,-1 0,-0.6 0.4,-1 1,-1 h 14 c 0.6,0 1,0.4 1,1 0,0.6 -0.4,1 -1,1 z"
         id="path863"
         style="fill:#ffffff;stroke:#ffffff;stroke-width:1.51971;stroke-miterlimit:4;stroke-dasharray:none;stroke-opacity:1" />
    </g>
    <g
       id="g869"
       style="fill:#ffffff;stroke:#ffffff;stroke-width:1.51971;stroke-miterlimit:4;stroke-dasharray:none;stroke-opacity:1"
       transform="matrix(0.38428445,0,0,0.38428445,-0.67069973,0.52058257)">
      <path
         d="m 27.1,16 h -14 c -0.6,0 -1,-0.4 -1,-1 0,-0.6 0.4,-1 1,-1 h 14 c 0.6,0 1,0.4 1,1 0,0.6 -0.4,1 -1,1 z"
         id="path867"
         style="fill:#ffffff;stroke:#ffffff;stroke-width:1.51971;stroke-miterlimit:4;stroke-dasharray:none;stroke-opacity:1" />
    </g>
    <g
       id="g873"
       style="fill:#ffffff"
       transform="matrix(0.38428445,0,0,0.38428445,-0.67069973,1.0497492)">
      <path
         d="m 25.1,21 h -14 c -0.6,0 -1,-0.4 -1,-1 0,-0.6 0.4,-1 1,-1 h 14 c 0.6,0 1,0.4 1,1 0,0.6 -0.4,1 -1,1 z"
         id="path871"
         style="fill:#ffffff;stroke:#ffffff;stroke-width:1.51971;stroke-miterlimit:4;stroke-dasharray:none;stroke-opacity:1" />
    </g>
  </g>
</svg>
