<?xml version="1.0" encoding="UTF-8" standalone="no"?>
<svg
   xmlns:dc="http://purl.org/dc/elements/1.1/"
   xmlns:cc="http://creativecommons.org/ns#"
   xmlns:rdf="http://www.w3.org/1999/02/22-rdf-syntax-ns#"
   xmlns:svg="http://www.w3.org/2000/svg"
   xmlns="http://www.w3.org/2000/svg"
   xmlns:sodipodi="http://sodipodi.sourceforge.net/DTD/sodipodi-0.dtd"
   xmlns:inkscape="http://www.inkscape.org/namespaces/inkscape"
   width="100"
   height="100"
   viewBox="0 0 26.458333 26.458334"
   version="1.1"
   id="svg5"
   inkscape:version="1.0.1 (3bc2e813f5, 2020-09-07)"
   sodipodi:docname="powerswitch.svg">
  <metadata
     id="metadata12">
    <rdf:RDF>
      <cc:Work
         rdf:about="">
        <dc:format>image/svg+xml</dc:format>
        <dc:type
           rdf:resource="http://purl.org/dc/dcmitype/StillImage" />
        <dc:title></dc:title>
      </cc:Work>
    </rdf:RDF>
  </metadata>
  <sodipodi:namedview
     id="namedview7"
     pagecolor="#ffffff"
     bordercolor="#666666"
     borderopacity="1.0"
     inkscape:pageshadow="2"
     inkscape:pageopacity="0.0"
     inkscape:pagecheckerboard="0"
     inkscape:document-units="mm"
     showgrid="false"
     units="px"
     showguides="true"
     inkscape:guide-bbox="true"
     inkscape:zoom="2.9861391"
     inkscape:cx="-46.485038"
     inkscape:cy="72.924788"
     inkscape:window-width="2560"
     inkscape:window-height="1377"
     inkscape:window-x="-8"
     inkscape:window-y="-8"
     inkscape:window-maximized="1"
     inkscape:current-layer="layer1"
     inkscape:document-rotation="0">
    <sodipodi:guide
       position="13.201969,13.256364"
       orientation="0,-1"
       id="guide836" />
    <sodipodi:guide
       position="13.201969,13.256364"
       orientation="1,0"
       id="guide838" />
    <sodipodi:guide
       position="4.1643795,23.800219"
       orientation="0,-1"
       id="guide902" />
    <sodipodi:guide
       position="5.1390215,3.0669248"
       orientation="0,-1"
       id="guide904" />
    <sodipodi:guide
       position="4.1643794,23.800219"
       orientation="1,0"
       id="guide906" />
    <sodipodi:guide
       position="22.239559,23.800219"
       orientation="1,0"
       id="guide908" />
  </sodipodi:namedview>
  <defs
     id="defs2">
    <rect
       x="0.66976112"
       y="1.3395222"
       width="119.88725"
       height="118.54772"
       id="rect5432" />
    <style
       type="text/css"
       id="style910">
   
    .fil1 {fill:none}
    .fil0 {fill:black}
   
  </style>
  </defs>
  <g
     inkscape:label="Layer 1"
     inkscape:groupmode="layer"
     id="layer1">
    <rect
       style="fill:#ff7f00;fill-opacity:1;stroke:none;stroke-width:1.07353"
       id="rect1975"
       width="25.929167"
       height="25.929167"
       x="0.26458332"
       y="0.26458332"
       rx="2" />
    <rect
       class="fil1"
       width="1.8062205"
       height="1.8062205"
       id="rect934"
       x="26.503439"
       y="-9.8018103"
       style="clip-rule:evenodd;fill-rule:evenodd;stroke-width:0.264583;image-rendering:optimizeQuality;shape-rendering:geometricPrecision;text-rendering:geometricPrecision" />
    <path
       d="M 21.355657,3.1478031 H 4.8214718 c -0.7771211,0 -1.4090867,0.6349931 -1.4090867,1.4121141 v 1.3093141 h 6.5556152 c 0.2207317,0 0.3991447,0.1360754 0.3991447,0.3023805 0,0.1693326 -0.178413,0.3023817 -0.3991447,0.3023817 H 3.4123851 v 2.116666 h 6.5556152 c 0.2207317,0 0.3991447,0.1360754 0.3991447,0.3023806 0,0.1693325 -0.178413,0.3023816 -0.3991447,0.3023816 H 3.4123851 V 21.091077 c 0,0.777121 0.6319656,1.409106 1.4090867,1.409106 H 13.995716 V 15.93246 c 0,-0.20259 0.136075,-0.368895 0.302381,-0.368895 0.166306,0 0.30238,0.166305 0.30238,0.368895 v 6.567723 h 2.116667 V 15.93246 c 0,-0.20259 0.136075,-0.368895 0.302381,-0.368895 0.166305,0 0.302381,0.166305 0.302381,0.368895 v 6.567723 h 2.116666 V 15.93246 c 0,-0.20259 0.136075,-0.368895 0.302381,-0.368895 0.166305,0 0.302381,0.166305 0.302381,0.368895 v 6.567723 h 1.312323 c 0.777121,0 1.409105,-0.631985 1.409105,-1.409106 V 4.5599172 c 0,-0.777121 -0.631984,-1.4121141 -1.409105,-1.4121141 z M 12.181431,20.081136 c 0,0.169332 -0.136076,0.30238 -0.302382,0.30238 H 5.5290511 c -0.1663051,0 -0.3023805,-0.133048 -0.3023805,-0.30238 v -1.566332 c 0.093737,0.03326 0.196536,0.05442 0.3023805,0.05442 h 6.3499979 c 0.105829,0 0.208644,-0.02116 0.302382,-0.05442 z m 0,-2.419048 c 0,0.169334 -0.136076,0.302382 -0.302382,0.302382 H 5.5290511 c -0.1663051,0 -0.3023805,-0.133048 -0.3023805,-0.302382 v -3.326189 c 0,-0.166307 0.1360754,-0.302381 0.3023805,-0.302381 h 6.3499979 c 0.166306,0 0.302382,0.136074 0.302382,0.302381 z m 0,-4.178906 c -0.09374,-0.03326 -0.196556,-0.05442 -0.302382,-0.05442 H 5.5290511 c -0.10584,0 -0.2086434,0.02117 -0.3023805,0.05442 V 11.91685 c 0,-0.166306 0.1360754,-0.302382 0.3023805,-0.302382 h 6.3499979 c 0.166306,0 0.302382,0.136076 0.302382,0.302382 z m 2.721428,0.247954 c -0.834575,0 -1.511905,-0.677331 -1.511905,-1.511905 0,-0.831548 0.67733,-1.511905 1.511905,-1.511905 0.834574,0 1.511904,0.680357 1.511904,1.511905 0,0.834574 -0.67733,1.511905 -1.511904,1.511905 z m 1.209523,-4.5145463 c -0.166306,0 -0.30238,-0.1360742 -0.30238,-0.3023805 v -3.628571 c 0,-0.1663245 0.136074,-0.3023805 0.30238,-0.3023805 h 3.628571 c 0.166305,0 0.302381,0.136056 0.302381,0.3023805 v 3.628571 c 0,0.1663063 -0.136076,0.3023805 -0.302381,0.3023805 z m 3.023809,4.5145463 c -0.834574,0 -1.511905,-0.677331 -1.511905,-1.511905 0,-0.831548 0.677331,-1.511905 1.511905,-1.511905 0.834575,0 1.511905,0.680357 1.511905,1.511905 0,0.834574 -0.67733,1.511905 -1.511905,1.511905 z"
       id="path975"
       style="fill:#ffffff;fill-opacity:1;stroke-width:0.302381" />
  </g>
</svg>
