<?xml version="1.0" encoding="UTF-8" standalone="no"?>
<svg
   xmlns:dc="http://purl.org/dc/elements/1.1/"
   xmlns:cc="http://creativecommons.org/ns#"
   xmlns:rdf="http://www.w3.org/1999/02/22-rdf-syntax-ns#"
   xmlns:svg="http://www.w3.org/2000/svg"
   xmlns="http://www.w3.org/2000/svg"
   xmlns:sodipodi="http://sodipodi.sourceforge.net/DTD/sodipodi-0.dtd"
   xmlns:inkscape="http://www.inkscape.org/namespaces/inkscape"
   width="100"
   height="100"
   viewBox="0 0 26.458333 26.458334"
   version="1.1"
   id="svg5"
   inkscape:version="1.0.1 (3bc2e813f5, 2020-09-07)"
   sodipodi:docname="gate.svg">
  <metadata
     id="metadata12">
    <rdf:RDF>
      <cc:Work
         rdf:about="">
        <dc:format>image/svg+xml</dc:format>
        <dc:type
           rdf:resource="http://purl.org/dc/dcmitype/StillImage" />
        <dc:title></dc:title>
      </cc:Work>
    </rdf:RDF>
  </metadata>
  <sodipodi:namedview
     id="namedview7"
     pagecolor="#ffffff"
     bordercolor="#666666"
     borderopacity="1.0"
     inkscape:pageshadow="2"
     inkscape:pageopacity="0.0"
     inkscape:pagecheckerboard="0"
     inkscape:document-units="mm"
     showgrid="false"
     units="px"
     showguides="true"
     inkscape:guide-bbox="true"
     inkscape:zoom="4.2230384"
     inkscape:cx="105.98172"
     inkscape:cy="112.45053"
     inkscape:window-width="2560"
     inkscape:window-height="1377"
     inkscape:window-x="-8"
     inkscape:window-y="-8"
     inkscape:window-maximized="1"
     inkscape:current-layer="g1417"
     inkscape:document-rotation="0">
    <sodipodi:guide
       position="13.201969,13.256364"
       orientation="0,-1"
       id="guide836" />
    <sodipodi:guide
       position="13.201969,13.256364"
       orientation="1,0"
       id="guide838" />
    <sodipodi:guide
       position="4.1643795,23.800219"
       orientation="0,-1"
       id="guide902" />
    <sodipodi:guide
       position="5.1390215,3.0669248"
       orientation="0,-1"
       id="guide904" />
    <sodipodi:guide
       position="4.1643794,23.800219"
       orientation="1,0"
       id="guide906" />
    <sodipodi:guide
       position="22.239559,23.800219"
       orientation="1,0"
       id="guide908" />
  </sodipodi:namedview>
  <defs
     id="defs2">
    <rect
       x="0.66976112"
       y="1.3395222"
       width="119.88725"
       height="118.54772"
       id="rect5432" />
    <style
       type="text/css"
       id="style910">
   
    .fil1 {fill:none}
    .fil0 {fill:black}
   
  </style>
    <style
       type="text/css"
       id="style1028">
   
    .fil0 {fill:black;fill-rule:nonzero}
   
  </style>
  </defs>
  <g
     inkscape:label="Layer 1"
     inkscape:groupmode="layer"
     id="layer1">
    <rect
       style="fill:#a65628;fill-opacity:1;stroke:none;stroke-width:1.07353"
       id="rect1975"
       width="25.929167"
       height="25.929167"
       x="0.26458332"
       y="0.26458332"
       rx="2" />
    <rect
       class="fil1"
       width="1.8062205"
       height="1.8062205"
       id="rect934"
       x="26.503439"
       y="-9.8018103"
       style="clip-rule:evenodd;fill-rule:evenodd;stroke-width:0.264583;image-rendering:optimizeQuality;shape-rendering:geometricPrecision;text-rendering:geometricPrecision" />
    <g
       transform="matrix(1.3333333,0,0,1.3333333,0.19562947,-369.74525)"
       id="g1417"
       style="fill:#ffffff;stroke:#ffffff;stroke-opacity:1">
      <path
         d="m 17.399732,279.37437 h -1.984375 c -0.109684,0 -0.198438,0.0888 -0.198438,0.19844 v 1.78999 c -0.327645,-0.40555 -0.828244,-0.66583 -1.389062,-0.66583 H 4.1044191 v -1.12416 c 0,-0.10968 -0.088754,-0.19844 -0.1984375,-0.19844 h -1.984375 c -0.1096832,0 -0.1984375,0.0888 -0.1984375,0.19844 v 15.47813 c 0,0.10968 0.088754,0.19843 0.1984375,0.19843 h 1.984375 c 0.1096831,0 0.1984375,-0.0888 0.1984375,-0.19843 v -1.12416 h 9.7234379 c 0.560818,0 1.061417,-0.26028 1.389062,-0.66583 v 1.78999 c 0,0.10968 0.08875,0.19843 0.198438,0.19843 h 1.984375 c 0.109683,0 0.198437,-0.0888 0.198437,-0.19843 v -15.47813 c 0,-0.10968 -0.08875,-0.19844 -0.198437,-0.19844 z M 3.7075441,294.8525 h -1.5875 v -15.08125 h 1.5875 v 1.12416 12.83293 z M 13.827857,293.52991 H 4.1044191 v -12.43607 h 9.7234379 c 0.765844,0 1.389062,0.62322 1.389062,1.38907 v 9.65793 c 0,0.76585 -0.623218,1.38907 -1.389062,1.38907 z m 3.373437,1.32259 h -1.5875 v -2.71166 -9.65793 -2.71166 h 1.5875 z"
         id="path1495"
         style="stroke:#ffffff;stroke-width:0.34875;stroke-miterlimit:4;stroke-dasharray:none;stroke-opacity:1" />
      <path
         d="M 13.230994,282.52515 H 5.6934693 c -0.1096832,0 -0.1984375,0.0888 -0.1984375,0.19844 v 9.17657 c 0,0.10968 0.088754,0.19844 0.1984375,0.19844 h 7.5375247 c 0.328274,0 0.595312,-0.26704 0.595312,-0.59531 v -8.38283 c 0,-0.32827 -0.267038,-0.59531 -0.595312,-0.59531 z m -3.5703007,6.7714 -1.7185239,-1.98827 1.7183786,-1.99253 1.718524,1.99348 z m -3.7687865,-3.75085 1.5208617,1.76349 -1.5208617,1.76009 z m 5.7515872,1.46232 -1.7179428,-1.99301 1.7187178,-1.98795 1.717749,1.98682 z m 1.785937,-1.46429 v 3.52336 l -1.520764,-1.75878 z M 9.6606933,284.71425 8.1117447,282.92203 H 11.21026 Z m -0.2648095,0.30081 -1.7188146,1.99296 -1.7178457,-1.99184 1.7186208,-1.98912 z m -1.7180395,2.59447 1.7206315,1.99081 -1.7214066,1.99596 -1.7203527,-1.99474 z m 1.9827037,2.29451 1.549736,1.79768 H 8.1101946 Z m 0.2624112,-0.30375 1.7213098,-1.99076 1.720256,1.98955 -1.721031,1.99722 z m 3.5064718,-6.47983 v 1.36431 l -1.351153,-1.56274 h 1.152716 c 0.109489,0 0.198437,0.0889 0.198437,0.19843 z m -6.1852326,-0.19843 -1.3522916,1.56513 v -1.56513 z m -1.3522916,7.21196 1.3520372,1.56773 H 5.8919068 Z m 7.3390872,1.56773 h -1.154545 l 1.352982,-1.5699 v 1.37147 c 0,0.10949 -0.08895,0.19843 -0.198437,0.19843 z"
         id="path1497"
         style="stroke:#ffffff;stroke-width:0.34875;stroke-miterlimit:4;stroke-dasharray:none;stroke-opacity:1" />
    </g>
  </g>
</svg>
