<?xml version="1.0" encoding="UTF-8" standalone="no"?>
<svg
   xmlns:dc="http://purl.org/dc/elements/1.1/"
   xmlns:cc="http://creativecommons.org/ns#"
   xmlns:rdf="http://www.w3.org/1999/02/22-rdf-syntax-ns#"
   xmlns:svg="http://www.w3.org/2000/svg"
   xmlns="http://www.w3.org/2000/svg"
   xmlns:sodipodi="http://sodipodi.sourceforge.net/DTD/sodipodi-0.dtd"
   xmlns:inkscape="http://www.inkscape.org/namespaces/inkscape"
   width="100"
   height="100"
   viewBox="0 0 26.458333 26.458334"
   version="1.1"
   id="svg5"
   inkscape:version="1.0.1 (3bc2e813f5, 2020-09-07)"
   sodipodi:docname="stockgrid.svg">
  <metadata
     id="metadata12">
    <rdf:RDF>
      <cc:Work
         rdf:about="">
        <dc:format>image/svg+xml</dc:format>
        <dc:type
           rdf:resource="http://purl.org/dc/dcmitype/StillImage" />
        <dc:title></dc:title>
      </cc:Work>
    </rdf:RDF>
  </metadata>
  <sodipodi:namedview
     id="namedview7"
     pagecolor="#ffffff"
     bordercolor="#666666"
     borderopacity="1.0"
     inkscape:pageshadow="2"
     inkscape:pageopacity="0.0"
     inkscape:pagecheckerboard="0"
     inkscape:document-units="mm"
     showgrid="false"
     units="px"
     showguides="true"
     inkscape:guide-bbox="true"
     inkscape:zoom="4.2230384"
     inkscape:cx="105.98172"
     inkscape:cy="112.45053"
     inkscape:window-width="2560"
     inkscape:window-height="1377"
     inkscape:window-x="-8"
     inkscape:window-y="-8"
     inkscape:window-maximized="1"
     inkscape:current-layer="layer1"
     inkscape:document-rotation="0">
    <sodipodi:guide
       position="13.201969,13.256364"
       orientation="0,-1"
       id="guide836" />
    <sodipodi:guide
       position="13.201969,13.256364"
       orientation="1,0"
       id="guide838" />
    <sodipodi:guide
       position="4.1643795,23.800219"
       orientation="0,-1"
       id="guide902" />
    <sodipodi:guide
       position="5.1390215,3.0669248"
       orientation="0,-1"
       id="guide904" />
    <sodipodi:guide
       position="4.1643794,23.800219"
       orientation="1,0"
       id="guide906" />
    <sodipodi:guide
       position="22.239559,23.800219"
       orientation="1,0"
       id="guide908" />
  </sodipodi:namedview>
  <defs
     id="defs2">
    <rect
       x="0.66976112"
       y="1.3395222"
       width="119.88725"
       height="118.54772"
       id="rect5432" />
    <style
       type="text/css"
       id="style910">
   
    .fil1 {fill:none}
    .fil0 {fill:black}
   
  </style>
    <style
       type="text/css"
       id="style1028">
   
    .fil0 {fill:black;fill-rule:nonzero}
   
  </style>
  </defs>
  <g
     inkscape:label="Layer 1"
     inkscape:groupmode="layer"
     id="layer1">
    <rect
       style="fill:#a65628;fill-opacity:1;stroke:none;stroke-width:1.07353"
       id="rect1975"
       width="25.929167"
       height="25.929167"
       x="0.26458332"
       y="0.26458332"
       rx="2" />
    <rect
       class="fil1"
       width="1.8062205"
       height="1.8062205"
       id="rect934"
       x="26.503439"
       y="-9.8018103"
       style="clip-rule:evenodd;fill-rule:evenodd;stroke-width:0.264583;image-rendering:optimizeQuality;shape-rendering:geometricPrecision;text-rendering:geometricPrecision" />
    <g
       style="fill:#ffffff"
       id="g1247"
       transform="matrix(0.23828576,0,0,0.26650255,0.94413313,-1.3558165)">
      <polygon
         fill="#a65628"
         points="39.604,46.695 43.534,46.695 44.908,60.886 48.399,60.886 48.399,46.269 61.437,46.269 66.9,42.378 61.206,60.886 64.441,60.886 70.828,47.286 70.631,60.886 74.026,60.886 75.93,46.539 74.476,40.834 78.878,27.846 78.878,56.063 81.281,56.063 81.281,22.923 81.258,22.923 81.266,22.906 75.562,18.019 35.678,18.019 22.866,45.182 18.247,44.908 19.878,48.169 16.825,60.886 21.569,60.886 29.385,54.416 29.114,49.797 34.498,44.931 31.554,60.886 34.498,60.886 "
         id="polygon1233"
         style="fill:#ffffff" />
      <path
         fill="#a65628"
         d="M 98.936,70.062 V 66.548 H 0.706 v 3.514 H 31.14 l -2.464,5.271 H 8.851 v 3.515 H 27.034 L 24.57,84.12 h -6.526 v 3.514 H 85.848 V 84.12 H 78.219 L 75.762,78.848 H 91.59 V 75.333 H 74.124 l -2.459,-5.271 z m -63.917,0 H 50.19 v 5.271 H 32.555 Z m -4.106,8.786 H 50.19 V 84.12 H 28.45 Z M 74.342,84.12 H 53.703 V 78.848 H 71.885 Z M 70.246,75.333 H 53.703 v -5.271 h 14.086 z"
         id="path1235"
         style="fill:#ffffff" />
    </g>
  </g>
</svg>
