<?xml version="1.0" encoding="UTF-8" standalone="no"?>
<svg
   xmlns:dc="http://purl.org/dc/elements/1.1/"
   xmlns:cc="http://creativecommons.org/ns#"
   xmlns:rdf="http://www.w3.org/1999/02/22-rdf-syntax-ns#"
   xmlns:svg="http://www.w3.org/2000/svg"
   xmlns="http://www.w3.org/2000/svg"
   xmlns:sodipodi="http://sodipodi.sourceforge.net/DTD/sodipodi-0.dtd"
   xmlns:inkscape="http://www.inkscape.org/namespaces/inkscape"
   width="100"
   height="100"
   viewBox="0 0 26.458333 26.458334"
   version="1.1"
   id="svg5"
   inkscape:version="1.0.1 (3bc2e813f5, 2020-09-07)"
   sodipodi:docname="4209_LivestockStructure.svg">
  <metadata
     id="metadata12">
    <rdf:RDF>
      <cc:Work
         rdf:about="">
        <dc:format>image/svg+xml</dc:format>
        <dc:type
           rdf:resource="http://purl.org/dc/dcmitype/StillImage" />
        <dc:title />
      </cc:Work>
    </rdf:RDF>
  </metadata>
  <sodipodi:namedview
     id="namedview7"
     pagecolor="#ffffff"
     bordercolor="#666666"
     borderopacity="1.0"
     inkscape:pageshadow="2"
     inkscape:pageopacity="0.0"
     inkscape:pagecheckerboard="0"
     inkscape:document-units="mm"
     showgrid="false"
     units="px"
     showguides="true"
     inkscape:guide-bbox="true"
     inkscape:zoom="5.9722782"
     inkscape:cx="43.915511"
     inkscape:cy="69.152719"
     inkscape:window-width="2560"
     inkscape:window-height="1377"
     inkscape:window-x="-8"
     inkscape:window-y="-8"
     inkscape:window-maximized="1"
     inkscape:current-layer="layer1"
     inkscape:document-rotation="0">
    <sodipodi:guide
       position="13.201969,13.256364"
       orientation="0,-1"
       id="guide836" />
    <sodipodi:guide
       position="13.201969,13.256364"
       orientation="1,0"
       id="guide838" />
    <sodipodi:guide
       position="4.1643795,23.800219"
       orientation="0,-1"
       id="guide902" />
    <sodipodi:guide
       position="5.1390215,3.0669248"
       orientation="0,-1"
       id="guide904" />
    <sodipodi:guide
       position="4.1643794,23.800219"
       orientation="1,0"
       id="guide906" />
    <sodipodi:guide
       position="22.239559,23.800219"
       orientation="1,0"
       id="guide908" />
  </sodipodi:namedview>
  <defs
     id="defs2">
    <rect
       x="0.66976112"
       y="1.3395222"
       width="119.88725"
       height="118.54772"
       id="rect5432" />
    <style
       type="text/css"
       id="style910">
   
    .fil1 {fill:none}
    .fil0 {fill:black}
   
  </style>
    <style
       type="text/css"
       id="style1028">
   
    .fil0 {fill:black;fill-rule:nonzero}
   
  </style>
  </defs>
  <g
     inkscape:label="Layer 1"
     inkscape:groupmode="layer"
     id="layer1">
    <rect
       style="fill:#a65628;fill-opacity:1;stroke:none;stroke-width:1.07353"
       id="rect1975"
       width="25.929167"
       height="25.929167"
       x="0.26458332"
       y="0.26458332"
       rx="2" />
    <g
       transform="matrix(1.3333333,0,0,1.3333333,0.19562947,-369.74525)"
       id="g1417"
       style="fill:#ffffff;stroke:#ffffff;stroke-opacity:1" />
    <path
       d="m 22.156047,13.566152 c -0.661458,-1.322917 -0.669131,-1.322917 -0.669131,-1.98411 0,-0.297921 -0.741627,-0.671513 -0.661458,-0.992453 0.330729,-1.3229165 0.0077,-2.315104 0.0077,-2.315104 1.322916,-0.6614583 0,-3.224477 0,-2.6458333 0,1.984375 -1.322917,1.3229167 -1.322917,1.3229167 C 18.187297,6.29011 16.533651,5.6286517 14.549276,5.2979226 11.939691,4.8629476 9.2576086,5.3079767 9.2576086,5.3079767 8.9268795,4.3157892 7.3015441,3.7112163 7.6039628,4.3157892 c 0.3307292,0.6614584 0,1.3229167 0,1.3229167 -1.6536458,0 -2.3151041,1.5147396 -2.6458333,2.1761979 -0.3307291,0.6614583 -1.3229166,0.3632729 -1.3229166,0.6614583 0,0.6614583 0.3450166,1.3350875 0.6614583,1.4618229 1.6536458,0.661459 3.3072916,0.191823 3.3072916,0.191823 0,0 0.3307292,0.330729 0.6614583,0.661459 0.3307292,0.330464 -1.1038416,0.458787 -1.3229166,0.661458 -0.1918229,0.177535 -0.6614583,0.661458 -0.6614583,0.992187 0,0.340784 1.203325,0.639234 1.3229166,0.33073 0.3307292,-0.853282 1.6136938,-0.61939 2.3151045,-0.853282 0.9921877,-0.330729 0.1680097,-1.211791 0.4167187,-1.131093 5.536407,1.792552 6.528595,-0.532607 7.513109,0.790575 0.986896,1.32662 1.727994,0.763587 2.315104,0.992187 0.492919,0.192088 0.992188,1.322652 1.322917,1.653646 0.13044,0.130969 0.751681,-0.496094 0.669131,-0.661723 z M 6.2810462,7.8149038 c -0.1828271,0 -0.3307292,-0.1481667 -0.3307292,-0.3307292 0,-0.1825625 0.1479021,-0.3307291 0.3307292,-0.3307291 0.1828271,0 0.3307291,0.1481666 0.3307291,0.3307291 0,0.1825625 -0.147902,0.3307292 -0.3307291,0.3307292 z"
       id="path841"
       style="fill:#ffffff;stroke-width:0.264583" />
    <path
       d="m 23.6774,14.690631 v 1.22108 h -5.953125 v -1.22108 h -1.322917 v 1.22108 h -6.283854 v -1.22108 H 8.7945876 v 1.22108 h -6.283854 v -1.22108 H 1.1878169 v 7.326484 h 1.3229167 v -1.221081 h 6.283854 v 1.221081 h 1.3229164 v -1.221081 h 6.283854 v 1.221081 h 1.322917 V 20.796034 H 23.6774 v 1.221081 h 1.322917 V 14.690631 Z M 2.5107336,19.167927 v -1.628108 h 6.283854 v 1.628108 z m 7.6067704,0 v -1.628108 h 6.283854 v 1.628108 z m 13.559896,0 H 17.724275 V 17.539819 H 23.6774 Z"
       id="path847"
       style="fill:#ffffff;stroke-width:0.29352" />
  </g>
</svg>
