<?xml version="1.0" encoding="UTF-8" standalone="no"?>
<svg
   xmlns:dc="http://purl.org/dc/elements/1.1/"
   xmlns:cc="http://creativecommons.org/ns#"
   xmlns:rdf="http://www.w3.org/1999/02/22-rdf-syntax-ns#"
   xmlns:svg="http://www.w3.org/2000/svg"
   xmlns="http://www.w3.org/2000/svg"
   xmlns:sodipodi="http://sodipodi.sourceforge.net/DTD/sodipodi-0.dtd"
   xmlns:inkscape="http://www.inkscape.org/namespaces/inkscape"
   width="100"
   height="100"
   viewBox="0 0 26.458333 26.458334"
   version="1.1"
   id="svg5"
   inkscape:version="1.0.1 (3bc2e813f5, 2020-09-07)"
   sodipodi:docname="mine.svg">
  <metadata
     id="metadata12">
    <rdf:RDF>
      <cc:Work
         rdf:about="">
        <dc:format>image/svg+xml</dc:format>
        <dc:type
           rdf:resource="http://purl.org/dc/dcmitype/StillImage" />
        <dc:title></dc:title>
      </cc:Work>
    </rdf:RDF>
  </metadata>
  <sodipodi:namedview
     id="namedview7"
     pagecolor="#ffffff"
     bordercolor="#666666"
     borderopacity="1.0"
     inkscape:pageshadow="2"
     inkscape:pageopacity="0.0"
     inkscape:pagecheckerboard="0"
     inkscape:document-units="mm"
     showgrid="false"
     units="px"
     showguides="true"
     inkscape:guide-bbox="true"
     inkscape:zoom="4.2230384"
     inkscape:cx="117.84367"
     inkscape:cy="48.876529"
     inkscape:window-width="2560"
     inkscape:window-height="1377"
     inkscape:window-x="-8"
     inkscape:window-y="-8"
     inkscape:window-maximized="1"
     inkscape:current-layer="layer1"
     inkscape:document-rotation="0">
    <sodipodi:guide
       position="13.201969,13.256364"
       orientation="0,-1"
       id="guide836" />
    <sodipodi:guide
       position="13.201969,13.256364"
       orientation="1,0"
       id="guide838" />
    <sodipodi:guide
       position="4.1643795,23.800219"
       orientation="0,-1"
       id="guide902" />
    <sodipodi:guide
       position="5.1390215,3.0669248"
       orientation="0,-1"
       id="guide904" />
    <sodipodi:guide
       position="4.1643794,23.800219"
       orientation="1,0"
       id="guide906" />
    <sodipodi:guide
       position="22.239559,23.800219"
       orientation="1,0"
       id="guide908" />
  </sodipodi:namedview>
  <defs
     id="defs2">
    <rect
       x="0.66976112"
       y="1.3395222"
       width="119.88725"
       height="118.54772"
       id="rect5432" />
    <style
       type="text/css"
       id="style910">
   
    .fil1 {fill:none}
    .fil0 {fill:black}
   
  </style>
    <style
       type="text/css"
       id="style1028">
   
    .fil0 {fill:black;fill-rule:nonzero}
   
  </style>
  </defs>
  <g
     inkscape:label="Layer 1"
     inkscape:groupmode="layer"
     id="layer1">
    <rect
       style="fill:#a65628;fill-opacity:1;stroke:none;stroke-width:1.07353"
       id="rect1975"
       width="25.929167"
       height="25.929167"
       x="0.26458332"
       y="0.26458332"
       rx="2" />
    <rect
       class="fil1"
       width="1.8062205"
       height="1.8062205"
       id="rect934"
       x="26.503439"
       y="-9.8018103"
       style="clip-rule:evenodd;fill-rule:evenodd;stroke-width:0.264583;image-rendering:optimizeQuality;shape-rendering:geometricPrecision;text-rendering:geometricPrecision" />
    <g
       transform="matrix(1.3333333,0,0,1.3333333,0.19562947,-369.74525)"
       id="g1417"
       style="fill:#ffffff;stroke:#ffffff;stroke-opacity:1" />
    <path
       d="M 24.492633,11.916399 C 24.142594,10.990076 23.793903,10.06308 23.444314,9.1367573 23.210655,8.5173367 23.071583,7.822651 22.594155,7.3449985 22.360721,7.111115 22.127511,6.8781302 21.894302,6.6449207 c -2.25e-4,0 -4.49e-4,-4.494e-4 -8.99e-4,-8.987e-4 0.196139,-0.2013061 0.392502,-0.4028368 0.588641,-0.6043676 0.09054,-0.092789 0.09683,-0.2397249 0.0085,-0.3282457 -0.333637,-0.3334131 -0.6675,-0.667051 -1.001138,-1.0009135 -0.0883,-0.088071 -0.235231,-0.082005 -0.32847,0.00831 -0.201306,0.1959139 -0.403062,0.3925018 -0.604368,0.5888651 -2.24e-4,-2.246e-4 -2.24e-4,-4.493e-4 -4.49e-4,-6.74e-4 C 19.787553,4.5386211 19.01895,3.7697937 18.250572,3.0014157 18.114646,2.8652645 17.891097,2.8612204 17.759215,2.9928781 c -0.869031,0.8688065 -1.738062,1.7380622 -2.607094,2.6070933 -0.131882,0.1316578 -0.127613,0.3549817 0.0083,0.4913576 0.751977,0.7522017 1.50373,1.5037294 2.255931,2.2554817 -0.742078,0.7173775 -1.56258,1.5138396 -2.219296,2.1465153 -0.665029,0.640541 -1.330058,1.280631 -1.995087,1.920721 C 12.693761,11.925835 12.185553,11.436949 11.67712,10.948737 10.833253,10.13812 9.70495,9.0426197 8.8610822,8.2313293 9.8354844,7.5804547 10.951879,6.787138 11.926057,6.1360387 12.179936,5.9664114 12.198135,5.6848974 12.018172,5.455058 11.29383,4.5287356 10.853922,3.8863985 10.12958,2.960076 10.020389,2.8207794 9.7534792,2.7911227 9.6108125,2.8899784 8.1670705,3.8879712 6.3323994,4.8151923 5.1825283,5.965288 4.0331066,7.1144851 3.1061102,8.9491562 2.107668,10.392898 c -0.098631,0.142892 -0.069424,0.409353 0.070098,0.518768 0.9265471,0.724567 1.5686595,1.164475 2.494982,1.888817 0.2300641,0.179962 0.511578,0.161539 0.6809807,-0.09234 0.6510993,-0.974178 1.4446406,-2.090348 2.0955152,-3.0651998 0.8108411,0.8440928 1.9063415,1.9723958 2.7171821,2.8160388 0.478776,0.498322 0.957552,0.996644 1.436553,1.494518 -0.800731,0.771298 -1.601911,1.542148 -2.4026419,2.313447 -1.3860012,1.335 -2.7720025,2.669776 -4.1580038,4.004103 -0.06493,0.06246 -0.1296357,0.124918 -0.1943412,0.187376 -0.1786142,0.171875 -0.1801869,0.462375 -0.015952,0.626611 0.2612935,0.261293 0.3803696,0.380144 0.6416631,0.641438 0.2615181,0.261518 0.3803696,0.380594 0.6418878,0.641888 0.1637858,0.163786 0.454736,0.162662 0.62661,-0.01618 0.062459,-0.06448 0.124693,-0.129411 0.1871518,-0.193892 1.3345513,-1.386225 2.6693274,-2.772227 4.0038792,-4.158453 0.760514,-0.789722 1.521029,-1.579443 2.281319,-2.369165 0.811739,0.844766 1.623479,1.689308 2.434994,2.53385 1.267599,1.3186 2.534749,2.637649 3.802348,3.956473 0.05931,0.06133 0.118402,0.12312 0.17794,0.18468 0.163112,0.169852 0.446424,0.164011 0.610883,0 0.261294,-0.261293 0.380145,-0.380145 0.641439,-0.641663 0.261518,-0.261518 0.380594,-0.380369 0.641888,-0.641663 0.163785,-0.16401 0.169627,-0.447546 0,-0.610883 -0.06156,-0.05954 -0.12357,-0.118402 -0.18513,-0.177715 -1.318824,-1.267375 -2.637649,-2.534749 -3.956248,-3.802349 -0.855102,-0.82185 -1.710203,-1.64325 -2.565305,-2.465325 0.62998,-0.654469 1.259961,-1.308714 1.889941,-1.962959 0.632227,-0.656716 1.428689,-1.477218 2.146291,-2.2190848 0.216808,0.2165838 0.433617,0.4333918 0.650425,0.6502008 0.443053,0.443278 1.05124,0.570217 1.628647,0.788599 0.980693,0.370034 1.961611,0.740069 2.942753,1.109879 0.148958,0.05639 0.264664,0.009 0.334761,-0.08178 0.09099,-0.0701 0.138623,-0.185579 0.08246,-0.334536 z"
       id="path1796"
       style="fill:#ffffff;stroke-width:0.224672" />
  </g>
</svg>
