<?xml version="1.0" encoding="UTF-8" standalone="no"?>
<svg
   xmlns:dc="http://purl.org/dc/elements/1.1/"
   xmlns:cc="http://creativecommons.org/ns#"
   xmlns:rdf="http://www.w3.org/1999/02/22-rdf-syntax-ns#"
   xmlns:svg="http://www.w3.org/2000/svg"
   xmlns="http://www.w3.org/2000/svg"
   xmlns:sodipodi="http://sodipodi.sourceforge.net/DTD/sodipodi-0.dtd"
   xmlns:inkscape="http://www.inkscape.org/namespaces/inkscape"
   width="100"
   height="100"
   viewBox="0 0 26.458333 26.458334"
   version="1.1"
   id="svg5"
   inkscape:version="1.0.1 (3bc2e813f5, 2020-09-07)"
   sodipodi:docname="compressor.svg">
  <metadata
     id="metadata12">
    <rdf:RDF>
      <cc:Work
         rdf:about="">
        <dc:format>image/svg+xml</dc:format>
        <dc:type
           rdf:resource="http://purl.org/dc/dcmitype/StillImage" />
        <dc:title></dc:title>
      </cc:Work>
    </rdf:RDF>
  </metadata>
  <sodipodi:namedview
     id="namedview7"
     pagecolor="#ffffff"
     bordercolor="#666666"
     borderopacity="1.0"
     inkscape:pageshadow="2"
     inkscape:pageopacity="0.0"
     inkscape:pagecheckerboard="0"
     inkscape:document-units="mm"
     showgrid="false"
     units="px"
     showguides="true"
     inkscape:guide-bbox="true"
     inkscape:zoom="2.9861391"
     inkscape:cx="-46.485038"
     inkscape:cy="72.924788"
     inkscape:window-width="2560"
     inkscape:window-height="1377"
     inkscape:window-x="-8"
     inkscape:window-y="-8"
     inkscape:window-maximized="1"
     inkscape:current-layer="layer1"
     inkscape:document-rotation="0">
    <sodipodi:guide
       position="13.201969,13.256364"
       orientation="0,-1"
       id="guide836" />
    <sodipodi:guide
       position="13.201969,13.256364"
       orientation="1,0"
       id="guide838" />
  </sodipodi:namedview>
  <defs
     id="defs2">
    <rect
       x="0.66976112"
       y="1.3395222"
       width="119.88725"
       height="118.54772"
       id="rect5432" />
  </defs>
  <g
     inkscape:label="Layer 1"
     inkscape:groupmode="layer"
     id="layer1">
    <rect
       style="fill:#a65628;fill-opacity:1;stroke:none;stroke-width:1.07353"
       id="rect1975"
       width="25.929167"
       height="25.929167"
       x="0.26458332"
       y="0.26458332"
       rx="2" />
    <g
       data-name="Layer 88"
       id="g858"
       transform="matrix(0.26458333,0,0,0.26458333,0.03894826,-0.59075986)"
       style="fill:#ffffff;fill-opacity:1">
      <rect
         x="65"
         y="75.300003"
         width="10"
         height="9.5"
         id="rect836"
         style="fill:#ffffff;fill-opacity:1" />
      <path
         d="m 85.63,37.32 a 3.39,3.39 0 0 0 -3.09,-2 H 17.46 a 3.39,3.39 0 0 0 -3.09,2 41.44,41.44 0 0 0 -1,32.55 V 69.8 a 15.5,15.5 0 0 1 31,0 15.17,15.17 0 0 1 -0.68,4.5 h 38.85 a 3.38,3.38 0 0 0 3.09,-2 41.65,41.65 0 0 0 0,-34.98 z m -4.79,24.81 a 0.5,0.5 0 0 1 -0.5,0.5 H 51.25 a 0.5,0.5 0 0 1 -0.5,-0.5 V 44.61 a 0.5,0.5 0 0 1 0.5,-0.5 h 29.09 a 0.5,0.5 0 0 1 0.5,0.5 z"
         id="path838"
         style="fill:#ffffff;fill-opacity:1" />
      <path
         d="m 28.88,55.3 a 14.5,14.5 0 1 0 14.5,14.5 14.52,14.52 0 0 0 -14.5,-14.5 z m 0,22 a 7.45,7.45 0 1 1 7.44,-7.45 7.46,7.46 0 0 1 -7.44,7.4 z"
         id="path840"
         style="fill:#ffffff;fill-opacity:1" />
      <path
         d="m 28.88,63.36 a 6.45,6.45 0 1 0 6.44,6.44 6.45,6.45 0 0 0 -6.44,-6.44 z"
         id="path842"
         style="fill:#ffffff;fill-opacity:1" />
      <rect
         x="51.75"
         y="55.610001"
         width="28.09"
         height="2.48"
         id="rect844"
         style="fill:#ffffff;fill-opacity:1" />
      <rect
         x="51.75"
         y="59.09"
         width="28.09"
         height="2.54"
         id="rect846"
         style="fill:#ffffff;fill-opacity:1" />
      <rect
         x="51.75"
         y="52.130001"
         width="28.09"
         height="2.48"
         id="rect848"
         style="fill:#ffffff;fill-opacity:1" />
      <rect
         x="51.75"
         y="45.110001"
         width="28.09"
         height="2.54"
         id="rect850"
         style="fill:#ffffff;fill-opacity:1" />
      <rect
         x="51.75"
         y="48.639999"
         width="28.09"
         height="2.48"
         id="rect852"
         style="fill:#ffffff;fill-opacity:1" />
      <rect
         x="30.5"
         y="25.299999"
         width="39"
         height="9"
         id="rect854"
         style="fill:#ffffff;fill-opacity:1" />
      <path
         d="M 49.34,18.38 A 3.08,3.08 0 0 0 46.27,15.3 h -2.7 a 3.08,3.08 0 0 0 -3.07,3.08 v 5.76 h 8.84 z"
         id="path856"
         style="fill:#ffffff;fill-opacity:1" />
    </g>
  </g>
</svg>
