<?xml version="1.0" encoding="UTF-8" standalone="no"?>
<svg
   xmlns:dc="http://purl.org/dc/elements/1.1/"
   xmlns:cc="http://creativecommons.org/ns#"
   xmlns:rdf="http://www.w3.org/1999/02/22-rdf-syntax-ns#"
   xmlns:svg="http://www.w3.org/2000/svg"
   xmlns="http://www.w3.org/2000/svg"
   xmlns:sodipodi="http://sodipodi.sourceforge.net/DTD/sodipodi-0.dtd"
   xmlns:inkscape="http://www.inkscape.org/namespaces/inkscape"
   width="100"
   height="100"
   viewBox="0 0 26.458333 26.458334"
   version="1.1"
   id="svg5"
   inkscape:version="1.0.1 (3bc2e813f5, 2020-09-07)"
   sodipodi:docname="2407_PedestrianCrossing.svg">
  <metadata
     id="metadata12">
    <rdf:RDF>
      <cc:Work
         rdf:about="">
        <dc:format>image/svg+xml</dc:format>
        <dc:type
           rdf:resource="http://purl.org/dc/dcmitype/StillImage" />
        <dc:title />
      </cc:Work>
    </rdf:RDF>
  </metadata>
  <sodipodi:namedview
     id="namedview7"
     pagecolor="#ffffff"
     bordercolor="#666666"
     borderopacity="1.0"
     inkscape:pageshadow="2"
     inkscape:pageopacity="0.0"
     inkscape:pagecheckerboard="0"
     inkscape:document-units="mm"
     showgrid="false"
     units="px"
     showguides="true"
     inkscape:guide-bbox="true"
     inkscape:zoom="8.4460768"
     inkscape:cx="65.513412"
     inkscape:cy="47.320837"
     inkscape:window-width="2560"
     inkscape:window-height="1377"
     inkscape:window-x="-8"
     inkscape:window-y="-8"
     inkscape:window-maximized="1"
     inkscape:current-layer="layer1"
     inkscape:document-rotation="0">
    <sodipodi:guide
       position="13.201969,13.256364"
       orientation="0,-1"
       id="guide836" />
    <sodipodi:guide
       position="13.201969,13.256364"
       orientation="1,0"
       id="guide838" />
    <sodipodi:guide
       position="4.1643795,23.800219"
       orientation="0,-1"
       id="guide902" />
    <sodipodi:guide
       position="5.1390215,3.0669248"
       orientation="0,-1"
       id="guide904" />
    <sodipodi:guide
       position="4.1643794,23.800219"
       orientation="1,0"
       id="guide906" />
    <sodipodi:guide
       position="22.239559,23.800219"
       orientation="1,0"
       id="guide908" />
  </sodipodi:namedview>
  <defs
     id="defs2">
    <rect
       x="0.66976112"
       y="1.3395222"
       width="119.88725"
       height="118.54772"
       id="rect5432" />
    <style
       type="text/css"
       id="style910">
   
    .fil1 {fill:none}
    .fil0 {fill:black}
   
  </style>
    <style
       type="text/css"
       id="style1028">
   
    .fil0 {fill:black;fill-rule:nonzero}
   
  </style>
    <style
       type="text/css"
       id="style863">
   
    .fil0 {fill:black;fill-rule:nonzero}
   
  </style>
  </defs>
  <g
     inkscape:label="Layer 1"
     inkscape:groupmode="layer"
     id="layer1">
    <rect
       style="fill:#377eb8;fill-opacity:1;stroke:none;stroke-width:1.07353"
       id="rect1975"
       width="25.929167"
       height="25.929167"
       x="0.26458332"
       y="0.26458332"
       rx="2" />
    <g
       transform="matrix(1.3333333,0,0,1.3333333,0.19562947,-369.74525)"
       id="g1417"
       style="fill:#ffffff;stroke:#ffffff;stroke-opacity:1" />
    <path
       d="m 13.201969,13.731136 -2.003828,2.857754 c -0.249725,0.356224 -0.741013,0.442704 -1.097432,0.192784 C 9.7567282,16.540501 9.6655848,16.071948 9.8847987,15.719418 l 1.7828643,-2.855229 0.02818,-0.665416 c 0.0103,-0.28218 0.02779,-0.563583 0.03187,-0.846346 0.0012,-0.01594 0.0033,-0.03187 0.0047,-0.04781 l 1.416343,2.28562 z m 1.503794,-4.7480898 0.576409,0.8791896 c 0.133706,0.2040562 0.356223,0.3146342 0.583017,0.3146342 0.130984,0 0.263524,-0.03692 0.381294,-0.114077 0.321631,-0.2108576 0.41161,-0.6426783 0.200557,-0.964309 L 15.00388,6.8970125 c -0.12943,0.61761 -0.248366,1.39652 -0.298117,2.0860337 z m 2.116545,6.8724078 -1.171087,-3.395878 c -0.01322,-0.03712 -0.0309,-0.07696 -0.05111,-0.112134 l -0.03012,-0.05267 -1.606207,-2.7973148 c 0.0014,-0.082982 1.95e-4,-0.1634392 0.0039,-0.2491419 0.0084,-0.1733496 0.02099,-0.3494215 0.03576,-0.5268526 0.03226,-0.3554454 0.07735,-0.7153623 0.13215,-1.072945 0.05519,-0.3573896 0.120102,-0.7141961 0.197059,-1.0593411 0.03867,-0.1717954 0.07968,-0.3422315 0.12496,-0.5017823 l 0.03381,-0.1191292 0.02973,-0.093866 c 0.01185,-0.048002 0.0548,-0.1550831 0.08668,-0.2407858 l 0.0064,-0.017295 0.0012,-0.00292 C 14.819877,5.059726 14.536723,4.4452264 13.983055,4.2407826 13.500122,4.0623803 12.971132,4.2551646 12.707997,4.6745476 l -1.775675,1.9216233 c -0.06394,0.06899 -0.113105,0.1502235 -0.144588,0.2388435 L 9.9524279,9.1783578 c -0.1292346,0.3622473 0.059856,0.7606435 0.4222981,0.8898782 0.07715,0.0276 0.15625,0.04062 0.233789,0.04062 0.286262,0 0.554449,-0.1778193 0.656089,-0.4629151 l 0.714197,-2.0038296 c -0.04062,0.2946181 -0.07715,0.5904024 -0.104167,0.8900731 -0.01749,0.2044438 -0.03226,0.4106389 -0.04198,0.6199403 -0.0093,0.2100796 -0.01283,0.4254089 -0.0093,0.6473431 v 1.95e-4 l 0.002,0.05597 c 0.0072,0.1665472 0.05869,0.3334852 0.157998,0.4823492 l 1.937753,2.904785 1.31859,3.210091 c 0.169658,0.410639 0.633156,0.625188 1.058565,0.478463 0.441926,-0.152363 0.676493,-0.63413 0.52413,-1.075863 z M 13.541673,1.5056611 C 12.902686,1.740228 12.574642,2.4485934 12.809404,3.0877753 13.04397,3.7271503 13.752531,4.0549999 14.391323,3.820433 15.03031,3.5858661 15.358354,2.8775007 15.123592,2.2381257 14.889025,1.5989438 14.180465,1.2710942 13.541673,1.5056611 Z M 5.5253877,17.514915 H 3.5351619 v 1.596549 h 1.9902258 z m 4.2542737,0 H 7.7894356 v 1.596549 h 1.9902258 z m 4.2542736,0 h -1.990226 v 1.596549 h 1.990226 z m 4.254274,0 h -1.990226 v 1.596549 h 1.990226 z m 4.254273,0 h -1.990225 v 1.596549 h 1.990225 z"
       id="path841"
       style="fill:#ffffff;stroke-width:0.199003"
       sodipodi:nodetypes="ccccccccccccscccccccccccccscccccccccccsccccccccccccccccccccccccccccccccccccccccccc" />
    <path
       class="fil0"
       d="m 19.80955,22.295954 c 1.711612,1.060614 3.313631,0.956174 4.80574,-0.313944 0.289794,-0.24754 0.31919,-0.677771 0.0655,-0.960228 -0.25369,-0.282768 -0.694614,-0.311451 -0.984407,-0.06391 -1.044157,0.888834 -2.198544,0.87948 -3.461245,-0.02775 -0.248579,-0.181758 -0.602594,-0.181758 -0.851172,0 -1.261424,0.906604 -2.414851,0.916581 -3.458369,0.02993 -0.274458,-0.234445 -0.666176,-0.224469 -0.93744,0.01156 -1.152471,0.971762 -2.274268,0.800917 -3.445589,-0.04147 -0.245064,-0.179264 -0.583104,-0.196098 -0.851172,0 -1.2614255,0.906586 -2.4148539,0.916562 -3.4583713,0.02991 -0.2741391,-0.233821 -0.6684135,-0.222909 -0.9374398,0.01156 -1.1569434,0.975504 -2.2819357,0.798735 -3.4558128,-0.04864 -0.7364683,-0.533425 -1.5691097,0.559925 -0.8313631,1.093974 1.4969015,1.080256 3.1679345,1.389835 4.7610077,0.316127 1.3604708,0.928115 2.8100839,0.915957 4.3482043,-0.03741 1.41798,0.871999 2.932775,0.98891 4.344366,0.03741 1.360151,0.927804 2.810084,0.915957 4.347562,-0.03709 z"
       id="path867"
       style="clip-rule:evenodd;fill:#ffffff;stroke-width:0.0315611;image-rendering:optimizeQuality;shape-rendering:geometricPrecision;text-rendering:geometricPrecision"
       sodipodi:nodetypes="sccccccccccccccccss" />
  </g>
</svg>
