<?xml version="1.0" encoding="UTF-8" standalone="no"?>
<svg
   xmlns:dc="http://purl.org/dc/elements/1.1/"
   xmlns:cc="http://creativecommons.org/ns#"
   xmlns:rdf="http://www.w3.org/1999/02/22-rdf-syntax-ns#"
   xmlns:svg="http://www.w3.org/2000/svg"
   xmlns="http://www.w3.org/2000/svg"
   xmlns:sodipodi="http://sodipodi.sourceforge.net/DTD/sodipodi-0.dtd"
   xmlns:inkscape="http://www.inkscape.org/namespaces/inkscape"
   width="100"
   height="100"
   viewBox="0 0 26.458333 26.458334"
   version="1.1"
   id="svg5"
   inkscape:version="1.0.1 (3bc2e813f5, 2020-09-07)"
   sodipodi:docname="boatramp.svg">
  <metadata
     id="metadata12">
    <rdf:RDF>
      <cc:Work
         rdf:about="">
        <dc:format>image/svg+xml</dc:format>
        <dc:type
           rdf:resource="http://purl.org/dc/dcmitype/StillImage" />
        <dc:title></dc:title>
      </cc:Work>
    </rdf:RDF>
  </metadata>
  <sodipodi:namedview
     id="namedview7"
     pagecolor="#ffffff"
     bordercolor="#666666"
     borderopacity="1.0"
     inkscape:pageshadow="2"
     inkscape:pageopacity="0.0"
     inkscape:pagecheckerboard="0"
     inkscape:document-units="mm"
     showgrid="false"
     units="px"
     showguides="true"
     inkscape:guide-bbox="true"
     inkscape:zoom="4.2230384"
     inkscape:cx="117.84367"
     inkscape:cy="48.876529"
     inkscape:window-width="2560"
     inkscape:window-height="1377"
     inkscape:window-x="-8"
     inkscape:window-y="-8"
     inkscape:window-maximized="1"
     inkscape:current-layer="layer1"
     inkscape:document-rotation="0">
    <sodipodi:guide
       position="13.201969,13.256364"
       orientation="0,-1"
       id="guide836" />
    <sodipodi:guide
       position="13.201969,13.256364"
       orientation="1,0"
       id="guide838" />
    <sodipodi:guide
       position="4.1643795,23.800219"
       orientation="0,-1"
       id="guide902" />
    <sodipodi:guide
       position="5.1390215,3.0669248"
       orientation="0,-1"
       id="guide904" />
    <sodipodi:guide
       position="4.1643794,23.800219"
       orientation="1,0"
       id="guide906" />
    <sodipodi:guide
       position="22.239559,23.800219"
       orientation="1,0"
       id="guide908" />
  </sodipodi:namedview>
  <defs
     id="defs2">
    <rect
       x="0.66976112"
       y="1.3395222"
       width="119.88725"
       height="118.54772"
       id="rect5432" />
    <style
       type="text/css"
       id="style910">
   
    .fil1 {fill:none}
    .fil0 {fill:black}
   
  </style>
    <style
       type="text/css"
       id="style1028">
   
    .fil0 {fill:black;fill-rule:nonzero}
   
  </style>
  </defs>
  <g
     inkscape:label="Layer 1"
     inkscape:groupmode="layer"
     id="layer1">
    <rect
       style="fill:#377eb8;fill-opacity:1;stroke:none;stroke-width:1.07353"
       id="rect1975"
       width="25.929167"
       height="25.929167"
       x="0.26458332"
       y="0.26458332"
       rx="2" />
    <rect
       class="fil1"
       width="1.8062205"
       height="1.8062205"
       id="rect934"
       x="26.503439"
       y="-9.8018103"
       style="clip-rule:evenodd;fill-rule:evenodd;stroke-width:0.264583;image-rendering:optimizeQuality;shape-rendering:geometricPrecision;text-rendering:geometricPrecision" />
    <g
       transform="matrix(1.3333333,0,0,1.3333333,0.19562947,-369.74525)"
       id="g1417"
       style="fill:#ffffff;stroke:#ffffff;stroke-opacity:1" />
    <g
       style="fill:#ffffff"
       id="g2168"
       transform="matrix(0.36747685,0,0,0.45947472,-0.36579085,-2.5000841)">
      <path
         d="m 69.9493,49.9501 c -0.685,1.011 -1.843,1.679 -3.151,1.679 -1.598,0 -2.97,-0.993 -3.532,-2.393 -0.561,1.4 -1.934,2.393 -3.531,2.393 -1.597,0 -2.969,-0.993 -3.531,-2.393 -0.562,1.4 -1.934,2.393 -3.53,2.393 -1.529,0 -2.85,-0.909 -3.454,-2.214 -0.604,1.305 -1.925,2.214 -3.454,2.214 -1.374,0 -2.583,-0.736 -3.251,-1.834 -1.007,0.863 -2.266,1.833 -3.995,1.833 H 5.1493 l 0.08,-15.446 30.902,6.574 c -1.781,-0.841 -3.018,-2.655 -3.018,-4.749 0,-2.89 2.357,-5.248 5.248,-5.248 2.892,0 5.249,2.358 5.249,5.248 0,2.854 -2.298,5.188 -5.137,5.247 z M 38.3614,35.3256 c -1.477,0 -2.681,1.205 -2.681,2.682 0,1.477 1.204,2.681 2.681,2.681 1.478,0 2.683,-1.204 2.683,-2.681 0,-1.477 -1.205,-2.682 -2.683,-2.682 z m -4.2246,-1.8838 -13.157,-2.753 c -4.12,-0.79 -7.72,-3.987 -10.391,-11.478 4.732,1.042 9.463,2.083 14.194,3.124 l 1.358,-0.679 6.519,-3.803 0.748,1.087 -6.316,4.006 39.525,8.49 -4.074,8.013 -18.474,-3.919 c -0.972,-2.234 -3.254,-3.739 -5.707,-3.739 -1.554,0 -3.083,0.607 -4.225,1.651 z m 10.3164,5.7788 c 0.073,-0.364 0.121,-0.825 0.121,-1.213 0,-0.316 -0.048,-0.656 -0.072,-0.947 -0.025,-0.291 20.036,4.337 20.036,4.337 l -0.468,2.075 z M 32.295,36.6723 7.58,31.3163 7.959,29.1523 c 0,0 25.197,5.461 25.186004,5.481 C 32.773,35.2693 32.231,36.6583 32.295,36.6723 Z"
         fill="#377eb8"
         id="path2154"
         style="fill:#ffffff;fill-rule:evenodd;stroke:none;stroke-width:1" />
    </g>
  </g>
</svg>
