<?xml version="1.0" encoding="UTF-8" standalone="no"?>
<svg
   xmlns:dc="http://purl.org/dc/elements/1.1/"
   xmlns:cc="http://creativecommons.org/ns#"
   xmlns:rdf="http://www.w3.org/1999/02/22-rdf-syntax-ns#"
   xmlns:svg="http://www.w3.org/2000/svg"
   xmlns="http://www.w3.org/2000/svg"
   xmlns:sodipodi="http://sodipodi.sourceforge.net/DTD/sodipodi-0.dtd"
   xmlns:inkscape="http://www.inkscape.org/namespaces/inkscape"
   width="100"
   height="100"
   viewBox="0 0 26.458333 26.458334"
   version="1.1"
   id="svg5"
   inkscape:version="1.0.1 (3bc2e813f5, 2020-09-07)"
   sodipodi:docname="tap.svg">
  <metadata
     id="metadata12">
    <rdf:RDF>
      <cc:Work
         rdf:about="">
        <dc:format>image/svg+xml</dc:format>
        <dc:type
           rdf:resource="http://purl.org/dc/dcmitype/StillImage" />
        <dc:title></dc:title>
      </cc:Work>
    </rdf:RDF>
  </metadata>
  <sodipodi:namedview
     id="namedview7"
     pagecolor="#ffffff"
     bordercolor="#666666"
     borderopacity="1.0"
     inkscape:pageshadow="2"
     inkscape:pageopacity="0.0"
     inkscape:pagecheckerboard="0"
     inkscape:document-units="mm"
     showgrid="false"
     units="px"
     showguides="true"
     inkscape:guide-bbox="true"
     inkscape:zoom="5.9722782"
     inkscape:cx="43.915511"
     inkscape:cy="69.152719"
     inkscape:window-width="2560"
     inkscape:window-height="1377"
     inkscape:window-x="-8"
     inkscape:window-y="-8"
     inkscape:window-maximized="1"
     inkscape:current-layer="layer1"
     inkscape:document-rotation="0">
    <sodipodi:guide
       position="13.201969,13.256364"
       orientation="0,-1"
       id="guide836" />
    <sodipodi:guide
       position="13.201969,13.256364"
       orientation="1,0"
       id="guide838" />
    <sodipodi:guide
       position="4.1643795,23.800219"
       orientation="0,-1"
       id="guide902" />
    <sodipodi:guide
       position="5.1390215,3.0669248"
       orientation="0,-1"
       id="guide904" />
    <sodipodi:guide
       position="4.1643794,23.800219"
       orientation="1,0"
       id="guide906" />
    <sodipodi:guide
       position="22.239559,23.800219"
       orientation="1,0"
       id="guide908" />
  </sodipodi:namedview>
  <defs
     id="defs2">
    <rect
       x="0.66976112"
       y="1.3395222"
       width="119.88725"
       height="118.54772"
       id="rect5432" />
    <style
       type="text/css"
       id="style910">
   
    .fil1 {fill:none}
    .fil0 {fill:black}
   
  </style>
    <style
       type="text/css"
       id="style1028">
   
    .fil0 {fill:black;fill-rule:nonzero}
   
  </style>
  </defs>
  <g
     inkscape:label="Layer 1"
     inkscape:groupmode="layer"
     id="layer1">
    <rect
       style="fill:#377eb8;fill-opacity:1;stroke:none;stroke-width:1.07353"
       id="rect1975"
       width="25.929167"
       height="25.929167"
       x="0.26458332"
       y="0.26458332"
       rx="2" />
    <g
       transform="matrix(1.3333333,0,0,1.3333333,0.19562947,-369.74525)"
       id="g1417"
       style="fill:#ffffff;stroke:#ffffff;stroke-opacity:1" />
    <g
       data-name="17-Tap"
       id="g2797"
       style="fill:#ffffff"
       transform="matrix(0.34152695,0,0,0.37315718,3.1269239,-0.54429063)">
      <path
         d="M 36.4,20.75 46.79,23 h 0.2 a 6,6 0 1 0 0,-12 h -0.18 l -10.4,2.42 a 0.5,0.5 0 0 0 -0.39,0.49 v 6.33 a 0.5,0.5 0 0 0 0.38,0.51 z"
         id="path2783"
         style="fill:#ffffff" />
      <path
         d="m 22,28 v 1.5 a 0.5,0.5 0 0 0 0.5,0.5 h 14 A 0.5,0.5 0 0 0 37,29.5 V 28 A 1,1 0 0 0 36,27 H 23 a 1,1 0 0 0 -1,1 z"
         id="path2785"
         style="fill:#ffffff" />
      <path
         d="m 42,48 v 1 a 1,1 0 0 0 1,1 h 12 a 1,1 0 0 0 1,-1 V 40 A 8,8 0 0 0 48,32 H 13 a 1,1 0 0 0 -1,1 v 12 a 1,1 0 0 0 1,1 h 27 a 2,2 0 0 1 2,2 z"
         id="path2787"
         style="fill:#ffffff" />
      <path
         d="m 12,23 h 0.2 L 22.6,20.75 A 0.5,0.5 0 0 0 23,20.26 V 13.93 A 0.5,0.5 0 0 0 22.61,13.44 L 12.21,11 H 12 a 6,6 0 1 0 0,12 z"
         id="path2789"
         style="fill:#ffffff" />
      <path
         d="m 24.5,25 h 10 A 0.5,0.5 0 0 0 35,24.5 V 23 A 1,1 0 0 0 34,22 V 14 A 4.77,4.77 0 0 0 29.5,10 4.77,4.77 0 0 0 25,14 v 8 a 1,1 0 0 0 -1,1 v 1.5 a 0.5,0.5 0 0 0 0.5,0.5 z"
         id="path2791"
         style="fill:#ffffff" />
      <path
         d="M 59,52 H 39 a 1,1 0 0 0 -1,1 v 6 a 1,1 0 0 0 1,1 h 20 a 1,1 0 0 0 1,-1 v -6 a 1,1 0 0 0 -1,-1 z"
         id="path2793"
         style="fill:#ffffff" />
      <rect
         y="28"
         width="10"
         height="22"
         rx="1"
         ry="1"
         id="rect2795"
         x="0"
         style="fill:#ffffff" />
    </g>
  </g>
</svg>
