<?xml version="1.0" encoding="UTF-8" standalone="no"?>
<svg
   xmlns:dc="http://purl.org/dc/elements/1.1/"
   xmlns:cc="http://creativecommons.org/ns#"
   xmlns:rdf="http://www.w3.org/1999/02/22-rdf-syntax-ns#"
   xmlns:svg="http://www.w3.org/2000/svg"
   xmlns="http://www.w3.org/2000/svg"
   xmlns:sodipodi="http://sodipodi.sourceforge.net/DTD/sodipodi-0.dtd"
   xmlns:inkscape="http://www.inkscape.org/namespaces/inkscape"
   width="100"
   height="100"
   viewBox="0 0 26.458333 26.458334"
   version="1.1"
   id="svg5"
   inkscape:version="1.0.1 (3bc2e813f5, 2020-09-07)"
   sodipodi:docname="pump.svg">
  <metadata
     id="metadata12">
    <rdf:RDF>
      <cc:Work
         rdf:about="">
        <dc:format>image/svg+xml</dc:format>
        <dc:type
           rdf:resource="http://purl.org/dc/dcmitype/StillImage" />
        <dc:title></dc:title>
      </cc:Work>
    </rdf:RDF>
  </metadata>
  <sodipodi:namedview
     id="namedview7"
     pagecolor="#ffffff"
     bordercolor="#666666"
     borderopacity="1.0"
     inkscape:pageshadow="2"
     inkscape:pageopacity="0.0"
     inkscape:pagecheckerboard="0"
     inkscape:document-units="mm"
     showgrid="false"
     units="px"
     showguides="true"
     inkscape:guide-bbox="true"
     inkscape:zoom="4.2230384"
     inkscape:cx="117.84367"
     inkscape:cy="48.876529"
     inkscape:window-width="2560"
     inkscape:window-height="1377"
     inkscape:window-x="-8"
     inkscape:window-y="-8"
     inkscape:window-maximized="1"
     inkscape:current-layer="layer1"
     inkscape:document-rotation="0">
    <sodipodi:guide
       position="13.201969,13.256364"
       orientation="0,-1"
       id="guide836" />
    <sodipodi:guide
       position="13.201969,13.256364"
       orientation="1,0"
       id="guide838" />
    <sodipodi:guide
       position="4.1643795,23.800219"
       orientation="0,-1"
       id="guide902" />
    <sodipodi:guide
       position="5.1390215,3.0669248"
       orientation="0,-1"
       id="guide904" />
    <sodipodi:guide
       position="4.1643794,23.800219"
       orientation="1,0"
       id="guide906" />
    <sodipodi:guide
       position="22.239559,23.800219"
       orientation="1,0"
       id="guide908" />
  </sodipodi:namedview>
  <defs
     id="defs2">
    <rect
       x="0.66976112"
       y="1.3395222"
       width="119.88725"
       height="118.54772"
       id="rect5432" />
    <style
       type="text/css"
       id="style910">
   
    .fil1 {fill:none}
    .fil0 {fill:black}
   
  </style>
    <style
       type="text/css"
       id="style1028">
   
    .fil0 {fill:black;fill-rule:nonzero}
   
  </style>
  </defs>
  <g
     inkscape:label="Layer 1"
     inkscape:groupmode="layer"
     id="layer1">
    <rect
       style="fill:#377eb8;fill-opacity:1;stroke:none;stroke-width:1.07353"
       id="rect1975"
       width="25.929167"
       height="25.929167"
       x="0.26458332"
       y="0.26458332"
       rx="2" />
    <rect
       class="fil1"
       width="1.8062205"
       height="1.8062205"
       id="rect934"
       x="26.503439"
       y="-9.8018103"
       style="clip-rule:evenodd;fill-rule:evenodd;stroke-width:0.264583;image-rendering:optimizeQuality;shape-rendering:geometricPrecision;text-rendering:geometricPrecision" />
    <g
       transform="matrix(1.3333333,0,0,1.3333333,0.19562947,-369.74525)"
       id="g1417"
       style="fill:#ffffff;stroke:#ffffff;stroke-opacity:1" />
    <path
       d="M 15.289381,4.4563101 H 4.4102568 v -0.21356 c 0,-0.3031526 -0.2453745,-0.5485272 -0.5485273,-0.5485272 H 2.1554441 c -0.3031527,0 -0.5485272,0.2453746 -0.5485272,0.5485272 v 4.8756762 c 0,0.3031519 0.2453745,0.548527 0.5485272,0.548527 h 1.7062854 c 0.3031528,0 0.5485273,-0.2453751 0.5485273,-0.548527 V 8.9052322 H 7.7127569 C 6.9890658,10.194637 6.6043658,11.638727 6.6043658,13.140959 c 0,4.78901 3.8960052,8.685015 8.6850152,8.685015 4.789008,0 8.685014,-3.896005 8.685014,-8.685015 0,-4.7890086 -3.896006,-8.6846489 -8.685014,-8.6846489 z M 3.3132023,8.5702639 H 2.7039714 V 4.7912774 H 3.3132023 V 5.0044717 8.3567049 Z M 15.289381,20.728921 c -4.183801,0 -7.5879602,-3.404161 -7.5879602,-7.587962 0,-1.524905 0.4512539,-2.981794 1.29818,-4.2357268 h 3.0626112 c -0.185769,0.1418852 -0.365686,0.2918158 -0.530975,0.4563746 -0.004,0.00359 -0.0091,0.0047 -0.01285,0.00843 -0.0036,0.00359 -0.0047,0.00912 -0.0084,0.012854 -0.959191,0.9646752 -1.5534287,2.2932102 -1.5534287,3.7577772 0,1.464934 0.5942377,2.793101 1.5530627,3.757413 0.004,0.0044 0.0051,0.0095 0.0087,0.01354 0.0036,0.004 0.0091,0.0051 0.01355,0.0088 0.964677,0.959191 2.292843,1.553064 3.757412,1.553064 1.464567,0 2.792735,-0.593873 3.757046,-1.553064 0.0044,-0.004 0.0095,-0.0051 0.01354,-0.0088 0.004,-0.0036 0.0051,-0.0091 0.0088,-0.01354 0.959191,-0.964677 1.553064,-2.292845 1.553064,-3.757413 0,-1.464567 -0.594238,-2.793102 -1.553429,-3.7577772 -0.0036,-0.00359 -0.0047,-0.00912 -0.0084,-0.012854 -0.0036,-0.00359 -0.0087,-0.0047 -0.01285,-0.00843 C 18.081996,8.4020494 16.753828,7.8081773 15.289261,7.8081773 H 8.7328967 c -0.00553,0 -0.010919,0 -0.016461,0 H 4.4102568 V 5.5529989 H 15.289381 c 4.1838,0 7.58796,3.4037945 7.58796,7.5879601 0,4.184168 -3.40416,7.587962 -7.58796,7.587962 z m 4.196232,-8.136489 h -2.41352 c -0.03511,-0.113361 -0.07972,-0.220873 -0.134203,-0.323995 l 1.704823,-1.705189 c 0.445404,0.577781 0.744169,1.271851 0.842903,2.029184 z m -6.773945,3.902224 1.705189,-1.705188 c 0.10276,0.05486 0.210634,0.0991 0.323997,0.134203 v 2.413886 c -0.757334,-0.09874 -1.451405,-0.397499 -2.029186,-0.842904 z m -1.618521,-2.805169 h 2.41352 c 0.03511,0.113734 0.07972,0.221239 0.134203,0.324728 l -1.704822,1.704824 c -0.445038,-0.577783 -0.74417,-1.271853 -0.842904,-2.029552 z m 4.973313,-0.548528 c 0,0.428584 -0.348498,0.777081 -0.777079,0.777081 -0.428583,0 -0.777081,-0.348497 -0.777081,-0.777081 0,-0.428216 0.348498,-0.777079 0.777081,-0.777079 0.428581,0 0.777079,0.348863 0.777079,0.777079 z m -1.325606,-1.782348 c -0.113362,0.03511 -0.220875,0.07936 -0.324364,0.134204 L 12.711668,9.7876263 C 13.289085,9.3425875 13.98352,9.0438238 14.740854,8.9450882 Z m -2.804803,-0.795363 1.704822,1.705189 c -0.05448,0.103119 -0.0991,0.210999 -0.134203,0.323995 h -2.413521 c 0.09874,-0.757333 0.397866,-1.451403 0.842905,-2.029184 z m 3.901857,4.360426 c 0.113361,-0.03511 0.220873,-0.07935 0.323996,-0.134204 l 1.705189,1.705189 c -0.577782,0.445404 -1.271852,0.744168 -2.029185,0.842904 z m 2.804802,0.795365 -1.704823,-1.704824 c 0.05448,-0.10312 0.0991,-0.211 0.134204,-0.324728 h 2.413519 c -0.09874,0.757699 -0.397499,1.451769 -0.842902,2.029552 z m -2.48044,-4.226221 c -0.10312,-0.05486 -0.211001,-0.0991 -0.324362,-0.134204 V 8.9450938 c 0.757333,0.098738 1.451768,0.3974993 2.029185,0.8425375 z"
       id="path2128"
       style="fill:#ffffff;stroke-width:0.365684" />
  </g>
</svg>
