<?xml version="1.0" encoding="UTF-8" standalone="no"?>
<svg
   xmlns:dc="http://purl.org/dc/elements/1.1/"
   xmlns:cc="http://creativecommons.org/ns#"
   xmlns:rdf="http://www.w3.org/1999/02/22-rdf-syntax-ns#"
   xmlns:svg="http://www.w3.org/2000/svg"
   xmlns="http://www.w3.org/2000/svg"
   xmlns:sodipodi="http://sodipodi.sourceforge.net/DTD/sodipodi-0.dtd"
   xmlns:inkscape="http://www.inkscape.org/namespaces/inkscape"
   width="100"
   height="100"
   viewBox="0 0 26.458333 26.458334"
   version="1.1"
   id="svg5"
   inkscape:version="1.0.1 (3bc2e813f5, 2020-09-07)"
   sodipodi:docname="tank.svg">
  <metadata
     id="metadata12">
    <rdf:RDF>
      <cc:Work
         rdf:about="">
        <dc:format>image/svg+xml</dc:format>
        <dc:type
           rdf:resource="http://purl.org/dc/dcmitype/StillImage" />
        <dc:title></dc:title>
      </cc:Work>
    </rdf:RDF>
  </metadata>
  <sodipodi:namedview
     id="namedview7"
     pagecolor="#ffffff"
     bordercolor="#666666"
     borderopacity="1.0"
     inkscape:pageshadow="2"
     inkscape:pageopacity="0.0"
     inkscape:pagecheckerboard="0"
     inkscape:document-units="mm"
     showgrid="false"
     units="px"
     showguides="true"
     inkscape:guide-bbox="true"
     inkscape:zoom="5.9722782"
     inkscape:cx="43.915511"
     inkscape:cy="69.152719"
     inkscape:window-width="2560"
     inkscape:window-height="1377"
     inkscape:window-x="-8"
     inkscape:window-y="-8"
     inkscape:window-maximized="1"
     inkscape:current-layer="layer1"
     inkscape:document-rotation="0">
    <sodipodi:guide
       position="13.201969,13.256364"
       orientation="0,-1"
       id="guide836" />
    <sodipodi:guide
       position="4.1643795,23.800219"
       orientation="0,-1"
       id="guide902" />
    <sodipodi:guide
       position="5.1390215,3.0669248"
       orientation="0,-1"
       id="guide904" />
    <sodipodi:guide
       position="4.1643794,23.800219"
       orientation="1,0"
       id="guide906" />
    <sodipodi:guide
       position="22.239559,23.800219"
       orientation="1,0"
       id="guide908" />
  </sodipodi:namedview>
  <defs
     id="defs2">
    <rect
       x="0.66976112"
       y="1.3395222"
       width="119.88725"
       height="118.54772"
       id="rect5432" />
    <style
       type="text/css"
       id="style910">
   
    .fil1 {fill:none}
    .fil0 {fill:black}
   
  </style>
    <style
       type="text/css"
       id="style1028">
   
    .fil0 {fill:black;fill-rule:nonzero}
   
  </style>
  </defs>
  <g
     inkscape:label="Layer 1"
     inkscape:groupmode="layer"
     id="layer1">
    <rect
       style="fill:#377eb8;fill-opacity:1;stroke:none;stroke-width:1.07353"
       id="rect1975"
       width="25.929167"
       height="25.929167"
       x="0.26458332"
       y="0.26458332"
       rx="2" />
    <g
       transform="matrix(1.3333333,0,0,1.3333333,0.19562947,-369.74525)"
       id="g1417"
       style="fill:#ffffff;stroke:#ffffff;stroke-opacity:1" />
    <g
       id="g3012"
       style="fill:#ffffff"
       transform="matrix(0.31035102,0,0,0.31162939,1.6648563,1.6722853)">
      <path
         d="m 4,35.3 v 6.4 c 0,4.6 13.1,9.7 32,9.7 18.9,0 32,-5.1 32,-9.7 V 35.3 C 62.9,40.2 49.1,42.8 36,42.8 22.9,42.8 9.1,40.2 4,35.3 Z"
         id="path3000"
         style="fill:#ffffff" />
      <path
         d="m 4,15.7 v 4.7 c 0,4.6 13.1,9.7 32,9.7 18.9,0 32,-5.1 32,-9.7 V 15.7 C 62.9,19.9 49.1,22.2 36,22.2 22.9,22.2 9.1,19.9 4,15.7 Z"
         id="path3002"
         style="fill:#ffffff" />
      <path
         d="m 4,46 v 4.8 c 0,4.6 13.1,9.7 32,9.7 18.9,0 32,-5.1 32,-9.7 V 46 C 62.9,50.9 49.1,53.5 36,53.5 22.9,53.5 9.1,50.9 4,46 Z"
         id="path3004"
         style="fill:#ffffff" />
      <path
         d="m 4,24.7 v 6.4 c 0,4.6 13.1,9.7 32,9.7 18.9,0 32,-5.1 32,-9.7 V 24.7 C 62.9,29.6 49.1,32.2 36,32.2 22.9,32.2 9.1,29.6 4,24.7 Z"
         id="path3006"
         style="fill:#ffffff" />
      <path
         d="M 36,62.6 C 22.9,62.6 9.1,60 4,55 v 4.9 C 4,63.7 17.1,68 36,68 54.9,68 68,63.8 68,59.9 V 55 c -5.1,5 -18.9,7.6 -32,7.6 z"
         id="path3008"
         style="fill:#ffffff" />
      <path
         d="m 36,20.1 c 18.8,0 32,-4.2 32,-8 v 0 c 0,0 0,0 0,0 0,-3.8 -13.1,-8 -32,-8 -18.9,0 -32,4.2 -32,8 0,3.8 13.1,8 32,8 z M 58,9.9 c 2.2,0 4,0.9 4,2 0,1.1 -1.8,2 -4,2 -2.2,0 -4,-0.9 -4,-2 0,-1.1 1.8,-2 4,-2 z"
         id="path3010"
         style="fill:#ffffff" />
    </g>
  </g>
</svg>
