<?xml version="1.0" encoding="UTF-8" standalone="no"?>
<svg
   xmlns:dc="http://purl.org/dc/elements/1.1/"
   xmlns:cc="http://creativecommons.org/ns#"
   xmlns:rdf="http://www.w3.org/1999/02/22-rdf-syntax-ns#"
   xmlns:svg="http://www.w3.org/2000/svg"
   xmlns="http://www.w3.org/2000/svg"
   xmlns:sodipodi="http://sodipodi.sourceforge.net/DTD/sodipodi-0.dtd"
   xmlns:inkscape="http://www.inkscape.org/namespaces/inkscape"
   width="100"
   height="100"
   viewBox="0 0 26.458333 26.458334"
   version="1.1"
   id="svg5"
   inkscape:version="1.0.1 (3bc2e813f5, 2020-09-07)"
   sodipodi:docname="7704_BoreWell.svg">
  <metadata
     id="metadata12">
    <rdf:RDF>
      <cc:Work
         rdf:about="">
        <dc:format>image/svg+xml</dc:format>
        <dc:type
           rdf:resource="http://purl.org/dc/dcmitype/StillImage" />
        <dc:title />
      </cc:Work>
    </rdf:RDF>
  </metadata>
  <sodipodi:namedview
     id="namedview7"
     pagecolor="#ffffff"
     bordercolor="#666666"
     borderopacity="1.0"
     inkscape:pageshadow="2"
     inkscape:pageopacity="0.0"
     inkscape:pagecheckerboard="0"
     inkscape:document-units="mm"
     showgrid="false"
     units="px"
     showguides="true"
     inkscape:guide-bbox="true"
     inkscape:zoom="4.2230384"
     inkscape:cx="39.218418"
     inkscape:cy="70.955926"
     inkscape:window-width="2560"
     inkscape:window-height="1377"
     inkscape:window-x="-8"
     inkscape:window-y="-8"
     inkscape:window-maximized="1"
     inkscape:current-layer="layer1"
     inkscape:document-rotation="0">
    <sodipodi:guide
       position="13.201969,13.256364"
       orientation="0,-1"
       id="guide836" />
    <sodipodi:guide
       position="13.201969,13.256364"
       orientation="1,0"
       id="guide838" />
    <sodipodi:guide
       position="4.1643795,23.800219"
       orientation="0,-1"
       id="guide902" />
    <sodipodi:guide
       position="5.1390215,3.0669248"
       orientation="0,-1"
       id="guide904" />
    <sodipodi:guide
       position="4.1643794,23.800219"
       orientation="1,0"
       id="guide906" />
    <sodipodi:guide
       position="22.239559,23.800219"
       orientation="1,0"
       id="guide908" />
  </sodipodi:namedview>
  <defs
     id="defs2">
    <rect
       x="0.66976112"
       y="1.3395222"
       width="119.88725"
       height="118.54772"
       id="rect5432" />
    <style
       type="text/css"
       id="style910">
   
    .fil1 {fill:none}
    .fil0 {fill:black}
   
  </style>
    <style
       type="text/css"
       id="style1028">
   
    .fil0 {fill:black;fill-rule:nonzero}
   
  </style>
  </defs>
  <g
     inkscape:label="Layer 1"
     inkscape:groupmode="layer"
     id="layer1">
    <rect
       style="fill:#377eb8;fill-opacity:1;stroke:none;stroke-width:1.07353"
       id="rect1975"
       width="25.929167"
       height="25.929167"
       x="0.26458332"
       y="0.26458332"
       rx="2" />
    <g
       transform="matrix(1.3333333,0,0,1.3333333,0.19562947,-369.74525)"
       id="g1417"
       style="fill:#ffffff;stroke:#ffffff;stroke-opacity:1" />
    <g
       style="fill:#ffffff"
       id="g855"
       transform="matrix(0.2194018,0,0,0.2194018,2.3450294,2.8337594)">
      <path
         d="m 100,14.258 v 7.5 H 75.264 V 86.914 H 69.131 67.764 50.02 32.236 30.84 24.736 V 21.758 H 0 v -7.5 H 32.236 V 45.86 c 1.211,-0.435 2.114,-1.479 2.881,-3.252 0.01,-0.063 0.039,-0.127 0.078,-0.176 0.098,-0.156 0.234,-0.254 0.42,-0.254 0.176,0 0.322,0.098 0.42,0.254 h 0.01 c 0.01,0.01 0.01,0.024 0.02,0.049 0.02,0.024 0.039,0.063 0.059,0.103 1.025,2.437 2.314,3.525 4.307,3.525 h 0.02 c 1.992,0 3.281,-1.089 4.316,-3.501 0.01,-0.063 0.049,-0.127 0.088,-0.176 0.088,-0.156 0.234,-0.254 0.42,-0.254 0.176,0 0.312,0.098 0.42,0.254 0.01,0.01 0.02,0.024 0.029,0.049 0.02,0.024 0.029,0.063 0.039,0.103 1.016,2.397 2.305,3.477 4.238,3.516 1.934,-0.039 3.203,-1.118 4.219,-3.491 0.029,-0.063 0.049,-0.127 0.088,-0.176 0.098,-0.156 0.244,-0.254 0.42,-0.254 0.176,0 0.312,0.098 0.42,0.254 h 0.01 c 0,0.01 0.01,0.024 0.029,0.049 0.01,0.024 0.02,0.063 0.039,0.103 1.025,2.437 2.334,3.525 4.326,3.525 h 0.01 c 1.982,0 3.291,-1.089 4.316,-3.501 0.01,-0.063 0.039,-0.127 0.078,-0.176 0.098,-0.156 0.254,-0.254 0.42,-0.254 0.176,0 0.322,0.098 0.42,0.254 h 0.01 c 0.01,0.01 0.01,0.024 0.02,0.049 0.02,0.024 0.029,0.063 0.039,0.103 0.771,1.797 1.68,2.847 2.9,3.286 V 14.258 Z"
         id="path841"
         style="fill:#ffffff" />
    </g>
  </g>
</svg>
