<?xml version="1.0" encoding="UTF-8" standalone="no"?>
<svg
   xmlns:dc="http://purl.org/dc/elements/1.1/"
   xmlns:cc="http://creativecommons.org/ns#"
   xmlns:rdf="http://www.w3.org/1999/02/22-rdf-syntax-ns#"
   xmlns:svg="http://www.w3.org/2000/svg"
   xmlns="http://www.w3.org/2000/svg"
   xmlns:sodipodi="http://sodipodi.sourceforge.net/DTD/sodipodi-0.dtd"
   xmlns:inkscape="http://www.inkscape.org/namespaces/inkscape"
   width="100"
   height="100"
   viewBox="0 0 26.458333 26.458334"
   version="1.1"
   id="svg5"
   inkscape:version="1.0.1 (3bc2e813f5, 2020-09-07)"
   sodipodi:docname="fish.svg">
  <metadata
     id="metadata12">
    <rdf:RDF>
      <cc:Work
         rdf:about="">
        <dc:format>image/svg+xml</dc:format>
        <dc:type
           rdf:resource="http://purl.org/dc/dcmitype/StillImage" />
        <dc:title></dc:title>
      </cc:Work>
    </rdf:RDF>
  </metadata>
  <sodipodi:namedview
     id="namedview7"
     pagecolor="#ffffff"
     bordercolor="#666666"
     borderopacity="1.0"
     inkscape:pageshadow="2"
     inkscape:pageopacity="0.0"
     inkscape:pagecheckerboard="0"
     inkscape:document-units="mm"
     showgrid="false"
     units="px"
     showguides="true"
     inkscape:guide-bbox="true"
     inkscape:zoom="4.2230384"
     inkscape:cx="117.84367"
     inkscape:cy="48.876529"
     inkscape:window-width="2560"
     inkscape:window-height="1377"
     inkscape:window-x="-8"
     inkscape:window-y="-8"
     inkscape:window-maximized="1"
     inkscape:current-layer="layer1"
     inkscape:document-rotation="0">
    <sodipodi:guide
       position="13.201969,13.256364"
       orientation="0,-1"
       id="guide836" />
    <sodipodi:guide
       position="13.201969,13.256364"
       orientation="1,0"
       id="guide838" />
    <sodipodi:guide
       position="4.1643795,23.800219"
       orientation="0,-1"
       id="guide902" />
    <sodipodi:guide
       position="5.1390215,3.0669248"
       orientation="0,-1"
       id="guide904" />
    <sodipodi:guide
       position="4.1643794,23.800219"
       orientation="1,0"
       id="guide906" />
    <sodipodi:guide
       position="22.239559,23.800219"
       orientation="1,0"
       id="guide908" />
  </sodipodi:namedview>
  <defs
     id="defs2">
    <rect
       x="0.66976112"
       y="1.3395222"
       width="119.88725"
       height="118.54772"
       id="rect5432" />
    <style
       type="text/css"
       id="style910">
   
    .fil1 {fill:none}
    .fil0 {fill:black}
   
  </style>
    <style
       type="text/css"
       id="style1028">
   
    .fil0 {fill:black;fill-rule:nonzero}
   
  </style>
  </defs>
  <g
     inkscape:label="Layer 1"
     inkscape:groupmode="layer"
     id="layer1">
    <rect
       style="fill:#377eb8;fill-opacity:1;stroke:none;stroke-width:1.07353"
       id="rect1975"
       width="25.929167"
       height="25.929167"
       x="0.26458332"
       y="0.26458332"
       rx="2" />
    <rect
       class="fil1"
       width="1.8062205"
       height="1.8062205"
       id="rect934"
       x="26.503439"
       y="-9.8018103"
       style="clip-rule:evenodd;fill-rule:evenodd;stroke-width:0.264583;image-rendering:optimizeQuality;shape-rendering:geometricPrecision;text-rendering:geometricPrecision" />
    <g
       transform="matrix(1.3333333,0,0,1.3333333,0.19562947,-369.74525)"
       id="g1417"
       style="fill:#ffffff;stroke:#ffffff;stroke-opacity:1" />
    <g
       id="g2289"
       style="fill:#ffffff"
       transform="matrix(0.26458333,0,0,0.26458333,-0.11552059,-0.35739706)">
      <g
         id="g2287"
         style="fill:#ffffff">
        <path
           d="m 87.324,27.532 c 0,0 2.326,-6.9 7.676,-9.797 -6.809,1.232 -11.602,3.809 -14.656,6.012 -5.078,-2.418 -13.105,-5.104 -23.793,-5.104 -12.662,0 -20.496,3.76 -24.441,6.389 l 5.574,3.746 -7.174,0.105 c 3.158,2.486 11.381,7.537 26.041,7.537 10.688,0 18.715,-2.688 23.793,-5.105 3.055,2.203 7.848,4.781 14.656,6.014 -5.35,-2.898 -7.676,-9.797 -7.676,-9.797 z M 41.938,26.474 c -0.879,0 -1.594,-0.713 -1.594,-1.594 0,-0.881 0.715,-1.594 1.594,-1.594 0.879,0 1.592,0.713 1.592,1.594 0,0.881 -0.714,1.594 -1.592,1.594 z m 9.244,0.693 -0.004,0.061 -0.002,0.123 c -0.008,0.303 -0.055,0.707 -0.131,1.043 -0.072,0.342 -0.176,0.668 -0.297,0.971 -0.242,0.607 -0.561,1.127 -0.875,1.531 -0.311,0.406 -0.619,0.703 -0.846,0.895 -0.223,0.193 -0.369,0.279 -0.369,0.279 0,0 0.068,-0.15 0.193,-0.416 0.121,-0.264 0.289,-0.635 0.457,-1.08 0.174,-0.445 0.355,-0.963 0.492,-1.52 0.07,-0.277 0.129,-0.566 0.174,-0.857 0.037,-0.297 0.074,-0.545 0.076,-0.893 l 0.008,-0.123 0.004,-0.049 V 27.13 27.116 L 50.058,27.087 50.05,26.866 c 0,-0.146 -0.012,-0.295 -0.025,-0.439 -0.012,-0.146 -0.029,-0.289 -0.053,-0.432 -0.02,-0.143 -0.051,-0.281 -0.082,-0.42 -0.055,-0.275 -0.135,-0.541 -0.219,-0.791 -0.08,-0.25 -0.174,-0.484 -0.266,-0.703 -0.094,-0.217 -0.186,-0.416 -0.273,-0.59 -0.094,-0.172 -0.172,-0.328 -0.242,-0.453 -0.072,-0.125 -0.131,-0.223 -0.168,-0.289 -0.043,-0.068 -0.064,-0.104 -0.064,-0.104 0,0 0.154,0.07 0.395,0.244 0.123,0.088 0.266,0.197 0.416,0.34 0.156,0.143 0.324,0.311 0.49,0.512 0.158,0.201 0.328,0.43 0.479,0.689 0.076,0.131 0.15,0.266 0.214,0.41 0.07,0.145 0.138,0.293 0.189,0.449 0.061,0.154 0.115,0.316 0.154,0.484 0.02,0.08 0.041,0.166 0.066,0.25 0.016,0.086 0.024,0.172 0.039,0.258 0.028,0.174 0.063,0.35 0.063,0.527 l 0.014,0.268 0.004,0.033 v 0.018 0.008 0.032 z"
           id="path2281"
           style="fill:#ffffff" />
        <path
           d="m 87.324,72.47 c 0,0 2.326,-6.899 7.676,-9.799 -6.809,1.234 -11.602,3.812 -14.656,6.015 -5.078,-2.418 -13.105,-5.105 -23.793,-5.105 -12.662,0 -20.496,3.762 -24.441,6.391 l 5.574,3.746 -7.174,0.105 c 3.158,2.486 11.381,7.537 26.041,7.537 10.688,0 18.715,-2.688 23.793,-5.105 3.055,2.203 7.848,4.781 14.656,6.012 C 89.65,79.368 87.324,72.47 87.324,72.47 Z M 41.938,71.411 c -0.879,0 -1.594,-0.713 -1.594,-1.595 0,-0.881 0.715,-1.596 1.594,-1.596 0.879,0 1.592,0.715 1.592,1.596 0,0.882 -0.714,1.595 -1.592,1.595 z m 9.244,0.693 -0.004,0.062 -0.002,0.121 c -0.008,0.307 -0.055,0.709 -0.131,1.045 -0.072,0.342 -0.176,0.666 -0.297,0.971 -0.242,0.607 -0.561,1.125 -0.875,1.531 -0.311,0.406 -0.619,0.703 -0.846,0.896 -0.223,0.19 -0.369,0.278 -0.369,0.278 0,0 0.068,-0.151 0.193,-0.416 0.121,-0.264 0.289,-0.635 0.457,-1.08 0.174,-0.444 0.355,-0.963 0.492,-1.52 0.07,-0.279 0.129,-0.566 0.174,-0.859 0.037,-0.295 0.074,-0.543 0.076,-0.893 l 0.008,-0.121 0.004,-0.05 V 72.065 72.053 L 50.058,72.024 50.05,71.803 c 0,-0.148 -0.012,-0.295 -0.025,-0.438 -0.012,-0.146 -0.029,-0.289 -0.053,-0.433 -0.02,-0.143 -0.051,-0.281 -0.082,-0.42 -0.055,-0.275 -0.135,-0.541 -0.219,-0.791 -0.08,-0.25 -0.174,-0.484 -0.266,-0.703 -0.094,-0.217 -0.186,-0.416 -0.273,-0.59 C 49.038,68.256 48.96,68.1 48.89,67.975 48.818,67.85 48.759,67.752 48.722,67.686 c -0.043,-0.067 -0.064,-0.104 -0.064,-0.104 0,0 0.154,0.07 0.395,0.244 0.123,0.088 0.266,0.197 0.416,0.34 0.156,0.143 0.324,0.311 0.49,0.512 0.158,0.201 0.328,0.43 0.479,0.689 0.076,0.131 0.15,0.266 0.214,0.41 0.07,0.143 0.138,0.293 0.189,0.449 0.061,0.155 0.115,0.315 0.154,0.483 0.02,0.082 0.041,0.164 0.066,0.25 0.016,0.086 0.024,0.17 0.039,0.258 0.028,0.175 0.063,0.351 0.063,0.527 l 0.014,0.269 0.004,0.032 v 0.017 0.008 0.034 z"
           id="path2283"
           style="fill:#ffffff" />
        <path
           d="m 61.818,50.001 c 0,0 2.328,-6.9 7.676,-9.797 -6.809,1.232 -11.6,3.809 -14.656,6.012 -5.076,-2.418 -13.107,-5.105 -23.795,-5.105 -12.66,0 -20.496,3.762 -24.443,6.391 L 12.176,51.248 5,51.354 c 3.164,2.485 11.387,7.537 26.043,7.537 10.688,0 18.719,-2.688 23.795,-5.105 3.057,2.203 7.848,4.781 14.656,6.014 -5.348,-2.902 -7.676,-9.799 -7.676,-9.799 z M 16.43,48.942 c -0.879,0 -1.596,-0.713 -1.596,-1.594 0,-0.881 0.717,-1.594 1.596,-1.594 0.883,0 1.596,0.713 1.596,1.594 0,0.881 -0.713,1.594 -1.596,1.594 z m 9.242,0.694 v 0.062 l -0.004,0.123 c -0.008,0.305 -0.053,0.708 -0.129,1.043 -0.07,0.342 -0.176,0.666 -0.299,0.971 -0.24,0.607 -0.559,1.127 -0.871,1.531 -0.316,0.406 -0.619,0.703 -0.848,0.895 -0.225,0.191 -0.373,0.279 -0.373,0.279 0,0 0.072,-0.15 0.197,-0.416 0.119,-0.264 0.289,-0.635 0.459,-1.08 0.172,-0.445 0.35,-0.963 0.49,-1.52 0.072,-0.279 0.127,-0.566 0.174,-0.859 0.039,-0.295 0.072,-0.541 0.078,-0.893 l 0.006,-0.121 0.002,-0.049 V 49.6 49.586 49.557 l -0.008,-0.221 c 0,-0.146 -0.012,-0.295 -0.027,-0.439 -0.012,-0.145 -0.035,-0.289 -0.057,-0.43 -0.016,-0.145 -0.049,-0.285 -0.078,-0.422 -0.061,-0.275 -0.133,-0.539 -0.217,-0.791 -0.084,-0.25 -0.178,-0.484 -0.27,-0.703 -0.094,-0.217 -0.186,-0.414 -0.273,-0.59 -0.09,-0.174 -0.168,-0.328 -0.24,-0.453 -0.076,-0.125 -0.129,-0.223 -0.172,-0.289 -0.043,-0.068 -0.064,-0.105 -0.064,-0.105 0,0 0.16,0.072 0.398,0.246 0.121,0.088 0.268,0.197 0.418,0.34 0.152,0.143 0.32,0.311 0.484,0.512 0.164,0.199 0.332,0.43 0.484,0.689 0.072,0.131 0.15,0.266 0.215,0.41 0.066,0.145 0.133,0.293 0.189,0.449 0.059,0.154 0.111,0.316 0.15,0.484 0.023,0.08 0.045,0.166 0.064,0.25 0.018,0.086 0.031,0.172 0.045,0.258 0.029,0.174 0.057,0.35 0.063,0.527 l 0.012,0.266 v 0.033 0.018 l 0.002,0.01 z"
           id="path2285"
           style="fill:#ffffff" />
      </g>
    </g>
  </g>
</svg>
