<?xml version="1.0" encoding="UTF-8" standalone="no"?>
<svg
   xmlns:dc="http://purl.org/dc/elements/1.1/"
   xmlns:cc="http://creativecommons.org/ns#"
   xmlns:rdf="http://www.w3.org/1999/02/22-rdf-syntax-ns#"
   xmlns:svg="http://www.w3.org/2000/svg"
   xmlns="http://www.w3.org/2000/svg"
   xmlns:sodipodi="http://sodipodi.sourceforge.net/DTD/sodipodi-0.dtd"
   xmlns:inkscape="http://www.inkscape.org/namespaces/inkscape"
   width="100"
   height="100"
   viewBox="0 0 26.458333 26.458334"
   version="1.1"
   id="svg5"
   inkscape:version="1.0.1 (3bc2e813f5, 2020-09-07)"
   sodipodi:docname="9013_ChannelMarkerBuoy.svg">
  <metadata
     id="metadata12">
    <rdf:RDF>
      <cc:Work
         rdf:about="">
        <dc:format>image/svg+xml</dc:format>
        <dc:type
           rdf:resource="http://purl.org/dc/dcmitype/StillImage" />
        <dc:title />
      </cc:Work>
    </rdf:RDF>
  </metadata>
  <sodipodi:namedview
     id="namedview7"
     pagecolor="#ffffff"
     bordercolor="#666666"
     borderopacity="1.0"
     inkscape:pageshadow="2"
     inkscape:pageopacity="0.0"
     inkscape:pagecheckerboard="0"
     inkscape:document-units="mm"
     showgrid="false"
     units="px"
     showguides="true"
     inkscape:guide-bbox="true"
     inkscape:zoom="4.2230384"
     inkscape:cx="105.98172"
     inkscape:cy="112.45053"
     inkscape:window-width="2560"
     inkscape:window-height="1377"
     inkscape:window-x="-8"
     inkscape:window-y="-8"
     inkscape:window-maximized="1"
     inkscape:current-layer="layer1"
     inkscape:document-rotation="0">
    <sodipodi:guide
       position="13.201969,13.256364"
       orientation="0,-1"
       id="guide836" />
    <sodipodi:guide
       position="13.201969,13.256364"
       orientation="1,0"
       id="guide838" />
    <sodipodi:guide
       position="4.1643795,23.800219"
       orientation="0,-1"
       id="guide902" />
    <sodipodi:guide
       position="5.1390215,3.0669248"
       orientation="0,-1"
       id="guide904" />
    <sodipodi:guide
       position="4.1643794,23.800219"
       orientation="1,0"
       id="guide906" />
    <sodipodi:guide
       position="22.239559,23.800219"
       orientation="1,0"
       id="guide908" />
  </sodipodi:namedview>
  <defs
     id="defs2">
    <rect
       x="0.66976112"
       y="1.3395222"
       width="119.88725"
       height="118.54772"
       id="rect5432" />
    <style
       type="text/css"
       id="style910">
   
    .fil1 {fill:none}
    .fil0 {fill:black}
   
  </style>
    <style
       type="text/css"
       id="style1028">
   
    .fil0 {fill:black;fill-rule:nonzero}
   
  </style>
  </defs>
  <g
     inkscape:label="Layer 1"
     inkscape:groupmode="layer"
     id="layer1">
    <rect
       style="fill:#377eb8;fill-opacity:1;stroke:none;stroke-width:1.07353"
       id="rect1975"
       width="25.929167"
       height="25.929167"
       x="0.26458332"
       y="0.26458332"
       rx="2" />
    <rect
       class="fil1"
       width="1.8062205"
       height="1.8062205"
       id="rect934"
       x="26.503439"
       y="-9.8018103"
       style="clip-rule:evenodd;fill-rule:evenodd;stroke-width:0.264583;image-rendering:optimizeQuality;shape-rendering:geometricPrecision;text-rendering:geometricPrecision" />
    <path
       class="fil0"
       d="M 15.358073,6.7927801 C 18.269959,8.067179 19.877575,11.656898 19.080606,15.108337 18.21859,18.84259 14.868401,21.072788 11.6018,20.087457 8.3351989,19.102473 6.3828978,15.27337 7.2449134,11.539812 8.0415786,8.0876778 10.989636,5.8699874 14.07356,6.4050404 l 0.621891,-2.6922893 c 0.221887,-0.9655275 1.507312,-0.5798724 1.284817,0.3866973 z m -6.614359,4.4114079 9.177001,2.76942 C 18.192146,11.39632 16.660214,8.5473369 14.38177,8.0261814 12.074146,7.3326972 9.6619611,8.6897861 8.743714,11.204188 Z m 8.838395,4.238036 -9.1770005,-2.76942 c -0.2851096,2.707229 1.2225058,5.248383 3.5337775,5.945689 2.310968,0.696264 4.723456,-0.659783 5.643223,-3.176269 z"
       id="path1032"
       style="clip-rule:evenodd;fill:#ffffff;fill-opacity:1;stroke:none;stroke-width:11.4385;stroke-miterlimit:4;stroke-dasharray:none;stroke-opacity:1;image-rendering:optimizeQuality;shape-rendering:geometricPrecision;text-rendering:geometricPrecision"
       sodipodi:nodetypes="cccccccccccccccc" />
    <path
       class="fil0"
       d="m 19.236332,23.360872 c 1.628285,0.871538 3.152314,0.785715 4.571782,-0.257977 0.275687,-0.20341 0.303651,-0.556944 0.06231,-0.789046 -0.24134,-0.232359 -0.660798,-0.255928 -0.936485,-0.05251 -0.993323,0.730381 -2.091512,0.722695 -3.292741,-0.0228 -0.236477,-0.149354 -0.573258,-0.149354 -0.809735,0 -1.200014,0.744983 -2.29729,0.753181 -3.290007,0.02459 -0.261096,-0.19265 -0.633744,-0.184452 -0.891803,0.0095 -1.096364,0.798524 -2.163548,0.658135 -3.277846,-0.03407 -0.233134,-0.147305 -0.554718,-0.161138 -0.809737,0 -1.2000118,0.744982 -2.2972888,0.75318 -3.2900048,0.02459 -0.260793,-0.192137 -0.635873,-0.183171 -0.891803,0.0095 -1.10062,0.8016 -2.170844,0.656344 -3.287574,-0.03996 -0.700616,-0.43833 -1.492722,0.460106 -0.79089,0.898949 1.424028,0.887677 3.013711,1.142068 4.529229,0.259771 1.294239,0.762659 2.673282,0.752668 4.1365198,-0.03074 1.348951,0.716546 2.789999,0.812615 4.132872,0.03074 1.293935,0.762402 2.673282,0.752668 4.135912,-0.03048 z"
       id="path1032-3"
       style="clip-rule:evenodd;fill:#ffffff;fill-opacity:1;fill-rule:nonzero;stroke:none;stroke-width:9.82216;stroke-miterlimit:4;stroke-dasharray:none;stroke-opacity:1;image-rendering:optimizeQuality;shape-rendering:geometricPrecision;text-rendering:geometricPrecision"
       sodipodi:nodetypes="cccccccccccccccccsc" />
  </g>
</svg>
