<?xml version="1.0" encoding="UTF-8" standalone="no"?>
<svg
   xmlns:dc="http://purl.org/dc/elements/1.1/"
   xmlns:cc="http://creativecommons.org/ns#"
   xmlns:rdf="http://www.w3.org/1999/02/22-rdf-syntax-ns#"
   xmlns:svg="http://www.w3.org/2000/svg"
   xmlns="http://www.w3.org/2000/svg"
   xmlns:sodipodi="http://sodipodi.sourceforge.net/DTD/sodipodi-0.dtd"
   xmlns:inkscape="http://www.inkscape.org/namespaces/inkscape"
   width="100"
   height="100"
   viewBox="0 0 26.458333 26.458334"
   version="1.1"
   id="svg5"
   inkscape:version="1.0.1 (3bc2e813f5, 2020-09-07)"
   sodipodi:docname="pier.svg">
  <metadata
     id="metadata12">
    <rdf:RDF>
      <cc:Work
         rdf:about="">
        <dc:format>image/svg+xml</dc:format>
        <dc:type
           rdf:resource="http://purl.org/dc/dcmitype/StillImage" />
        <dc:title></dc:title>
      </cc:Work>
    </rdf:RDF>
  </metadata>
  <sodipodi:namedview
     id="namedview7"
     pagecolor="#ffffff"
     bordercolor="#666666"
     borderopacity="1.0"
     inkscape:pageshadow="2"
     inkscape:pageopacity="0.0"
     inkscape:pagecheckerboard="0"
     inkscape:document-units="mm"
     showgrid="false"
     units="px"
     showguides="true"
     inkscape:guide-bbox="true"
     inkscape:zoom="4.2230384"
     inkscape:cx="117.84367"
     inkscape:cy="48.876529"
     inkscape:window-width="2560"
     inkscape:window-height="1377"
     inkscape:window-x="-8"
     inkscape:window-y="-8"
     inkscape:window-maximized="1"
     inkscape:current-layer="layer1"
     inkscape:document-rotation="0">
    <sodipodi:guide
       position="13.201969,13.256364"
       orientation="0,-1"
       id="guide836" />
    <sodipodi:guide
       position="13.201969,13.256364"
       orientation="1,0"
       id="guide838" />
    <sodipodi:guide
       position="4.1643795,23.800219"
       orientation="0,-1"
       id="guide902" />
    <sodipodi:guide
       position="5.1390215,3.0669248"
       orientation="0,-1"
       id="guide904" />
    <sodipodi:guide
       position="4.1643794,23.800219"
       orientation="1,0"
       id="guide906" />
    <sodipodi:guide
       position="22.239559,23.800219"
       orientation="1,0"
       id="guide908" />
  </sodipodi:namedview>
  <defs
     id="defs2">
    <rect
       x="0.66976112"
       y="1.3395222"
       width="119.88725"
       height="118.54772"
       id="rect5432" />
    <style
       type="text/css"
       id="style910">
   
    .fil1 {fill:none}
    .fil0 {fill:black}
   
  </style>
    <style
       type="text/css"
       id="style1028">
   
    .fil0 {fill:black;fill-rule:nonzero}
   
  </style>
  </defs>
  <g
     inkscape:label="Layer 1"
     inkscape:groupmode="layer"
     id="layer1">
    <rect
       style="fill:#377eb8;fill-opacity:1;stroke:none;stroke-width:1.07353"
       id="rect1975"
       width="25.929167"
       height="25.929167"
       x="0.26458332"
       y="0.26458332"
       rx="2" />
    <rect
       class="fil1"
       width="1.8062205"
       height="1.8062205"
       id="rect934"
       x="26.503439"
       y="-9.8018103"
       style="clip-rule:evenodd;fill-rule:evenodd;stroke-width:0.264583;image-rendering:optimizeQuality;shape-rendering:geometricPrecision;text-rendering:geometricPrecision" />
    <g
       transform="matrix(1.3333333,0,0,1.3333333,0.19562947,-369.74525)"
       id="g1417"
       style="fill:#ffffff;stroke:#ffffff;stroke-opacity:1" />
    <path
       d="m 6.8583773,2.9413159 c -0.015301,-0.094925 0.078375,-0.169866 0.1701783,-0.1411387 0.7453498,0.2338781 1.1871889,-0.333487 2.0611869,-0.333487 0.9770425,0 1.8207525,0.7203694 1.5216135,1.4029563 0.291645,1.0307498 -0.427164,2.1904602 -1.5216135,2.1904602 -0.96018,0 -1.7664192,-0.9648641 -1.5525254,-2.0624363 C 7.1331606,3.7250729 6.9183301,3.3125857 6.8583773,2.9413159 Z"
       id="path2038"
       style="fill:#ffffff;stroke-width:0.312253" />
    <path
       d="m 7.4266793,8.7336237 c -0.6554207,0.407179 -1.1512798,1.0463625 -1.3720432,1.8038903 -0.016237,0.05558 -0.065573,0.0943 -0.1233402,0.0943 H 4.5679958 c -0.082122,0 -0.1461347,-0.07588 -0.1295853,-0.156439 0.439341,-2.1676655 2.3540813,-3.799816 4.651332,-3.799816 2.2972525,0 4.2123055,1.6321505 4.6513345,3.799816 0.01624,0.08056 -0.04747,0.156439 -0.129586,0.156439 H 12.150768 C 11.94468,9.8330693 11.435082,9.1576644 10.752807,8.7336237 c -0.03466,-0.021545 -0.08056,0.00469 -0.08056,0.045589 v 2.2938163 c 0,0.07182 -0.0584,0.13021 -0.130211,0.13021 H 7.6377628 c -0.071818,0 -0.1302098,-0.05839 -0.1302098,-0.13021 V 8.7792128 C 7.5072408,8.738308 7.4613399,8.7120787 7.4266793,8.7336237 Z"
       id="path2040"
       style="fill:#ffffff;stroke-width:0.312253" />
    <path
       d="M 5.9787585,16.21866 7.091631,12.880042 c 0.011247,-0.03373 -0.01374,-0.0687 -0.049336,-0.0687 H 2.1929935 c -0.071818,0 -0.1302099,-0.0584 -0.1302099,-0.130209 v -0.911781 c 0,-0.07181 0.058391,-0.130211 0.1302099,-0.130211 H 16.714045 c 0.343478,0 0.618263,0.295705 0.582978,0.646366 -0.0306,0.305072 -0.309756,0.525524 -0.61639,0.525524 h -5.549686 c -0.03559,0 -0.06058,0.03497 -0.04933,0.0687 l 1.112873,3.338617 c 0.0281,0.08431 -0.03466,0.171427 -0.123653,0.171427 H 9.9718664 c -0.056212,0 -0.1058496,-0.03591 -0.1236525,-0.089 L 9.1359568,14.164342 c -0.015921,-0.04747 -0.083059,-0.04747 -0.098985,0 l -0.7122512,2.13644 c -0.017798,0.05308 -0.067447,0.089 -0.1236525,0.089 H 6.1020987 c -0.088681,0 -0.1514431,-0.0868 -0.1233402,-0.171115 z"
       id="path2042"
       style="fill:#ffffff;stroke-width:0.312253" />
    <path
       d="m 25.405941,20.178037 c 0.05808,0.01499 0.09867,0.0687 0.09867,0.128649 v 2.228867 c 0,0.09712 -0.103666,0.161748 -0.188912,0.11522 -0.733173,-0.400309 -1.499131,-0.322871 -2.091165,0.07181 -1.47977,0.98641 -3.396384,0.975168 -4.866163,-0.03373 -0.650112,-0.446211 -1.510371,-0.403432 -2.166417,0.03373 -1.462909,0.975168 -3.353293,0.975168 -4.816202,0 -0.656046,-0.437156 -1.516617,-0.479935 -2.1664173,-0.03373 -1.4697788,1.00858 -3.3863925,1.019821 -4.8661632,0.03373 -0.5901597,-0.393129 -1.3567428,-0.472753 -2.0911637,-0.07181 -0.085245,0.04652 -0.1889135,-0.01842 -0.1889135,-0.115539 v -2.228867 c 0,-0.05995 0.040593,-0.113663 0.098672,-0.128649 1.1787581,-0.302262 2.4524413,-0.100857 3.502863,0.607958 0.6638516,0.448084 1.5284823,0.429974 2.1951441,-0.01436 1.4629099,-0.975169 3.3532946,-0.975169 4.8162036,0 0.674468,0.449333 1.541909,0.449645 2.216377,0 1.462909,-0.975169 3.353606,-0.974857 4.816203,0 0.666661,0.444337 1.53098,0.462447 2.194832,0.01436 1.049797,-0.708192 2.323792,-0.909907 3.50255,-0.607646 z"
       id="path2044"
       style="fill:#ffffff;stroke-width:0.312253" />
    <path
       d="m 2.1929935,18.671725 c -0.071818,0 -0.1302099,-0.05839 -0.1302099,-0.13021 v -0.911781 c 0,-0.07181 0.058391,-0.13021 0.1302099,-0.13021 H 14.903597 c 0.02872,0 0.05215,-0.02341 0.05215,-0.05215 v -4.245403 c 0,-0.07181 0.05839,-0.130209 0.13021,-0.130209 h 0.911781 c 0.07183,0 0.13021,0.0584 0.13021,0.130209 0,-0.07557 0,5.263975 0,5.33954 0,0.07181 -0.05839,0.13021 -0.13021,0.13021 0.131459,0 -13.6732819,0 -13.8047408,0 z"
       id="path2046"
       style="fill:#ffffff;stroke-width:0.312253" />
  </g>
</svg>
