<?xml version="1.0" encoding="UTF-8" standalone="no"?>
<svg
   xmlns:dc="http://purl.org/dc/elements/1.1/"
   xmlns:cc="http://creativecommons.org/ns#"
   xmlns:rdf="http://www.w3.org/1999/02/22-rdf-syntax-ns#"
   xmlns:svg="http://www.w3.org/2000/svg"
   xmlns="http://www.w3.org/2000/svg"
   xmlns:sodipodi="http://sodipodi.sourceforge.net/DTD/sodipodi-0.dtd"
   xmlns:inkscape="http://www.inkscape.org/namespaces/inkscape"
   width="100"
   height="100"
   viewBox="0 0 26.458333 26.458334"
   version="1.1"
   id="svg5"
   inkscape:version="1.0.1 (3bc2e813f5, 2020-09-07)"
   sodipodi:docname="9022_VehicleCrossing.svg">
  <metadata
     id="metadata12">
    <rdf:RDF>
      <cc:Work
         rdf:about="">
        <dc:format>image/svg+xml</dc:format>
        <dc:type
           rdf:resource="http://purl.org/dc/dcmitype/StillImage" />
        <dc:title />
      </cc:Work>
    </rdf:RDF>
  </metadata>
  <sodipodi:namedview
     id="namedview7"
     pagecolor="#ffffff"
     bordercolor="#666666"
     borderopacity="1.0"
     inkscape:pageshadow="2"
     inkscape:pageopacity="0.0"
     inkscape:pagecheckerboard="0"
     inkscape:document-units="mm"
     showgrid="false"
     units="px"
     showguides="true"
     inkscape:guide-bbox="true"
     inkscape:zoom="2.9861391"
     inkscape:cx="57.593894"
     inkscape:cy="-5.2814524"
     inkscape:window-width="2560"
     inkscape:window-height="1377"
     inkscape:window-x="-8"
     inkscape:window-y="-8"
     inkscape:window-maximized="1"
     inkscape:current-layer="layer1"
     inkscape:document-rotation="0">
    <sodipodi:guide
       position="13.201969,13.256364"
       orientation="0,-1"
       id="guide836" />
    <sodipodi:guide
       position="13.201969,13.256364"
       orientation="1,0"
       id="guide838" />
    <sodipodi:guide
       position="4.1643795,23.800219"
       orientation="0,-1"
       id="guide902" />
    <sodipodi:guide
       position="5.1390215,3.0669248"
       orientation="0,-1"
       id="guide904" />
    <sodipodi:guide
       position="4.1643794,23.800219"
       orientation="1,0"
       id="guide906" />
    <sodipodi:guide
       position="22.239559,23.800219"
       orientation="1,0"
       id="guide908" />
  </sodipodi:namedview>
  <defs
     id="defs2">
    <rect
       x="0.66976112"
       y="1.3395222"
       width="119.88725"
       height="118.54772"
       id="rect5432" />
    <style
       type="text/css"
       id="style910">
   
    .fil1 {fill:none}
    .fil0 {fill:black}
   
  </style>
    <style
       type="text/css"
       id="style1028">
   
    .fil0 {fill:black;fill-rule:nonzero}
   
  </style>
  </defs>
  <g
     inkscape:label="Layer 1"
     inkscape:groupmode="layer"
     id="layer1">
    <rect
       style="fill:#377eb8;fill-opacity:1;stroke:none;stroke-width:1.07353"
       id="rect1975"
       width="25.929167"
       height="25.929167"
       x="0.26458332"
       y="0.26458332"
       rx="2" />
    <rect
       class="fil1"
       width="1.8062205"
       height="1.8062205"
       id="rect934"
       x="26.503439"
       y="-9.8018103"
       style="clip-rule:evenodd;fill-rule:evenodd;stroke-width:0.264583;image-rendering:optimizeQuality;shape-rendering:geometricPrecision;text-rendering:geometricPrecision" />
    <g
       transform="matrix(1.3333333,0,0,1.3333333,0.19562947,-369.74525)"
       id="g1417"
       style="fill:#ffffff;stroke:#ffffff;stroke-opacity:1" />
    <path
       d="m 17.900392,11.083568 c 0.79375,0 1.217083,-0.480505 1.534583,-0.813162 0.238125,-0.258733 0.370417,-0.4435432 0.714375,-0.4435432 0.343959,0 0.47625,0.1478471 0.714375,0.4435432 0.3175,0.332657 0.740834,0.813162 1.534584,0.813162 0.79375,0 1.217083,-0.480505 1.534583,-0.813162 0.238125,-0.258733 0.370417,-0.4435432 0.714375,-0.4435432 0.370417,0 0.661458,-0.4065815 0.661458,-0.9240474 0,-0.5174672 -0.291041,-0.9240487 -0.661458,-0.9240487 -0.79375,0 -1.217083,0.4805058 -1.534583,0.813163 -0.238125,0.2587329 -0.370417,0.4435429 -0.714375,0.4435429 -0.343959,0 -0.47625,-0.1478486 -0.714375,-0.4435429 -0.3175,-0.3326572 -0.740834,-0.813163 -1.534584,-0.813163 -0.79375,0 -1.217083,0.4805058 -1.534583,0.813163 -0.238125,0.2587329 -0.370417,0.4435429 -0.714375,0.4435429 -0.3175,0 -0.47625,-0.1478486 -0.714375,-0.4435429 -0.132292,-0.1478486 -0.291042,-0.3326572 -0.47625,-0.4805058 v -1.219743 l 1.137708,-1.5893618 c 0.264584,-0.3696186 0.264584,-0.9610101 0,-1.2936674 -0.264583,-0.3696186 -0.687916,-0.3696186 -0.926041,0 L 15.598517,6.0567478 C 15.466225,6.2415579 15.413309,6.4633293 15.413309,6.7220623 V 19.658731 c 0,0.258735 0.07937,0.480506 0.185208,0.665315 l 1.322917,1.848097 c 0.132291,0.184809 0.291041,0.258733 0.47625,0.258733 0.185208,0 0.343958,-0.07393 0.47625,-0.258733 0.264583,-0.36962 0.264583,-0.961011 0,-1.293668 l -1.137709,-1.589362 v -1.293668 c 0.291042,0.258735 0.661459,0.480506 1.190625,0.480506 0.79375,0 1.217084,-0.480506 1.534584,-0.813163 0.238125,-0.258733 0.370416,-0.443543 0.714375,-0.443543 0.343958,0 0.47625,0.147849 0.714375,0.443543 0.3175,0.332657 0.740833,0.813163 1.534583,0.813163 0.79375,0 1.217083,-0.480506 1.534583,-0.813163 0.238125,-0.258733 0.370417,-0.443543 0.714375,-0.443543 0.370417,0 0.661459,-0.40658 0.661459,-0.924047 0,-0.517467 -0.291042,-0.924047 -0.661459,-0.924047 -0.79375,0 -1.217083,0.480504 -1.534583,0.813161 -0.238125,0.258733 -0.370417,0.443543 -0.714375,0.443543 -0.343958,0 -0.47625,-0.147847 -0.714375,-0.443543 -0.3175,-0.332657 -0.740833,-0.813161 -1.534583,-0.813161 -0.79375,0 -1.217084,0.480504 -1.534584,0.813161 -0.238125,0.258733 -0.370416,0.443543 -0.714375,0.443543 -0.3175,0 -0.47625,-0.147847 -0.714375,-0.443543 -0.132291,-0.147847 -0.291041,-0.332657 -0.47625,-0.480504 v -1.441515 c 0.291042,0.258733 0.661459,0.480505 1.190625,0.480505 0.79375,0 1.217084,-0.480505 1.534584,-0.813162 0.238125,-0.258734 0.370416,-0.443543 0.714375,-0.443543 0.343958,0 0.47625,0.147847 0.714375,0.443543 0.3175,0.332657 0.740833,0.813162 1.534583,0.813162 0.79375,0 1.217083,-0.480505 1.534583,-0.813162 0.238125,-0.258734 0.370417,-0.443543 0.714375,-0.443543 0.370417,0 0.661459,-0.406582 0.661459,-0.924047 0,-0.517468 -0.291042,-0.924049 -0.661459,-0.924049 -0.79375,0 -1.217083,0.480506 -1.534583,0.813163 -0.238125,0.258733 -0.370417,0.443543 -0.714375,0.443543 -0.343958,0 -0.47625,-0.147849 -0.714375,-0.443543 -0.3175,-0.332657 -0.740833,-0.813163 -1.534583,-0.813163 -0.79375,0 -1.217084,0.480506 -1.534584,0.813163 -0.238125,0.258733 -0.370416,0.443543 -0.714375,0.443543 -0.3175,0 -0.47625,-0.147849 -0.714375,-0.443543 -0.132291,-0.147849 -0.291041,-0.332657 -0.47625,-0.480506 v -1.441515 c 0.264584,0.332657 0.635,0.554429 1.164167,0.554429 z"
       id="path843"
       style="stroke-width:0.312722;stroke:none;fill:#ffffff" />
    <path
       d="m 9.9099763,4.2456146 c -0.264584,-0.3696201 -0.6879171,-0.3696201 -0.9260421,0 -0.264583,0.3696186 -0.264583,0.9610088 0,1.293666 L 10.121642,7.1286438 V 8.3114239 C 9.9364343,8.4592725 9.7776843,8.6440811 9.6453923,8.7919297 9.4072672,9.0506626 9.2749762,9.2354726 8.9310172,9.2354726 c -0.343958,0 -0.47625,-0.1478486 -0.714375,-0.4435429 -0.3175,-0.3326572 -0.740833,-0.813163 -1.534583,-0.813163 -0.79375,0 -1.217083,0.4805058 -1.534583,0.813163 -0.238125,0.2587329 -0.370417,0.4435429 -0.714375,0.4435429 -0.343959,0 -0.47625,-0.1478486 -0.714375,-0.4435429 -0.3175,-0.3326572 -0.740834,-0.813163 -1.534584,-0.813163 -0.370416,0 -0.661458,0.4065815 -0.661458,0.9240487 0,0.5174659 0.291042,0.9240474 0.661458,0.9240474 0.3175,0 0.47625,0.1478471 0.714375,0.4435432 0.3175,0.332657 0.740834,0.813162 1.534584,0.813162 0.79375,0 1.217083,-0.480505 1.534583,-0.813162 0.238125,-0.258733 0.370417,-0.4435432 0.714375,-0.4435432 0.343958,0 0.47625,0.1478471 0.714375,0.4435432 0.3175,0.332657 0.740833,0.813162 1.534583,0.813162 0.529167,0 0.8995841,-0.221772 1.1906248,-0.480505 v 1.441515 c -0.1852077,0.147848 -0.3439577,0.332658 -0.4762497,0.480505 -0.2381251,0.258734 -0.3704161,0.443543 -0.7143751,0.443543 -0.343958,0 -0.47625,-0.147847 -0.714375,-0.443543 -0.3175,-0.332657 -0.740833,-0.813162 -1.534583,-0.813162 -0.79375,0 -1.217083,0.480505 -1.534583,0.813162 -0.238125,0.258734 -0.370417,0.443543 -0.714375,0.443543 -0.343959,0 -0.47625,-0.147847 -0.714375,-0.443543 -0.3175,-0.332657 -0.740834,-0.813162 -1.534584,-0.813162 -0.370416,0 -0.661458,0.406582 -0.661458,0.924048 0,0.517467 0.291042,0.924047 0.661458,0.924047 0.3175,0 0.47625,0.147848 0.714375,0.443543 0.3175,0.332657 0.740834,0.813163 1.534584,0.813163 0.79375,0 1.217083,-0.480506 1.534583,-0.813163 0.238125,-0.258733 0.370417,-0.443543 0.714375,-0.443543 0.343958,0 0.47625,0.147848 0.714375,0.443543 0.3175,0.332657 0.740833,0.813163 1.534583,0.813163 0.529167,0 0.8995841,-0.221772 1.1906248,-0.480506 v 1.441515 c -0.1852077,0.147848 -0.3439577,0.332657 -0.4762497,0.480505 -0.2381251,0.258733 -0.3704161,0.443543 -0.7143751,0.443543 -0.343958,0 -0.47625,-0.147848 -0.714375,-0.443543 -0.3175,-0.332657 -0.740833,-0.813163 -1.534583,-0.813163 -0.79375,0 -1.217083,0.480506 -1.534583,0.813163 -0.238125,0.258733 -0.370417,0.443543 -0.714375,0.443543 -0.343959,0 -0.47625,-0.147848 -0.714375,-0.443543 -0.3175,-0.332657 -0.740834,-0.813163 -1.534584,-0.813163 -0.370416,0 -0.661458,0.406582 -0.661458,0.924049 0,0.517466 0.291042,0.924048 0.661458,0.924048 0.3175,0 0.47625,0.147847 0.714375,0.443542 0.3175,0.332658 0.740834,0.813162 1.534584,0.813162 0.79375,0 1.217083,-0.480504 1.534583,-0.813162 0.238125,-0.258732 0.370417,-0.443542 0.714375,-0.443542 0.343958,0 0.47625,0.147847 0.714375,0.443542 0.3175,0.332658 0.740833,0.813162 1.534583,0.813162 0.529167,0 0.8995841,-0.221771 1.1906248,-0.480504 v 1.330629 L 8.9839342,20.98936 c -0.264583,0.36962 -0.264583,0.961012 0,1.293669 0.132292,0.184809 0.291042,0.258733 0.47625,0.258733 0.1852081,0 0.3439581,-0.07393 0.4762501,-0.258733 l 1.3229167,-1.848097 c 0.132291,-0.184809 0.185208,-0.406581 0.185208,-0.665315 V 6.832948 c 0,-0.2587329 -0.07938,-0.4805044 -0.185208,-0.6653144 z"
       id="path845"
       style="stroke-width:0.312722;stroke:none;fill:#ffffff" />
  </g>
</svg>
