<?xml version="1.0" encoding="UTF-8" standalone="no"?>
<svg
   xmlns:dc="http://purl.org/dc/elements/1.1/"
   xmlns:cc="http://creativecommons.org/ns#"
   xmlns:rdf="http://www.w3.org/1999/02/22-rdf-syntax-ns#"
   xmlns:svg="http://www.w3.org/2000/svg"
   xmlns="http://www.w3.org/2000/svg"
   xmlns:sodipodi="http://sodipodi.sourceforge.net/DTD/sodipodi-0.dtd"
   xmlns:inkscape="http://www.inkscape.org/namespaces/inkscape"
   width="100"
   height="100"
   viewBox="0 0 26.458333 26.458334"
   version="1.1"
   id="svg5"
   inkscape:version="1.0.1 (3bc2e813f5, 2020-09-07)"
   sodipodi:docname="railplatform.svg">
  <metadata
     id="metadata12">
    <rdf:RDF>
      <cc:Work
         rdf:about="">
        <dc:format>image/svg+xml</dc:format>
        <dc:type
           rdf:resource="http://purl.org/dc/dcmitype/StillImage" />
        <dc:title></dc:title>
      </cc:Work>
    </rdf:RDF>
  </metadata>
  <sodipodi:namedview
     id="namedview7"
     pagecolor="#ffffff"
     bordercolor="#666666"
     borderopacity="1.0"
     inkscape:pageshadow="2"
     inkscape:pageopacity="0.0"
     inkscape:pagecheckerboard="0"
     inkscape:document-units="mm"
     showgrid="false"
     units="px"
     showguides="true"
     inkscape:guide-bbox="true"
     inkscape:zoom="4.2230384"
     inkscape:cx="117.84367"
     inkscape:cy="48.876529"
     inkscape:window-width="2560"
     inkscape:window-height="1377"
     inkscape:window-x="-8"
     inkscape:window-y="-8"
     inkscape:window-maximized="1"
     inkscape:current-layer="g1417"
     inkscape:document-rotation="0">
    <sodipodi:guide
       position="13.201969,13.256364"
       orientation="0,-1"
       id="guide836" />
    <sodipodi:guide
       position="13.201969,13.256364"
       orientation="1,0"
       id="guide838" />
    <sodipodi:guide
       position="4.1643795,23.800219"
       orientation="0,-1"
       id="guide902" />
    <sodipodi:guide
       position="5.1390215,3.0669248"
       orientation="0,-1"
       id="guide904" />
    <sodipodi:guide
       position="4.1643794,23.800219"
       orientation="1,0"
       id="guide906" />
    <sodipodi:guide
       position="22.239559,23.800219"
       orientation="1,0"
       id="guide908" />
  </sodipodi:namedview>
  <defs
     id="defs2">
    <rect
       x="0.66976112"
       y="1.3395222"
       width="119.88725"
       height="118.54772"
       id="rect5432" />
    <style
       type="text/css"
       id="style910">
   
    .fil1 {fill:none}
    .fil0 {fill:black}
   
  </style>
    <style
       type="text/css"
       id="style1028">
   
    .fil0 {fill:black;fill-rule:nonzero}
   
  </style>
  </defs>
  <g
     inkscape:label="Layer 1"
     inkscape:groupmode="layer"
     id="layer1">
    <rect
       style="fill:#4daf4a;fill-opacity:1;stroke:none;stroke-width:1.07353"
       id="rect1975"
       width="25.929167"
       height="25.929167"
       x="0.26458332"
       y="0.26458332"
       rx="2" />
    <rect
       class="fil1"
       width="1.8062205"
       height="1.8062205"
       id="rect934"
       x="26.503439"
       y="-9.8018103"
       style="clip-rule:evenodd;fill-rule:evenodd;stroke-width:0.264583;image-rendering:optimizeQuality;shape-rendering:geometricPrecision;text-rendering:geometricPrecision" />
    <g
       transform="matrix(1.3333333,0,0,1.3333333,0.19562947,-369.74525)"
       id="g1417"
       style="fill:#ffffff;stroke:#ffffff;stroke-opacity:1">
      <polygon
         points="71.812,82.572 71.812,52.464 100,52.464 100,59.548 78.898,59.548 78.898,82.572 "
         id="polygon1703"
         transform="matrix(0.20946155,0,0,0.28165293,-2.0872676,271.5786)" />
      <path
         d="m 11.03847,281.56758 c 0,-0.52982 -0.18732,-0.98345 -0.561367,-1.36306 -0.376601,-0.37862 -0.836257,-0.56674 -1.3772031,-0.56674 h -5.367636 c -0.5448729,0 -1.0021733,0.18812 -1.3770066,0.56674 -0.3742442,0.37901 -0.5613663,0.83343 -0.5613663,1.36306 v 7.15665 c 0,0.49193 0.1590439,0.92333 0.4785064,1.29223 0.3178915,0.3685 0.7015605,0.58122 1.1517924,0.63837 l -2.44358301,3.66276 H 2.3556499 l 0.2344426,-0.35235 H 10.24266 l 0.234639,0.35223 h 1.374847 l -2.443583,-3.66296 c 0.469278,-0.075 0.856678,-0.29368 1.165341,-0.65325 0.310038,-0.35898 0.464958,-0.78522 0.464958,-1.27735 z m -8.0641194,0.18007 c 0,-0.26432 0.085216,-0.48241 0.253685,-0.65346 0.1665053,-0.17026 0.3819019,-0.25499 0.6450117,-0.25499 h 5.0858728 c 0.2629135,0 0.4820408,0.0851 0.6599339,0.25499 0.179858,0.17125 0.268804,0.38934 0.268804,0.65346 v 2.29016 c 0,0.26551 -0.08875,0.48379 -0.268804,0.65346 -0.1778931,0.17026 -0.3970204,0.2542 -0.6599339,0.2542 H 3.872851 c -0.2629135,0 -0.4785065,-0.0839 -0.6450117,-0.2542 -0.1682725,-0.16987 -0.253685,-0.38795 -0.253685,-0.65346 v -2.29016 z m 0.196547,7.71425 c -0.1700396,-0.17165 -0.2532922,-0.38735 -0.2532922,-0.65305 0,-0.24547 0.083253,-0.4576 0.2532922,-0.63838 0.1704323,-0.17958 0.3840617,-0.27007 0.6467788,-0.27007 0.2422966,0 0.4484648,0.0905 0.6187007,0.27007 0.1680761,0.18078 0.253685,0.39271 0.253685,0.63838 0,0.2663 -0.085412,0.4814 -0.253685,0.65305 -0.1704322,0.17006 -0.3764041,0.25579 -0.6187007,0.25579 -0.2629134,0 -0.4765428,-0.0857 -0.6467788,-0.25579 z m 6.2867531,3.31966 H 3.377262 l 0.6371578,-0.96222 H 8.8185295 Z M 9.660284,289.4619 c -0.1663084,0.17006 -0.383865,0.25579 -0.6448148,0.25579 -0.2438675,0 -0.4502319,-0.0857 -0.6185044,-0.25579 -0.1680761,-0.17165 -0.2532922,-0.38735 -0.2532922,-0.65305 0,-0.24547 0.085216,-0.4576 0.2532922,-0.63838 0.1682725,-0.17958 0.3744405,-0.27007 0.6185044,-0.27007 0.2609498,0 0.4785064,0.0905 0.6448148,0.27007 0.168077,0.18078 0.253685,0.39271 0.253685,0.63838 -1.96e-4,0.2655 -0.08561,0.48121 -0.253685,0.65305 z"
         id="path1707"
         style="stroke-width:0.197392"
         sodipodi:nodetypes="ccsscssccccccccccccccsscsscsscscccscscscscccccccscscsccc" />
    </g>
  </g>
</svg>
