<?xml version="1.0" encoding="UTF-8" standalone="no"?>
<svg
   xmlns:dc="http://purl.org/dc/elements/1.1/"
   xmlns:cc="http://creativecommons.org/ns#"
   xmlns:rdf="http://www.w3.org/1999/02/22-rdf-syntax-ns#"
   xmlns:svg="http://www.w3.org/2000/svg"
   xmlns="http://www.w3.org/2000/svg"
   xmlns:sodipodi="http://sodipodi.sourceforge.net/DTD/sodipodi-0.dtd"
   xmlns:inkscape="http://www.inkscape.org/namespaces/inkscape"
   width="100"
   height="100"
   viewBox="0 0 26.458333 26.458334"
   version="1.1"
   id="svg5"
   inkscape:version="1.0.1 (3bc2e813f5, 2020-09-07)"
   sodipodi:docname="4201_EntranceFeature.svg">
  <metadata
     id="metadata12">
    <rdf:RDF>
      <cc:Work
         rdf:about="">
        <dc:format>image/svg+xml</dc:format>
        <dc:type
           rdf:resource="http://purl.org/dc/dcmitype/StillImage" />
        <dc:title />
      </cc:Work>
    </rdf:RDF>
  </metadata>
  <sodipodi:namedview
     id="namedview7"
     pagecolor="#ffffff"
     bordercolor="#666666"
     borderopacity="1.0"
     inkscape:pageshadow="2"
     inkscape:pageopacity="0.0"
     inkscape:pagecheckerboard="0"
     inkscape:document-units="mm"
     showgrid="false"
     units="px"
     showguides="true"
     inkscape:guide-bbox="true"
     inkscape:zoom="11.944556"
     inkscape:cx="47.21472"
     inkscape:cy="58.171295"
     inkscape:window-width="2560"
     inkscape:window-height="1377"
     inkscape:window-x="-8"
     inkscape:window-y="-8"
     inkscape:window-maximized="1"
     inkscape:current-layer="layer1"
     inkscape:document-rotation="0">
    <sodipodi:guide
       position="13.201969,13.256364"
       orientation="0,-1"
       id="guide836" />
    <sodipodi:guide
       position="13.201969,13.256364"
       orientation="1,0"
       id="guide838" />
    <sodipodi:guide
       position="4.1643795,23.800219"
       orientation="0,-1"
       id="guide902" />
    <sodipodi:guide
       position="5.1390215,3.0669248"
       orientation="0,-1"
       id="guide904" />
    <sodipodi:guide
       position="4.1643794,23.800219"
       orientation="1,0"
       id="guide906" />
    <sodipodi:guide
       position="22.239559,23.800219"
       orientation="1,0"
       id="guide908" />
  </sodipodi:namedview>
  <defs
     id="defs2">
    <rect
       x="0.66976112"
       y="1.3395222"
       width="119.88725"
       height="118.54772"
       id="rect5432" />
    <style
       type="text/css"
       id="style910">
   
    .fil1 {fill:none}
    .fil0 {fill:black}
   
  </style>
    <style
       type="text/css"
       id="style1028">
   
    .fil0 {fill:black;fill-rule:nonzero}
   
  </style>
  </defs>
  <g
     inkscape:label="Layer 1"
     inkscape:groupmode="layer"
     id="layer1">
    <rect
       style="fill:#4daf4a;fill-opacity:1;stroke:none;stroke-width:1.07353"
       id="rect1975"
       width="25.929167"
       height="25.929167"
       x="0.26458332"
       y="0.26458332"
       rx="2" />
    <rect
       class="fil1"
       width="1.8062205"
       height="1.8062205"
       id="rect934"
       x="26.503439"
       y="-9.8018103"
       style="clip-rule:evenodd;fill-rule:evenodd;stroke-width:0.264583;image-rendering:optimizeQuality;shape-rendering:geometricPrecision;text-rendering:geometricPrecision" />
    <g
       transform="matrix(1.3333333,0,0,1.3333333,0.19562947,-369.74525)"
       id="g1417"
       style="fill:#ffffff;stroke:#ffffff;stroke-opacity:1">
      <g
         id="g1525"
         transform="matrix(0.67453879,0,0,0.78722412,1.4509347,277.62905)"
         style="fill:#fffff8;fill-opacity:1;stroke:none;stroke-width:0.1029221;stroke-miterlimit:4;stroke-dasharray:none;stroke-opacity:1">
        <path
           d="M 23.886,5.934 C 23.81,5.832 23.691,5.773 23.565,5.773 h -0.596 c 0.117,-0.215 0.189,-0.457 0.189,-0.719 0,-0.698 -0.476,-1.282 -1.119,-1.459 V 3.103 c 0,-0.221 -0.18,-0.4 -0.4,-0.4 -0.22,0 -0.4,0.179 -0.4,0.4 v 0.492 c -0.643,0.177 -1.119,0.76 -1.119,1.459 0,0.261 0.073,0.504 0.189,0.719 h -0.595 c -0.126,0 -0.245,0.06 -0.321,0.161 -0.075,0.102 -0.099,0.232 -0.062,0.354 l 0.454,1.513 c 0.045,0.151 0.179,0.247 0.332,0.268 V 9.313 C 19.707,9.115 18.995,8.623 17.933,7.397 16.845,6.139 15.632,5.317 14.806,4.849 13.929,4.353 12.791,3.838 12.781,3.833 12.725,3.809 12.663,3.813 12.614,3.846 c -0.05,0.032 -0.08,0.087 -0.08,0.147 v 14.788 c 0,0.079 0.053,0.147 0.128,0.169 l 7.686,2.115 c 0.016,0.004 0.031,0.006 0.047,0.006 0.012,0 0.022,-0.009 0.034,-0.011 0.029,0.007 0.057,0.018 0.089,0.018 h 2.242 c 0.221,0 0.4,-0.18 0.4,-0.4 V 8.069 C 23.314,8.048 23.448,7.952 23.493,7.8 L 23.947,6.287 C 23.984,6.167 23.961,6.036 23.886,5.934 Z M 13.685,5.133 V 18.564 L 13.304,18.449 V 4.892 c 0.016,0.01 0.03,0.02 0.046,0.03 0.114,0.076 0.232,0.153 0.335,0.211 z m 1.274,0.707 v 13.064 l -0.504,-0.13 V 5.496 c 0.094,0.062 0.19,0.129 0.291,0.198 0.069,0.049 0.141,0.098 0.213,0.146 z m 1.275,0.95 v 12.438 l -0.505,-0.13 V 6.381 c 0.162,0.122 0.329,0.258 0.505,0.409 z m 0.764,0.728 c 0.117,0.124 0.234,0.252 0.351,0.385 0.049,0.06 0.098,0.115 0.153,0.176 v 11.474 l -0.504,-0.131 z m 1.273,12.226 V 8.875 c 0.173,0.164 0.341,0.316 0.505,0.453 v 10.546 z m 1.277,0.324 V 9.882 c 0.2,0.117 0.388,0.194 0.569,0.253 v 10.078 z"
           id="path1521"
           style="fill:#fffff8;fill-opacity:1;stroke:none;stroke-width:0.102922;stroke-miterlimit:4;stroke-dasharray:none;stroke-opacity:1"
           sodipodi:nodetypes="cscscssscscscccccccccssccscsssccccccccccccccccccccccccccccccccccccc" />
        <path
           d="M 11.19,3.833 C 11.178,3.838 10.04,4.353 9.163,4.849 8.339,5.317 7.127,6.139 6.037,7.397 4.997,8.598 4.295,9.092 3.881,9.298 V 8.069 C 4.035,8.048 4.17,7.953 4.215,7.801 L 4.669,6.288 C 4.705,6.167 4.682,6.036 4.607,5.934 4.532,5.833 4.413,5.773 4.286,5.773 H 3.691 C 3.807,5.558 3.88,5.316 3.88,5.054 3.88,4.355 3.404,3.772 2.761,3.595 V 3.103 c 0,-0.221 -0.179,-0.4 -0.4,-0.4 -0.221,0 -0.4,0.179 -0.4,0.4 v 0.492 c -0.643,0.177 -1.119,0.76 -1.119,1.459 0,0.261 0.072,0.504 0.189,0.719 H 0.436 C 0.31,5.773 0.19,5.833 0.115,5.934 0.04,6.036 0.017,6.167 0.053,6.288 L 0.507,7.801 C 0.552,7.953 0.687,8.049 0.84,8.07 v 12.608 c 0,0.221 0.179,0.4 0.4,0.4 h 2.242 c 0.025,0 0.047,-0.01 0.071,-0.014 0.008,0.001 0.015,0.008 0.023,0.008 0.016,0 0.031,-0.002 0.046,-0.006 l 7.686,-2.115 c 0.076,-0.021 0.128,-0.09 0.128,-0.169 V 3.993 c 0,-0.06 -0.03,-0.115 -0.08,-0.147 C 11.309,3.815 11.245,3.81 11.19,3.833 Z M 5.194,19.875 V 9.328 C 5.358,9.191 5.526,9.04 5.698,8.875 v 10.87 z M 6.469,8.079 C 6.52,8.022 6.57,7.965 6.62,7.906 6.737,7.772 6.855,7.643 6.974,7.518 V 19.42 L 6.47,19.551 V 8.079 Z M 8.241,6.381 v 12.717 l -0.504,0.13 V 6.79 C 7.914,6.639 8.081,6.503 8.241,6.381 Z M 9.515,5.495 v 13.279 l -0.504,0.13 V 5.84 C 9.086,5.79 9.16,5.738 9.232,5.688 9.33,5.62 9.424,5.555 9.515,5.495 Z M 10.666,4.892 V 18.45 l -0.38,0.115 V 5.133 C 10.389,5.075 10.506,4.997 10.621,4.921 10.636,4.912 10.65,4.902 10.666,4.892 Z M 3.882,10.126 C 4.055,10.067 4.233,9.992 4.424,9.881 v 10.187 l -0.542,0.137 z"
           id="path1523"
           style="fill:#fffff8;fill-opacity:1;stroke:none;stroke-width:0.102922;stroke-miterlimit:4;stroke-dasharray:none;stroke-opacity:1"
           sodipodi:nodetypes="ccccccccscscssscscsccccssscsccsscccccccccccccccccccccccccccccccccccc" />
      </g>
    </g>
  </g>
</svg>
