<?xml version="1.0" encoding="UTF-8" standalone="no"?>
<svg
   xmlns:dc="http://purl.org/dc/elements/1.1/"
   xmlns:cc="http://creativecommons.org/ns#"
   xmlns:rdf="http://www.w3.org/1999/02/22-rdf-syntax-ns#"
   xmlns:svg="http://www.w3.org/2000/svg"
   xmlns="http://www.w3.org/2000/svg"
   xmlns:sodipodi="http://sodipodi.sourceforge.net/DTD/sodipodi-0.dtd"
   xmlns:inkscape="http://www.inkscape.org/namespaces/inkscape"
   width="100"
   height="100"
   viewBox="0 0 26.458333 26.458334"
   version="1.1"
   id="svg5"
   inkscape:version="1.0.1 (3bc2e813f5, 2020-09-07)"
   sodipodi:docname="ruin.svg">
  <metadata
     id="metadata12">
    <rdf:RDF>
      <cc:Work
         rdf:about="">
        <dc:format>image/svg+xml</dc:format>
        <dc:type
           rdf:resource="http://purl.org/dc/dcmitype/StillImage" />
        <dc:title></dc:title>
      </cc:Work>
    </rdf:RDF>
  </metadata>
  <sodipodi:namedview
     id="namedview7"
     pagecolor="#ffffff"
     bordercolor="#666666"
     borderopacity="1.0"
     inkscape:pageshadow="2"
     inkscape:pageopacity="0.0"
     inkscape:pagecheckerboard="0"
     inkscape:document-units="mm"
     showgrid="false"
     units="px"
     showguides="true"
     inkscape:guide-bbox="true"
     inkscape:zoom="4.2230384"
     inkscape:cx="117.84367"
     inkscape:cy="48.876529"
     inkscape:window-width="2560"
     inkscape:window-height="1377"
     inkscape:window-x="-8"
     inkscape:window-y="-8"
     inkscape:window-maximized="1"
     inkscape:current-layer="layer1"
     inkscape:document-rotation="0">
    <sodipodi:guide
       position="13.201969,13.256364"
       orientation="0,-1"
       id="guide836" />
    <sodipodi:guide
       position="13.201969,13.256364"
       orientation="1,0"
       id="guide838" />
    <sodipodi:guide
       position="4.1643795,23.800219"
       orientation="0,-1"
       id="guide902" />
    <sodipodi:guide
       position="5.1390215,3.0669248"
       orientation="0,-1"
       id="guide904" />
    <sodipodi:guide
       position="4.1643794,23.800219"
       orientation="1,0"
       id="guide906" />
    <sodipodi:guide
       position="22.239559,23.800219"
       orientation="1,0"
       id="guide908" />
  </sodipodi:namedview>
  <defs
     id="defs2">
    <rect
       x="0.66976112"
       y="1.3395222"
       width="119.88725"
       height="118.54772"
       id="rect5432" />
    <style
       type="text/css"
       id="style910">
   
    .fil1 {fill:none}
    .fil0 {fill:black}
   
  </style>
    <style
       type="text/css"
       id="style1028">
   
    .fil0 {fill:black;fill-rule:nonzero}
   
  </style>
  </defs>
  <g
     inkscape:label="Layer 1"
     inkscape:groupmode="layer"
     id="layer1">
    <rect
       style="fill:#4daf4a;fill-opacity:1;stroke:none;stroke-width:1.07353"
       id="rect1975"
       width="25.929167"
       height="25.929167"
       x="0.26458332"
       y="0.26458332"
       rx="2" />
    <rect
       class="fil1"
       width="1.8062205"
       height="1.8062205"
       id="rect934"
       x="26.503439"
       y="-9.8018103"
       style="clip-rule:evenodd;fill-rule:evenodd;stroke-width:0.264583;image-rendering:optimizeQuality;shape-rendering:geometricPrecision;text-rendering:geometricPrecision" />
    <g
       transform="matrix(1.3333333,0,0,1.3333333,0.19562947,-369.74525)"
       id="g1417"
       style="fill:#ffffff;stroke:#ffffff;stroke-opacity:1" />
    <g
       id="g2182"
       style="fill:#ffffff"
       transform="matrix(0.50946819,0,0,0.50946819,-4.2546171,-2.9995334)">
      <path
         fill-rule="evenodd"
         clip-rule="evenodd"
         d="m 34.736,25.466 c -5.611,0 -11.222,0 -16.833,0 -0.935,0 -1.242,-0.304 -1.243,-1.228 0,-0.377 0.015,-0.756 -0.004,-1.133 -0.027,-0.549 0.212,-0.903 0.692,-1.167 4.123,-2.261 8.239,-4.534 12.357,-6.803 1.393,-0.767 2.791,-1.524 4.174,-2.308 0.612,-0.346 1.17,-0.318 1.797,-0.006 0.66,0.328 1.109,0.791 1.445,1.441 0.569,1.101 1.215,2.161 1.806,3.251 0.171,0.314 0.388,0.437 0.736,0.446 1.618,0.042 3.235,0.093 4.852,0.169 0.208,0.01 0.466,0.142 0.6,0.302 0.692,0.827 1.338,1.693 2.032,2.519 0.186,0.221 0.464,0.419 0.738,0.504 1.528,0.475 3.067,0.918 4.608,1.355 0.301,0.085 0.424,0.229 0.406,0.541 -0.02,0.336 -0.002,0.674 -0.004,1.011 -0.003,0.75 -0.364,1.105 -1.124,1.105 -5.677,0.001 -11.356,0.001 -17.035,0.001 z"
         id="path2170"
         style="fill:#ffffff" />
      <path
         fill-rule="evenodd"
         clip-rule="evenodd"
         d="m 34.734,48.783 c -6.043,-0.001 -12.086,-0.003 -18.129,0.003 -0.474,0 -0.932,-0.059 -1.12,-0.54 -0.209,-0.537 -0.244,-1.114 0.085,-1.631 0.216,-0.339 0.583,-0.394 0.965,-0.393 3.332,0.004 6.664,0.003 9.996,0.003 4.749,0 9.497,-0.004 14.245,0.008 0.283,0.001 0.586,0.08 0.846,0.196 0.614,0.275 1.213,0.586 1.809,0.9 0.298,0.157 0.555,0.144 0.748,-0.13 0.598,-0.849 1.403,-1.033 2.413,-0.997 2.142,0.076 4.289,0.022 6.434,0.023 0.806,10e-4 1.161,0.354 1.167,1.155 0.001,0.095 0,0.189 -10e-4,0.283 -0.009,0.746 -0.375,1.116 -1.125,1.117 -3.358,0.003 -6.718,10e-4 -10.076,10e-4 -2.753,0.002 -5.505,0.002 -8.257,0.002 z"
         id="path2172"
         style="fill:#ffffff" />
      <path
         fill-rule="evenodd"
         clip-rule="evenodd"
         d="m 34.736,44.896 c -5.193,0 -10.386,-0.002 -15.579,0.003 -0.48,10e-4 -0.937,-0.086 -1.097,-0.573 -0.18,-0.551 -0.272,-1.162 0.159,-1.647 0.166,-0.186 0.488,-0.318 0.742,-0.324 1.308,-0.032 2.617,-0.021 3.925,-0.006 0.189,0.003 0.391,0.093 0.564,0.185 0.608,0.32 1.203,0.664 1.808,0.99 0.346,0.188 0.456,0.117 0.47,-0.277 0.031,-0.903 0.031,-0.905 0.953,-0.905 7.904,-10e-4 15.809,0.001 23.713,-0.004 0.479,-10e-4 0.934,0.082 1.1,0.569 0.188,0.551 0.278,1.173 -0.159,1.643 -0.196,0.212 -0.591,0.332 -0.897,0.334 -3.358,0.023 -6.717,0.015 -10.075,0.014 -1.877,-0.002 -3.752,-0.002 -5.627,-0.002 z"
         id="path2174"
         style="fill:#ffffff" />
      <path
         fill-rule="evenodd"
         clip-rule="evenodd"
         d="m 49.032,38.417 c 1.019,0.278 1.276,0.623 1.274,1.682 -0.002,0.91 -0.002,0.911 -0.914,0.912 -2.077,0 -4.155,-0.001 -6.232,-0.002 -0.51,0 -0.589,-0.079 -0.593,-0.58 -10e-4,-0.121 0,-0.242 0,-0.363 -0.003,-1.018 0.269,-1.376 1.296,-1.655 0,-0.277 0.002,-0.569 -10e-4,-0.861 -0.002,-0.27 0.127,-0.396 0.396,-0.392 0.202,0.004 0.405,-0.008 0.606,0.002 0.34,0.017 0.392,-0.136 0.284,-0.425 -0.367,-0.983 -0.741,-1.965 -1.079,-2.959 -0.119,-0.35 -0.189,-0.73 -0.198,-1.099 -0.025,-1.091 -0.009,-2.182 -0.009,-3.11 -0.438,-0.334 -0.852,-0.537 -1.099,-0.865 -0.36,-0.48 -0.194,-1.094 -0.162,-1.651 0.006,-0.092 0.259,-0.243 0.398,-0.244 2.293,-0.015 4.587,-0.011 6.88,-0.01 0.28,0 0.424,0.142 0.424,0.423 0.001,0.297 0.013,0.594 -0.005,0.89 -0.039,0.678 -0.393,1.032 -1.268,1.277 0.002,2.997 0.002,6 0.002,9.03 z"
         id="path2176"
         style="fill:#ffffff" />
      <path
         fill-rule="evenodd"
         clip-rule="evenodd"
         d="m 37.351,29.394 c 0,0.736 0.02,1.451 -0.012,2.163 -0.009,0.217 -0.137,0.439 -0.25,0.638 -0.077,0.136 -0.208,0.253 -0.339,0.344 -0.607,0.424 -0.812,1.009 -0.688,1.716 0.032,0.185 0.091,0.429 0.225,0.522 0.956,0.674 1.229,1.592 1.07,2.704 -0.043,0.303 -0.007,0.616 -0.007,0.914 1.155,0.381 1.547,1.091 1.291,2.29 -0.062,0.289 -0.272,0.328 -0.522,0.327 -1.079,-0.004 -2.158,-10e-4 -3.237,-10e-4 -1.146,0 -2.293,-0.007 -3.44,0.004 -0.374,0.003 -0.56,-0.14 -0.534,-0.524 0.008,-0.121 0,-0.243 0,-0.364 -0.001,-1.09 0.233,-1.408 1.279,-1.716 0,-2.999 0,-6.004 0,-9.005 -1.125,-0.378 -1.569,-1.196 -1.269,-2.321 0.078,-0.291 0.307,-0.292 0.547,-0.292 1.619,0.003 3.238,0.001 4.856,0.001 0.607,0 1.215,0.009 1.821,-0.002 0.363,-0.007 0.524,0.152 0.506,0.51 -0.007,0.135 -0.001,0.27 -0.002,0.405 -0.002,1.063 -0.249,1.391 -1.295,1.687 z"
         id="path2178"
         style="fill:#ffffff" />
      <path
         fill-rule="evenodd"
         clip-rule="evenodd"
         d="m 25.692,38.407 c 1.124,0.316 1.627,1.229 1.267,2.319 -0.045,0.135 -0.327,0.27 -0.5,0.272 -1.618,0.021 -3.236,0.012 -4.854,0.012 -0.58,0 -1.16,0.001 -1.739,-10e-4 -0.551,-0.002 -0.616,-0.07 -0.617,-0.638 0,-0.095 0.001,-0.188 0.001,-0.283 0.003,-1.056 0.253,-1.387 1.295,-1.679 0,-0.662 -0.001,-1.334 0,-2.007 10e-4,-0.491 0.047,-0.536 0.528,-0.54 0.122,-0.001 0.243,0.003 0.364,-0.001 0.066,-0.003 0.148,0.006 0.197,-0.028 0.381,-0.27 0.174,-0.668 0.178,-1.006 10e-4,-0.096 -0.247,-0.27 -0.392,-0.282 -0.875,-0.074 -0.876,-0.062 -0.876,-0.933 0,-1.401 0,-2.802 0,-4.225 -0.643,-0.121 -1.15,-0.409 -1.259,-1.087 -0.061,-0.381 -0.045,-0.78 -0.025,-1.169 0.015,-0.295 0.25,-0.34 0.501,-0.339 1.039,0.004 2.077,0.002 3.115,0.002 1.187,0 2.373,-0.002 3.56,0 0.452,0 0.545,0.096 0.55,0.542 0.003,0.256 0.011,0.513 -0.003,0.768 -0.036,0.601 -0.39,1.044 -0.977,1.187 -0.244,0.059 -0.39,0.171 -0.506,0.396 -0.327,0.634 -0.687,1.251 -1.025,1.879 -0.173,0.321 -0.122,0.411 0.244,0.406 1.134,-0.017 0.967,-0.009 0.971,1.029 0.006,1.658 10e-4,3.317 10e-4,4.975 0.001,0.148 0.001,0.294 0.001,0.431 z"
         id="path2180"
         style="fill:#ffffff" />
    </g>
  </g>
</svg>
