<?xml version="1.0" encoding="UTF-8" standalone="no"?>
<svg
   xmlns:dc="http://purl.org/dc/elements/1.1/"
   xmlns:cc="http://creativecommons.org/ns#"
   xmlns:rdf="http://www.w3.org/1999/02/22-rdf-syntax-ns#"
   xmlns:svg="http://www.w3.org/2000/svg"
   xmlns="http://www.w3.org/2000/svg"
   xmlns:sodipodi="http://sodipodi.sourceforge.net/DTD/sodipodi-0.dtd"
   xmlns:inkscape="http://www.inkscape.org/namespaces/inkscape"
   width="100"
   height="100"
   viewBox="0 0 26.458333 26.458334"
   version="1.1"
   id="svg5"
   inkscape:version="1.0.1 (3bc2e813f5, 2020-09-07)"
   sodipodi:docname="cage.svg">
  <metadata
     id="metadata12">
    <rdf:RDF>
      <cc:Work
         rdf:about="">
        <dc:format>image/svg+xml</dc:format>
        <dc:type
           rdf:resource="http://purl.org/dc/dcmitype/StillImage" />
        <dc:title></dc:title>
      </cc:Work>
    </rdf:RDF>
  </metadata>
  <sodipodi:namedview
     id="namedview7"
     pagecolor="#ffffff"
     bordercolor="#666666"
     borderopacity="1.0"
     inkscape:pageshadow="2"
     inkscape:pageopacity="0.0"
     inkscape:pagecheckerboard="0"
     inkscape:document-units="mm"
     showgrid="false"
     units="px"
     showguides="true"
     inkscape:guide-bbox="true"
     inkscape:zoom="4.2230384"
     inkscape:cx="105.98172"
     inkscape:cy="112.45053"
     inkscape:window-width="2560"
     inkscape:window-height="1377"
     inkscape:window-x="-8"
     inkscape:window-y="-8"
     inkscape:window-maximized="1"
     inkscape:current-layer="layer1"
     inkscape:document-rotation="0">
    <sodipodi:guide
       position="13.201969,13.256364"
       orientation="0,-1"
       id="guide836" />
    <sodipodi:guide
       position="13.201969,13.256364"
       orientation="1,0"
       id="guide838" />
    <sodipodi:guide
       position="4.1643795,23.800219"
       orientation="0,-1"
       id="guide902" />
    <sodipodi:guide
       position="5.1390215,3.0669248"
       orientation="0,-1"
       id="guide904" />
    <sodipodi:guide
       position="4.1643794,23.800219"
       orientation="1,0"
       id="guide906" />
    <sodipodi:guide
       position="22.239559,23.800219"
       orientation="1,0"
       id="guide908" />
  </sodipodi:namedview>
  <defs
     id="defs2">
    <rect
       x="0.66976112"
       y="1.3395222"
       width="119.88725"
       height="118.54772"
       id="rect5432" />
    <style
       type="text/css"
       id="style910">
   
    .fil1 {fill:none}
    .fil0 {fill:black}
   
  </style>
    <style
       type="text/css"
       id="style1028">
   
    .fil0 {fill:black;fill-rule:nonzero}
   
  </style>
  </defs>
  <g
     inkscape:label="Layer 1"
     inkscape:groupmode="layer"
     id="layer1">
    <rect
       style="fill:#4daf4a;fill-opacity:1;stroke:none;stroke-width:1.07353"
       id="rect1975"
       width="25.929167"
       height="25.929167"
       x="0.26458332"
       y="0.26458332"
       rx="2" />
    <rect
       class="fil1"
       width="1.8062205"
       height="1.8062205"
       id="rect934"
       x="26.503439"
       y="-9.8018103"
       style="clip-rule:evenodd;fill-rule:evenodd;stroke-width:0.264583;image-rendering:optimizeQuality;shape-rendering:geometricPrecision;text-rendering:geometricPrecision" />
    <path
       d="m 23.552999,5.652084 c 0.146314,0 0.264583,-0.1182687 0.264583,-0.2645833 V 2.919732 c 0,-0.1463146 -0.118269,-0.2645833 -0.264583,-0.2645833 H 2.9154989 c -0.146315,0 -0.264584,0.1182687 -0.264584,0.2645833 v 2.4677687 c 0,0.1463146 0.118269,0.2645833 0.264584,0.2645833 h 0.264583 v 15.180204 h -0.264583 c -0.146315,0 -0.264584,0.118268 -0.264584,0.264583 v 2.468033 c 0,0.146315 0.118269,0.264584 0.264584,0.264584 H 23.552999 c 0.146314,0 0.264583,-0.118269 0.264583,-0.264584 v -2.468033 c 0,-0.146315 -0.118269,-0.264583 -0.264583,-0.264583 H 23.284711 V 5.652084 Z m -6.437577,15.180204 h -1.329267 l -2.172494,-1.825361 2.837127,-2.383896 2.837127,2.383896 z m 2.58392,-1.479815 1.761067,1.479815 h -3.522398 z m -10.4105601,1.479815 -2.172494,-1.825361 2.837127,-2.383896 2.8371271,2.383896 -2.172493,1.825361 z m -0.822854,0 h -3.521869 l 1.761067,-1.479815 z M 22.755544,11.325544 v 4.444735 l -2.644775,-2.222235 z m -3.056202,1.87669 -2.837391,-2.383896 2.837127,-2.3838957 2.837391,2.3841607 z m -15.9900931,-1.82589 2.58445,2.171436 -2.58445,2.171699 z m 0.158485,-0.558006 2.837392,-2.3841602 2.837127,2.3838962 -2.837392,2.383895 z m 6.085946,-0.34581 -2.837127,-2.3838961 2.837127,-2.3838958 2.8371271,2.3838958 z m 3.2482891,-2.0383502 2.837128,2.3838962 -2.837128,2.383895 -2.837127,-2.383895 z M 9.9536799,11.163884 12.790807,13.54778 9.9536799,15.931675 7.1165529,13.54778 Z m 3.2485541,2.729441 2.837127,2.383896 -2.837127,2.383896 -2.837127,-2.383896 z m 0.411163,-0.345545 2.837127,-2.383896 2.837391,2.383896 -2.837127,2.383895 z m 2.837391,-3.075252 -2.837127,-2.3838961 2.837127,-2.3838958 2.837127,2.3838958 z m 0.760148,-4.820444 h 4.976813 l -2.488407,2.0910021 z m -4.008967,2.0907375 -2.488406,-2.091002 h 4.976813 z m -6.4968431,0 -2.488406,-2.091002 h 4.976812 z m -0.411427,0.3458104 -2.58445,2.1717001 v -4.3434 z m 0.411162,5.8046931 2.837127,2.383896 -2.837127,2.383896 -2.837127,-2.383896 z m 6.4973731,5.459148 1.761067,1.479815 h -3.522398 z m 3.659981,-3.075252 2.837127,-2.383896 2.837127,2.383896 -2.837127,2.383896 z M 22.755544,10.311132 20.110505,8.0886319 22.755544,5.866132 Z M 3.1800819,3.1843153 H 23.288415 V 5.1229174 H 3.1800819 Z m 0.529167,13.6511767 2.58445,2.171435 -2.172494,1.825361 H 3.7092489 Z M 23.288415,23.300321 H 3.1800819 V 21.361454 H 23.288415 Z m -1.005416,-2.468033 -2.172494,-1.825361 2.645039,-2.222235 v 4.047596 z"
       id="path1083"
       style="stroke-width:0.665;fill:#ffffff;fill-opacity:1;stroke:#ffffff;stroke-opacity:1;stroke-miterlimit:4;stroke-dasharray:none" />
  </g>
</svg>
