<?xml version="1.0" encoding="UTF-8" standalone="no"?>
<svg
   xmlns:dc="http://purl.org/dc/elements/1.1/"
   xmlns:cc="http://creativecommons.org/ns#"
   xmlns:rdf="http://www.w3.org/1999/02/22-rdf-syntax-ns#"
   xmlns:svg="http://www.w3.org/2000/svg"
   xmlns="http://www.w3.org/2000/svg"
   xmlns:sodipodi="http://sodipodi.sourceforge.net/DTD/sodipodi-0.dtd"
   xmlns:inkscape="http://www.inkscape.org/namespaces/inkscape"
   width="100"
   height="100"
   viewBox="0 0 26.458333 26.458334"
   version="1.1"
   id="svg5"
   inkscape:version="1.0.1 (3bc2e813f5, 2020-09-07)"
   sodipodi:docname="outdoorshower.svg">
  <metadata
     id="metadata12">
    <rdf:RDF>
      <cc:Work
         rdf:about="">
        <dc:format>image/svg+xml</dc:format>
        <dc:type
           rdf:resource="http://purl.org/dc/dcmitype/StillImage" />
        <dc:title></dc:title>
      </cc:Work>
    </rdf:RDF>
  </metadata>
  <sodipodi:namedview
     id="namedview7"
     pagecolor="#ffffff"
     bordercolor="#666666"
     borderopacity="1.0"
     inkscape:pageshadow="2"
     inkscape:pageopacity="0.0"
     inkscape:pagecheckerboard="0"
     inkscape:document-units="mm"
     showgrid="false"
     units="px"
     showguides="true"
     inkscape:guide-bbox="true"
     inkscape:zoom="2.9861391"
     inkscape:cx="-20.978856"
     inkscape:cy="44.553224"
     inkscape:window-width="2560"
     inkscape:window-height="1377"
     inkscape:window-x="-8"
     inkscape:window-y="-8"
     inkscape:window-maximized="1"
     inkscape:current-layer="layer1"
     inkscape:document-rotation="0">
    <sodipodi:guide
       position="13.201969,13.256364"
       orientation="0,-1"
       id="guide836" />
    <sodipodi:guide
       position="13.201969,13.256364"
       orientation="1,0"
       id="guide838" />
    <sodipodi:guide
       position="4.1643795,23.800219"
       orientation="0,-1"
       id="guide902" />
    <sodipodi:guide
       position="5.1390215,3.0669248"
       orientation="0,-1"
       id="guide904" />
    <sodipodi:guide
       position="4.1643794,23.800219"
       orientation="1,0"
       id="guide906" />
    <sodipodi:guide
       position="22.239559,23.800219"
       orientation="1,0"
       id="guide908" />
  </sodipodi:namedview>
  <defs
     id="defs2">
    <rect
       x="0.66976112"
       y="1.3395222"
       width="119.88725"
       height="118.54772"
       id="rect5432" />
    <style
       type="text/css"
       id="style910">
   
    .fil1 {fill:none}
    .fil0 {fill:black}
   
  </style>
    <style
       type="text/css"
       id="style1028">
   
    .fil0 {fill:black;fill-rule:nonzero}
   
  </style>
  </defs>
  <g
     inkscape:label="Layer 1"
     inkscape:groupmode="layer"
     id="layer1">
    <rect
       style="fill:#4daf4a;fill-opacity:1;stroke:none;stroke-width:1.07353"
       id="rect1975"
       width="25.929167"
       height="25.929167"
       x="0.26458332"
       y="0.26458332"
       rx="2" />
    <g
       transform="matrix(1.3333333,0,0,1.3333333,0.19562947,-369.74525)"
       id="g1417"
       style="fill:#ffffff;stroke:#ffffff;stroke-opacity:1" />
    <rect
       class="fil1"
       width="0.41432884"
       height="0.30744338"
       id="rect934"
       x="7.9110103"
       y="9.1849899"
       style="clip-rule:evenodd;fill:#ffffff;fill-rule:evenodd;stroke-width:0.0522813;image-rendering:optimizeQuality;shape-rendering:geometricPrecision;text-rendering:geometricPrecision" />
    <path
       d="m 21.566712,24.60288 a 0.36415655,0.27021417 0 0 0 0.364157,-0.270214 V 6.9617234 a 6.0866339,4.5164497 0 0 0 -12.1732678,0 V 7.6334308 H 5.2056446 a 1.2760045,0.94683043 0 0 0 -1.274548,0.9457496 v 0.2702141 a 1.2760045,0.94683043 0 0 0 1.274548,0.9457496 H 15.037871 A 1.2760045,0.94683043 0 0 0 16.312419,8.8493945 V 8.5791804 A 1.2760045,0.94683043 0 0 0 15.037871,7.6334308 H 10.485914 V 6.9617234 a 5.358321,3.9760214 0 0 1 10.716642,0 V 24.332666 a 0.36415655,0.27021417 0 0 0 0.364156,0.270214 z"
       id="path2321"
       style="fill:#ffffff;stroke-width:1.152;stroke:#ffffff;stroke-opacity:1;stroke-miterlimit:4;stroke-dasharray:none" />
    <path
       d="m 10.485914,11.78333 a 0.36415655,0.27021417 0 0 0 -0.7283128,0 v 0.540428 a 0.36415655,0.27021417 0 1 0 0.7283128,0 z"
       id="path2323"
       style="fill:#ffffff;stroke-width:0.0522813" />
    <path
       d="m 12.670854,11.78333 a 0.364157,0.2702145 0 0 0 -0.728314,0 v 1.621285 a 0.364157,0.2702145 0 1 0 0.728314,0 z"
       id="path2325"
       style="fill:#ffffff;stroke-width:0.0522813" />
    <path
       d="m 14.855793,11.78333 a 0.36415655,0.27021417 0 0 0 -0.728313,0 v 0.540428 a 0.36415655,0.27021417 0 1 0 0.728313,0 z"
       id="path2327"
       style="fill:#ffffff;stroke-width:0.0522813" />
    <path
       d="m 6.1160359,11.78333 a 0.36415655,0.27021417 0 0 0 -0.7283131,0 v 0.540428 a 0.36415655,0.27021417 0 1 0 0.7283131,0 z"
       id="path2329"
       style="fill:#ffffff;stroke-width:0.0522813" />
    <path
       d="m 8.3009752,11.78333 a 0.36415655,0.27021417 0 0 0 -0.7283131,0 v 1.621285 a 0.36415655,0.27021417 0 1 0 0.7283131,0 z"
       id="path2331"
       style="fill:#ffffff;stroke-width:0.0522813" />
    <path
       d="m 10.485914,13.404615 a 0.36415655,0.27021417 0 0 0 -0.7283128,0 v 3.24257 a 0.36415655,0.27021417 0 0 0 0.7283128,0 z"
       id="path2333"
       style="fill:#ffffff;stroke-width:0.0522813" />
    <path
       d="m 12.670854,14.485472 a 0.364157,0.2702145 0 0 0 -0.728314,0 v 1.080856 a 0.364157,0.2702145 0 0 0 0.728314,0 z"
       id="path2335"
       style="fill:#ffffff;stroke-width:0.0522813" />
    <path
       d="m 14.855793,13.404615 a 0.36415655,0.27021417 0 0 0 -0.728313,0 v 3.24257 a 0.36415655,0.27021417 0 0 0 0.728313,0 z"
       id="path2337"
       style="fill:#ffffff;stroke-width:0.0522813" />
    <path
       d="m 6.1160359,13.404615 a 0.36415655,0.27021417 0 0 0 -0.7283131,0 v 3.24257 a 0.36415655,0.27021417 0 0 0 0.7283131,0 z"
       id="path2339"
       style="fill:#ffffff;stroke-width:0.0522813" />
    <path
       d="m 8.3009752,14.485472 a 0.36415655,0.27021417 0 0 0 -0.7283131,0 v 1.080856 a 0.36415655,0.27021417 0 0 0 0.7283131,0 z"
       id="path2341"
       style="fill:#ffffff;stroke-width:0.0522813" />
    <path
       d="M 10.121758,17.998256 A 0.36415655,0.27021417 0 0 0 9.7576012,18.26847 v 0.540428 a 0.36415655,0.27021417 0 0 0 0.7283128,0 V 18.26847 a 0.36415655,0.27021417 0 0 0 -0.364156,-0.270214 z"
       id="path2343"
       style="fill:#ffffff;stroke-width:0.0522813" />
    <path
       d="m 12.306697,16.376971 a 0.36415655,0.27021417 0 0 0 -0.364157,0.270214 v 2.161713 a 0.364157,0.2702145 0 0 0 0.728314,0 v -2.161713 a 0.36415655,0.27021417 0 0 0 -0.364157,-0.270214 z"
       id="path2345"
       style="fill:#ffffff;stroke-width:0.0522813" />
    <path
       d="M 14.491636,17.998256 A 0.36415655,0.27021417 0 0 0 14.12748,18.26847 v 0.540428 a 0.36415655,0.27021417 0 0 0 0.728313,0 V 18.26847 a 0.36415655,0.27021417 0 0 0 -0.364157,-0.270214 z"
       id="path2347"
       style="fill:#ffffff;stroke-width:0.0522813" />
    <path
       d="M 5.7518794,17.998256 A 0.36415655,0.27021417 0 0 0 5.3877228,18.26847 v 0.540428 a 0.36415655,0.27021417 0 0 0 0.7283131,0 V 18.26847 A 0.36415655,0.27021417 0 0 0 5.7518794,17.998256 Z"
       id="path2349"
       style="fill:#ffffff;stroke-width:0.0522813" />
    <path
       d="m 7.9368187,16.376971 a 0.36415655,0.27021417 0 0 0 -0.3641566,0.270214 v 2.161713 a 0.36415655,0.27021417 0 0 0 0.7283131,0 V 16.647185 A 0.36415655,0.27021417 0 0 0 7.9368187,16.376971 Z"
       id="path2351"
       style="fill:#ffffff;stroke-width:0.0522813" />
  </g>
</svg>
