<?xml version="1.0" encoding="UTF-8" standalone="no"?>
<svg
   xmlns:dc="http://purl.org/dc/elements/1.1/"
   xmlns:cc="http://creativecommons.org/ns#"
   xmlns:rdf="http://www.w3.org/1999/02/22-rdf-syntax-ns#"
   xmlns:svg="http://www.w3.org/2000/svg"
   xmlns="http://www.w3.org/2000/svg"
   xmlns:sodipodi="http://sodipodi.sourceforge.net/DTD/sodipodi-0.dtd"
   xmlns:inkscape="http://www.inkscape.org/namespaces/inkscape"
   width="100"
   height="100"
   viewBox="0 0 26.458333 26.458334"
   version="1.1"
   id="svg5"
   inkscape:version="1.0.1 (3bc2e813f5, 2020-09-07)"
   sodipodi:docname="washdown.svg">
  <metadata
     id="metadata12">
    <rdf:RDF>
      <cc:Work
         rdf:about="">
        <dc:format>image/svg+xml</dc:format>
        <dc:type
           rdf:resource="http://purl.org/dc/dcmitype/StillImage" />
        <dc:title></dc:title>
      </cc:Work>
    </rdf:RDF>
  </metadata>
  <sodipodi:namedview
     id="namedview7"
     pagecolor="#ffffff"
     bordercolor="#666666"
     borderopacity="1.0"
     inkscape:pageshadow="2"
     inkscape:pageopacity="0.0"
     inkscape:pagecheckerboard="0"
     inkscape:document-units="mm"
     showgrid="false"
     units="px"
     showguides="true"
     inkscape:guide-bbox="true"
     inkscape:zoom="4.2230384"
     inkscape:cx="105.98172"
     inkscape:cy="112.45053"
     inkscape:window-width="2560"
     inkscape:window-height="1377"
     inkscape:window-x="-8"
     inkscape:window-y="-8"
     inkscape:window-maximized="1"
     inkscape:current-layer="layer1"
     inkscape:document-rotation="0">
    <sodipodi:guide
       position="13.201969,13.256364"
       orientation="0,-1"
       id="guide836" />
    <sodipodi:guide
       position="13.201969,13.256364"
       orientation="1,0"
       id="guide838" />
    <sodipodi:guide
       position="4.1643795,23.800219"
       orientation="0,-1"
       id="guide902" />
    <sodipodi:guide
       position="5.1390215,3.0669248"
       orientation="0,-1"
       id="guide904" />
    <sodipodi:guide
       position="4.1643794,23.800219"
       orientation="1,0"
       id="guide906" />
    <sodipodi:guide
       position="22.239559,23.800219"
       orientation="1,0"
       id="guide908" />
  </sodipodi:namedview>
  <defs
     id="defs2">
    <rect
       x="0.66976112"
       y="1.3395222"
       width="119.88725"
       height="118.54772"
       id="rect5432" />
    <style
       type="text/css"
       id="style910">
   
    .fil1 {fill:none}
    .fil0 {fill:black}
   
  </style>
    <style
       type="text/css"
       id="style1028">
   
    .fil0 {fill:black;fill-rule:nonzero}
   
  </style>
  </defs>
  <g
     inkscape:label="Layer 1"
     inkscape:groupmode="layer"
     id="layer1">
    <rect
       style="fill:#4daf4a;fill-opacity:1;stroke:none;stroke-width:1.07353"
       id="rect1975"
       width="25.929167"
       height="25.929167"
       x="0.26458332"
       y="0.26458332"
       rx="2" />
    <rect
       class="fil1"
       width="1.8062205"
       height="1.8062205"
       id="rect934"
       x="26.503439"
       y="-9.8018103"
       style="clip-rule:evenodd;fill-rule:evenodd;stroke-width:0.264583;image-rendering:optimizeQuality;shape-rendering:geometricPrecision;text-rendering:geometricPrecision" />
    <g
       id="g1159"
       transform="matrix(0.33103385,0,0,0.33103385,2.7085617,2.5252136)"
       style="fill:#fffffe;fill-opacity:1;stroke:#ffffff;stroke-width:0.99989774;stroke-miterlimit:4;stroke-dasharray:none;stroke-opacity:1">
      <polygon
         points="5,58 7,58 7,56 10,56 10,54 2,54 2,56 5,56 "
         id="polygon1107"
         style="fill:#fffffe;fill-opacity:1;stroke:#ffffff;stroke-width:0.99989774;stroke-miterlimit:4;stroke-dasharray:none;stroke-opacity:1" />
      <polygon
         points="22,20 24,20 22,12 20,12 "
         id="polygon1109"
         style="fill:#fffffe;fill-opacity:1;stroke:#ffffff;stroke-width:0.99989774;stroke-miterlimit:4;stroke-dasharray:none;stroke-opacity:1" />
      <polygon
         points="26,20 28,20 26,12 24,12 "
         id="polygon1111"
         style="fill:#fffffe;fill-opacity:1;stroke:#ffffff;stroke-width:0.99989774;stroke-miterlimit:4;stroke-dasharray:none;stroke-opacity:1" />
      <polygon
         points="30,20 32,20 30,12 28,12 "
         id="polygon1113"
         style="fill:#fffffe;fill-opacity:1;stroke:#ffffff;stroke-width:0.99989774;stroke-miterlimit:4;stroke-dasharray:none;stroke-opacity:1" />
      <polygon
         points="34,20 36,20 34,12 32,12 "
         id="polygon1115"
         style="fill:#fffffe;fill-opacity:1;stroke:#ffffff;stroke-width:0.99989774;stroke-miterlimit:4;stroke-dasharray:none;stroke-opacity:1" />
      <polygon
         points="38,20 40,20 38,12 36,12 "
         id="polygon1117"
         style="fill:#fffffe;fill-opacity:1;stroke:#ffffff;stroke-width:0.99989774;stroke-miterlimit:4;stroke-dasharray:none;stroke-opacity:1" />
      <polygon
         points="40,12 42,20 44,20 42,12 "
         id="polygon1119"
         style="fill:#fffffe;fill-opacity:1;stroke:#ffffff;stroke-width:0.99989774;stroke-miterlimit:4;stroke-dasharray:none;stroke-opacity:1" />
      <polygon
         points="10,29 2,31 2,33 10,31 "
         id="polygon1121"
         style="fill:#fffffe;fill-opacity:1;stroke:#ffffff;stroke-width:0.99989774;stroke-miterlimit:4;stroke-dasharray:none;stroke-opacity:1" />
      <polygon
         points="10,33 2,35 2,37 10,35 "
         id="polygon1123"
         style="fill:#fffffe;fill-opacity:1;stroke:#ffffff;stroke-width:0.99989774;stroke-miterlimit:4;stroke-dasharray:none;stroke-opacity:1" />
      <polygon
         points="10,37 2,39 2,41 10,39 "
         id="polygon1125"
         style="fill:#fffffe;fill-opacity:1;stroke:#ffffff;stroke-width:0.99989774;stroke-miterlimit:4;stroke-dasharray:none;stroke-opacity:1" />
      <polygon
         points="10,41 2,43 2,45 10,43 "
         id="polygon1127"
         style="fill:#fffffe;fill-opacity:1;stroke:#ffffff;stroke-width:0.99989774;stroke-miterlimit:4;stroke-dasharray:none;stroke-opacity:1" />
      <polygon
         points="10,45 2,47 2,49 10,47 "
         id="polygon1129"
         style="fill:#fffffe;fill-opacity:1;stroke:#ffffff;stroke-width:0.99989774;stroke-miterlimit:4;stroke-dasharray:none;stroke-opacity:1" />
      <polygon
         points="10,49 2,51 2,53 10,51 "
         id="polygon1131"
         style="fill:#fffffe;fill-opacity:1;stroke:#ffffff;stroke-width:0.99989774;stroke-miterlimit:4;stroke-dasharray:none;stroke-opacity:1" />
      <polygon
         points="57,58 59,58 59,56 62,56 62,54 54,54 54,56 57,56 "
         id="polygon1133"
         style="fill:#fffffe;fill-opacity:1;stroke:#ffffff;stroke-width:0.99989774;stroke-miterlimit:4;stroke-dasharray:none;stroke-opacity:1" />
      <polygon
         points="62,31 54,29 54,31 62,33 "
         id="polygon1135"
         style="fill:#fffffe;fill-opacity:1;stroke:#ffffff;stroke-width:0.99989774;stroke-miterlimit:4;stroke-dasharray:none;stroke-opacity:1" />
      <polygon
         points="62,35 54,33 54,35 62,37 "
         id="polygon1137"
         style="fill:#fffffe;fill-opacity:1;stroke:#ffffff;stroke-width:0.99989774;stroke-miterlimit:4;stroke-dasharray:none;stroke-opacity:1" />
      <polygon
         points="62,39 54,37 54,39 62,41 "
         id="polygon1139"
         style="fill:#fffffe;fill-opacity:1;stroke:#ffffff;stroke-width:0.99989774;stroke-miterlimit:4;stroke-dasharray:none;stroke-opacity:1" />
      <polygon
         points="62,43 54,41 54,43 62,45 "
         id="polygon1141"
         style="fill:#fffffe;fill-opacity:1;stroke:#ffffff;stroke-width:0.99989774;stroke-miterlimit:4;stroke-dasharray:none;stroke-opacity:1" />
      <polygon
         points="62,47 54,45 54,47 62,49 "
         id="polygon1143"
         style="fill:#fffffe;fill-opacity:1;stroke:#ffffff;stroke-width:0.99989774;stroke-miterlimit:4;stroke-dasharray:none;stroke-opacity:1" />
      <polygon
         points="62,51 54,49 54,51 62,53 "
         id="polygon1145"
         style="fill:#fffffe;fill-opacity:1;stroke:#ffffff;stroke-width:0.99989774;stroke-miterlimit:4;stroke-dasharray:none;stroke-opacity:1" />
      <path
         d="M 59,4 H 54 V 2 H 10 V 4 H 5 V 26 H 2 v 2 h 8 V 26 H 7 V 6 h 3 v 2 h 3 v 9 h 4 v 3 h 2 v -8 h -2 v 3 H 15 V 8 h 34 v 7 h -2 v -3 h -2 v 8 h 2 v -3 h 4 V 8 h 3 V 6 h 3 v 20 h -3 v 2 h 8 V 26 H 59 Z M 52,6 H 12 V 4 h 40 z"
         id="path1147"
         style="fill:#fffffe;fill-opacity:1;stroke:#ffffff;stroke-width:0.99989774;stroke-miterlimit:4;stroke-dasharray:none;stroke-opacity:1" />
      <path
         d="M 48,42.14 V 40 h 2 v -2 h -4 v 4 h -1.17 l -3,-16 H 22.17 l -3,16 H 18 v -4 h -4 v 2 h 2 v 2.14 A 4,4 0 0 0 13,46 v 6 a 4,4 0 0 0 3,3.86 V 59 a 3,3 0 0 0 3,3 h 2 a 3,3 0 0 0 3,-3 v -3 h 16 v 3 a 3,3 0 0 0 3,3 h 2 a 3,3 0 0 0 3,-3 V 55.86 A 4,4 0 0 0 51,52 V 46 A 4,4 0 0 0 48,42.14 Z M 23.83,28 h 16.34 l 2.62,14 H 21.21 Z M 22,59 a 1,1 0 0 1 -1,1 h -2 a 1,1 0 0 1 -1,-1 v -3 h 4 z m 24,0 a 1,1 0 0 1 -1,1 h -2 a 1,1 0 0 1 -1,-1 v -3 h 4 z m 3,-7 a 2,2 0 0 1 -2,2 H 17 a 2,2 0 0 1 -2,-2 v -6 a 2,2 0 0 1 2,-2 h 30 a 2,2 0 0 1 2,2 z"
         id="path1149"
         style="fill:#fffffe;fill-opacity:1;stroke:#ffffff;stroke-width:0.99989774;stroke-miterlimit:4;stroke-dasharray:none;stroke-opacity:1" />
      <rect
         x="25"
         y="50"
         width="14"
         height="2"
         id="rect1151"
         style="fill:#fffffe;fill-opacity:1;stroke:#ffffff;stroke-width:0.99989774;stroke-miterlimit:4;stroke-dasharray:none;stroke-opacity:1" />
      <rect
         x="25"
         y="46"
         width="14"
         height="2"
         id="rect1153"
         style="fill:#fffffe;fill-opacity:1;stroke:#ffffff;stroke-width:0.99989774;stroke-miterlimit:4;stroke-dasharray:none;stroke-opacity:1" />
      <path
         d="m 20,46 a 3,3 0 1 0 3,3 3,3 0 0 0 -3,-3 z m 0,4 a 1,1 0 1 1 1,-1 1,1 0 0 1 -1,1 z"
         id="path1155"
         style="fill:#fffffe;fill-opacity:1;stroke:#ffffff;stroke-width:0.99989774;stroke-miterlimit:4;stroke-dasharray:none;stroke-opacity:1" />
      <path
         d="m 44,46 a 3,3 0 1 0 3,3 3,3 0 0 0 -3,-3 z m 0,4 a 1,1 0 1 1 1,-1 1,1 0 0 1 -1,1 z"
         id="path1157"
         style="fill:#fffffe;fill-opacity:1;stroke:#ffffff;stroke-width:0.99989774;stroke-miterlimit:4;stroke-dasharray:none;stroke-opacity:1" />
    </g>
  </g>
</svg>
