<?xml version="1.0" encoding="UTF-8" standalone="no"?>
<svg
   xmlns:dc="http://purl.org/dc/elements/1.1/"
   xmlns:cc="http://creativecommons.org/ns#"
   xmlns:rdf="http://www.w3.org/1999/02/22-rdf-syntax-ns#"
   xmlns:svg="http://www.w3.org/2000/svg"
   xmlns="http://www.w3.org/2000/svg"
   xmlns:sodipodi="http://sodipodi.sourceforge.net/DTD/sodipodi-0.dtd"
   xmlns:inkscape="http://www.inkscape.org/namespaces/inkscape"
   width="100"
   height="100"
   viewBox="0 0 26.458333 26.458334"
   version="1.1"
   id="svg5"
   inkscape:version="1.0.1 (3bc2e813f5, 2020-09-07)"
   sodipodi:docname="fuelbowser.svg">
  <metadata
     id="metadata12">
    <rdf:RDF>
      <cc:Work
         rdf:about="">
        <dc:format>image/svg+xml</dc:format>
        <dc:type
           rdf:resource="http://purl.org/dc/dcmitype/StillImage" />
        <dc:title></dc:title>
      </cc:Work>
    </rdf:RDF>
  </metadata>
  <sodipodi:namedview
     id="namedview7"
     pagecolor="#ffffff"
     bordercolor="#666666"
     borderopacity="1.0"
     inkscape:pageshadow="2"
     inkscape:pageopacity="0.0"
     inkscape:pagecheckerboard="0"
     inkscape:document-units="mm"
     showgrid="false"
     units="px"
     showguides="true"
     inkscape:guide-bbox="true"
     inkscape:zoom="4.2230384"
     inkscape:cx="117.84367"
     inkscape:cy="48.876529"
     inkscape:window-width="2560"
     inkscape:window-height="1377"
     inkscape:window-x="-8"
     inkscape:window-y="-8"
     inkscape:window-maximized="1"
     inkscape:current-layer="layer1"
     inkscape:document-rotation="0">
    <sodipodi:guide
       position="13.201969,13.256364"
       orientation="0,-1"
       id="guide836" />
    <sodipodi:guide
       position="13.201969,13.256364"
       orientation="1,0"
       id="guide838" />
    <sodipodi:guide
       position="4.1643795,23.800219"
       orientation="0,-1"
       id="guide902" />
    <sodipodi:guide
       position="5.1390215,3.0669248"
       orientation="0,-1"
       id="guide904" />
    <sodipodi:guide
       position="4.1643794,23.800219"
       orientation="1,0"
       id="guide906" />
    <sodipodi:guide
       position="22.239559,23.800219"
       orientation="1,0"
       id="guide908" />
  </sodipodi:namedview>
  <defs
     id="defs2">
    <rect
       x="0.66976112"
       y="1.3395222"
       width="119.88725"
       height="118.54772"
       id="rect5432" />
    <style
       type="text/css"
       id="style910">
   
    .fil1 {fill:none}
    .fil0 {fill:black}
   
  </style>
    <style
       type="text/css"
       id="style1028">
   
    .fil0 {fill:black;fill-rule:nonzero}
   
  </style>
  </defs>
  <g
     inkscape:label="Layer 1"
     inkscape:groupmode="layer"
     id="layer1">
    <rect
       style="fill:#4daf4a;fill-opacity:1;stroke:none;stroke-width:1.07353"
       id="rect1975"
       width="25.929167"
       height="25.929167"
       x="0.26458332"
       y="0.26458332"
       rx="2" />
    <rect
       class="fil1"
       width="1.8062205"
       height="1.8062205"
       id="rect934"
       x="26.503439"
       y="-9.8018103"
       style="clip-rule:evenodd;fill-rule:evenodd;stroke-width:0.264583;image-rendering:optimizeQuality;shape-rendering:geometricPrecision;text-rendering:geometricPrecision" />
    <g
       transform="matrix(1.3333333,0,0,1.3333333,0.19562947,-369.74525)"
       id="g1417"
       style="fill:#ffffff;stroke:#ffffff;stroke-opacity:1" />
    <g
       id="g2010"
       style="fill:#ffffff"
       transform="matrix(0.30704323,0,0,0.34781224,3.0425683,1.0399714)">
      <g
         id="g2006"
         style="fill:#ffffff">
        <path
           d="m 48.54004,57.19503 v 4.63 c 0,1.19 -0.97003,2.15997 -2.16003,2.15997 H 3.16003 C 1.97003,63.985 1,63.01503 1,61.82503 v -4.63 C 1,55.99502 1.97003,55.035 3.16003,55.035 H 46.38 c 1.19001,-10e-6 2.16004,0.96001 2.16004,2.16003 z"
           id="path2004"
           style="fill:#ffffff" />
      </g>
      <path
         d="m 64,16.295 h -1.10315 c 0.01312,-0.06464 0.03894,-0.12469 0.03894,-0.19324 v -6.02832 c 0,-2.37695 -1.93457,-4.31104 -4.31152,-4.31104 -0.55273,0 -1,0.44775 -1,1 0,0.55225 0.44727,1 1,1 1.27441,0 2.31152,1.03662 2.31152,2.31104 v 6.02832 c 0,0.06854 0.02588,0.1286 0.039,0.19324 h -1.58478 c -0.83002,0 -1.5,0.66998 -1.5,1.5 v 0.42883 h -3.11926 c -1.68555,0 -3.05762,1.37207 -3.05762,3.05811 v 7.09961 c 0,1.68604 1.37207,3.05811 3.05762,3.05811 h 3.11926 v 0.42535 c 0,0.83002 0.66998,1.5 1.5,1.5 h 1.21143 c -0.01361,0.06573 -0.03967,0.12695 -0.03967,0.19672 v 8.62402 c 0,3.22607 -2.625,5.85107 -5.85059,5.85107 -3.22559,0 -5.85059,-2.625 -5.85059,-5.85107 V 27.15059 c 0,-1.83008 -1.48926,-3.31885 -3.31934,-3.31885 H 43.76 V 7.33504 c 0,-1.83002 -1.48999,-3.32001 -3.32001,-3.32001 H 9.10004 c -1.83002,0 -3.31,1.48999 -3.31,3.32001 V 53.03499 H 43.76001 V 25.83175 h 1.78125 c 0.72754,0 1.31934,0.5918 1.31934,1.31885 v 15.03516 c 0,4.3291 3.52148,7.85107 7.85059,7.85107 4.32911,0 7.85059,-3.52197 7.85059,-7.85107 v -8.62402 c 0,-0.06976 -0.02606,-0.13098 -0.03967,-0.19672 H 64 c 1.66003,0 3,-1.34003 3,-3 V 19.295 c 0,-1.64996 -1.33997,-3 -3,-3 z m -6.11304,7.34601 -2.08496,1.81378 c -0.41699,0.3623 -0.46094,0.99414 -0.09863,1.41064 0.19824,0.22754 0.47559,0.34375 0.75488,0.34375 0.2334,0 0.4668,-0.08057 0.65625,-0.24561 l 0.77246,-0.672 v 3.14807 h -3.11621 c -0.58301,0 -1.05762,-0.47461 -1.05762,-1.05811 v -7.09961 c 0,-0.5835 0.47461,-1.05811 1.05762,-1.05811 h 3.11621 z M 18.54028,39.93428 h -2 v -6 h 2 z m 7.23145,0 h -2 v -6 h 2 z m 7.23047,0 h -2 v -6 h 2 z m 4.53784,-16.09924 c 0,0.54999 -0.45001,1 -1,1 H 13 c -0.54999,0 -1,-0.45001 -1,-1 V 11.235 c 0,-0.54999 0.45001,-1 1,-1 h 23.54004 c 0.54999,0 1,0.45001 1,1 z"
         id="path2008"
         style="fill:#ffffff" />
    </g>
  </g>
</svg>
