<?xml version="1.0" encoding="UTF-8" standalone="no"?>
<svg
   xmlns:dc="http://purl.org/dc/elements/1.1/"
   xmlns:cc="http://creativecommons.org/ns#"
   xmlns:rdf="http://www.w3.org/1999/02/22-rdf-syntax-ns#"
   xmlns:svg="http://www.w3.org/2000/svg"
   xmlns="http://www.w3.org/2000/svg"
   xmlns:sodipodi="http://sodipodi.sourceforge.net/DTD/sodipodi-0.dtd"
   xmlns:inkscape="http://www.inkscape.org/namespaces/inkscape"
   width="100"
   height="100"
   viewBox="0 0 26.458333 26.458334"
   version="1.1"
   id="svg5"
   inkscape:version="1.0.1 (3bc2e813f5, 2020-09-07)"
   sodipodi:docname="streetfurniture.svg">
  <metadata
     id="metadata12">
    <rdf:RDF>
      <cc:Work
         rdf:about="">
        <dc:format>image/svg+xml</dc:format>
        <dc:type
           rdf:resource="http://purl.org/dc/dcmitype/StillImage" />
        <dc:title></dc:title>
      </cc:Work>
    </rdf:RDF>
  </metadata>
  <sodipodi:namedview
     id="namedview7"
     pagecolor="#ffffff"
     bordercolor="#666666"
     borderopacity="1.0"
     inkscape:pageshadow="2"
     inkscape:pageopacity="0.0"
     inkscape:pagecheckerboard="0"
     inkscape:document-units="mm"
     showgrid="false"
     units="px"
     showguides="true"
     inkscape:guide-bbox="true"
     inkscape:zoom="2.9861391"
     inkscape:cx="-46.485038"
     inkscape:cy="72.924788"
     inkscape:window-width="2560"
     inkscape:window-height="1377"
     inkscape:window-x="-8"
     inkscape:window-y="-8"
     inkscape:window-maximized="1"
     inkscape:current-layer="layer1"
     inkscape:document-rotation="0">
    <sodipodi:guide
       position="13.201969,13.256364"
       orientation="0,-1"
       id="guide836" />
    <sodipodi:guide
       position="13.201969,13.256364"
       orientation="1,0"
       id="guide838" />
    <sodipodi:guide
       position="4.1643795,23.800219"
       orientation="0,-1"
       id="guide902" />
    <sodipodi:guide
       position="5.1390215,3.0669248"
       orientation="0,-1"
       id="guide904" />
    <sodipodi:guide
       position="4.1643794,23.800219"
       orientation="1,0"
       id="guide906" />
    <sodipodi:guide
       position="22.239559,23.800219"
       orientation="1,0"
       id="guide908" />
  </sodipodi:namedview>
  <defs
     id="defs2">
    <rect
       x="0.66976112"
       y="1.3395222"
       width="119.88725"
       height="118.54772"
       id="rect5432" />
    <style
       type="text/css"
       id="style910">
   
    .fil1 {fill:none}
    .fil0 {fill:black}
   
  </style>
  </defs>
  <g
     inkscape:label="Layer 1"
     inkscape:groupmode="layer"
     id="layer1">
    <rect
       style="fill:#4daf4a;fill-opacity:1;stroke:none;stroke-width:1.07353"
       id="rect1975"
       width="25.929167"
       height="25.929167"
       x="0.26458332"
       y="0.26458332"
       rx="2" />
    <g
       id="g932"
       style="clip-rule:evenodd;fill:#ffffff;fill-opacity:1;fill-rule:evenodd;image-rendering:optimizeQuality;shape-rendering:geometricPrecision;text-rendering:geometricPrecision"
       transform="matrix(3.7778342,0,0,4.0050173,0.20243739,-0.43307936)">
      <path
         class="fil0"
         d="M 1.11487,2.53157 H 5.71164 V 2.114842 H 1.11487 Z M 1.968815,2.323227 c 0,-0.037472 -0.030575,-0.067559 -0.067913,-0.067559 -0.038051,0 -0.068579,0.029953 -0.068579,0.067559 0,0.036988 0.030571,0.067075 0.068579,0.067075 0.037339,4.33e-5 0.067913,-0.029953 0.067913,-0.067075 z m 3.02555,0 c 0,-0.037472 -0.030571,-0.067559 -0.068134,-0.067559 -0.037563,0 -0.068138,0.029953 -0.068138,0.067559 0,0.036988 0.030441,0.067075 0.068138,0.067075 0.037693,4.33e-5 0.068134,-0.029953 0.068134,-0.067075 z"
         id="path914"
         style="fill:#ffffff;fill-opacity:1" />
      <path
         class="fil0"
         d="M 1.11487,3.22355 H 5.71164 V 2.817704 H 1.11487 Z M 1.968815,3.020605 c 0,-0.037209 -0.030575,-0.067209 -0.067913,-0.067209 -0.038051,0 -0.068579,0.029953 -0.068579,0.067209 0,0.037252 0.030571,0.067559 0.068579,0.067559 0.037339,8.66e-5 0.067913,-0.03022 0.067913,-0.067559 z m 3.02555,0 c 0,-0.037209 -0.030571,-0.067209 -0.068134,-0.067209 -0.037563,0 -0.068138,0.029953 -0.068138,0.067209 0,0.037252 0.030441,0.067559 0.068138,0.067559 0.037693,8.66e-5 0.068134,-0.03022 0.068134,-0.067559 z"
         id="path916"
         style="fill:#ffffff;fill-opacity:1" />
      <rect
         class="fil0"
         x="4.7848301"
         y="1.88315"
         width="0.28271601"
         height="0.266572"
         id="rect918"
         style="fill:#ffffff;fill-opacity:1" />
      <rect
         class="fil0"
         x="4.7848301"
         y="2.4721701"
         width="0.28271601"
         height="0.40498501"
         id="rect920"
         style="fill:#ffffff;fill-opacity:1" />
      <polygon
         class="fil0"
         points="5.97334,3.56011 5.97334,3.96538 0.853343,3.96538 0.853343,3.56011 1.75892,3.56011 1.75892,3.14024 2.04221,3.14024 2.04221,3.56011 4.78483,3.56011 4.78483,3.14024 5.06754,3.14024 5.06754,3.56011 "
         id="polygon922"
         style="fill:#ffffff;fill-opacity:1" />
      <rect
         class="fil0"
         x="1.75896"
         y="2.4721701"
         width="0.283292"
         height="0.40498501"
         id="rect924"
         style="fill:#ffffff;fill-opacity:1" />
      <rect
         class="fil0"
         x="1.75896"
         y="1.88315"
         width="0.283292"
         height="0.266572"
         id="rect926"
         style="fill:#ffffff;fill-opacity:1" />
      <rect
         class="fil0"
         x="1.2964"
         y="3.89305"
         width="0.468009"
         height="1.05065"
         id="rect928"
         style="fill:#ffffff;fill-opacity:1" />
      <rect
         class="fil0"
         x="5.0621901"
         y="3.89305"
         width="0.467787"
         height="1.05065"
         id="rect930"
         style="fill:#ffffff;fill-opacity:1" />
    </g>
    <rect
       class="fil1"
       width="1.8062205"
       height="1.8062205"
       id="rect934"
       x="26.503439"
       y="-9.8018103"
       style="clip-rule:evenodd;fill-rule:evenodd;stroke-width:0.264583;image-rendering:optimizeQuality;shape-rendering:geometricPrecision;text-rendering:geometricPrecision" />
  </g>
</svg>
