<?xml version="1.0" encoding="UTF-8" standalone="no"?>
<svg
   xmlns:dc="http://purl.org/dc/elements/1.1/"
   xmlns:cc="http://creativecommons.org/ns#"
   xmlns:rdf="http://www.w3.org/1999/02/22-rdf-syntax-ns#"
   xmlns:svg="http://www.w3.org/2000/svg"
   xmlns="http://www.w3.org/2000/svg"
   xmlns:sodipodi="http://sodipodi.sourceforge.net/DTD/sodipodi-0.dtd"
   xmlns:inkscape="http://www.inkscape.org/namespaces/inkscape"
   width="100"
   height="100"
   viewBox="0 0 26.458333 26.458334"
   version="1.1"
   id="svg5"
   inkscape:version="1.0.1 (3bc2e813f5, 2020-09-07)"
   sodipodi:docname="tower.svg">
  <metadata
     id="metadata12">
    <rdf:RDF>
      <cc:Work
         rdf:about="">
        <dc:format>image/svg+xml</dc:format>
        <dc:type
           rdf:resource="http://purl.org/dc/dcmitype/StillImage" />
        <dc:title></dc:title>
      </cc:Work>
    </rdf:RDF>
  </metadata>
  <sodipodi:namedview
     id="namedview7"
     pagecolor="#ffffff"
     bordercolor="#666666"
     borderopacity="1.0"
     inkscape:pageshadow="2"
     inkscape:pageopacity="0.0"
     inkscape:pagecheckerboard="0"
     inkscape:document-units="mm"
     showgrid="false"
     units="px"
     showguides="true"
     inkscape:guide-bbox="true"
     inkscape:zoom="5.9722782"
     inkscape:cx="43.915511"
     inkscape:cy="69.152719"
     inkscape:window-width="2560"
     inkscape:window-height="1377"
     inkscape:window-x="-8"
     inkscape:window-y="-8"
     inkscape:window-maximized="1"
     inkscape:current-layer="layer1"
     inkscape:document-rotation="0">
    <sodipodi:guide
       position="13.201969,13.256364"
       orientation="0,-1"
       id="guide836" />
    <sodipodi:guide
       position="13.201969,13.256364"
       orientation="1,0"
       id="guide838" />
    <sodipodi:guide
       position="4.1643795,23.800219"
       orientation="0,-1"
       id="guide902" />
    <sodipodi:guide
       position="5.1390215,3.0669248"
       orientation="0,-1"
       id="guide904" />
    <sodipodi:guide
       position="4.1643794,23.800219"
       orientation="1,0"
       id="guide906" />
    <sodipodi:guide
       position="22.239559,23.800219"
       orientation="1,0"
       id="guide908" />
  </sodipodi:namedview>
  <defs
     id="defs2">
    <rect
       x="0.66976112"
       y="1.3395222"
       width="119.88725"
       height="118.54772"
       id="rect5432" />
    <style
       type="text/css"
       id="style910">
   
    .fil1 {fill:none}
    .fil0 {fill:black}
   
  </style>
    <style
       type="text/css"
       id="style1028">
   
    .fil0 {fill:black;fill-rule:nonzero}
   
  </style>
  </defs>
  <g
     inkscape:label="Layer 1"
     inkscape:groupmode="layer"
     id="layer1">
    <rect
       style="fill:#4daf4a;fill-opacity:1;stroke:none;stroke-width:1.07353"
       id="rect1975"
       width="25.929167"
       height="25.929167"
       x="0.26458332"
       y="0.26458332"
       rx="2" />
    <g
       transform="matrix(1.3333333,0,0,1.3333333,0.19562947,-369.74525)"
       id="g1417"
       style="fill:#ffffff;stroke:#ffffff;stroke-opacity:1" />
    <g
       transform="matrix(3.1211279,0,0,3.1211279,0.19554842,-900.86022)"
       id="g2851"
       style="fill:#ffffff">
      <path
         style="color:#4daf4a;font-style:normal;font-variant:normal;font-weight:normal;font-stretch:normal;font-size:medium;line-height:normal;font-family:sans-serif;font-variant-ligatures:normal;font-variant-position:normal;font-variant-caps:normal;font-variant-numeric:normal;font-variant-alternates:normal;font-feature-settings:normal;text-indent:0;text-align:start;text-decoration:none;text-decoration-line:none;text-decoration-style:solid;text-decoration-color:#4daf4a;letter-spacing:normal;word-spacing:normal;text-transform:none;writing-mode:lr-tb;direction:ltr;text-orientation:mixed;dominant-baseline:auto;baseline-shift:baseline;text-anchor:start;white-space:normal;shape-padding:0;clip-rule:nonzero;display:inline;overflow:visible;visibility:visible;opacity:1;isolation:auto;mix-blend-mode:normal;color-interpolation:sRGB;color-interpolation-filters:linearRGB;solid-color:#4daf4a;solid-opacity:1;vector-effect:none;fill:#ffffff;fill-opacity:1;fill-rule:nonzero;stroke:none;stroke-width:0.529167;stroke-linecap:butt;stroke-linejoin:miter;stroke-miterlimit:4;stroke-dasharray:none;stroke-dashoffset:0;stroke-opacity:1;color-rendering:auto;image-rendering:auto;shape-rendering:auto;text-rendering:auto;enable-background:accumulate"
         d="m 6.2910875,289.12089 -0.3741367,0.37466 c 0.4466855,0.44664 0.6976322,1.05193 0.6976322,1.68361 0,0.63162 -0.2510314,1.23698 -0.6976322,1.68362 l 0.3746553,0.37414 c 0.5456846,-0.54573 0.8521435,-1.28601 0.8521435,-2.05776 0,-0.77183 -0.3068717,-1.51252 -0.8526621,-2.05827 z m -4.1160277,5.3e-4 c -0.5456846,0.54572 -0.8521435,1.286 -0.8521435,2.05774 0,0.77183 0.3068717,1.51253 0.8526621,2.05828 l 0.3741367,-0.37466 c -0.4466855,-0.44665 -0.6976322,-1.05194 -0.6976322,-1.68362 0,-0.63161 0.2510314,-1.23698 0.6976322,-1.68361 z m 3.3677543,0.74776 -0.3741367,0.37465 c 0.2482294,0.24817 0.3875722,0.58432 0.3875722,0.93533 0,0.35091 -0.1394671,0.68719 -0.3875722,0.93535 l 0.3746526,0.37413 c 0.3471757,-0.34725 0.5420863,-0.81845 0.5420863,-1.30948 0,-0.49117 -0.1952546,-0.96272 -0.5426022,-1.30999 z m -2.6194782,5.3e-4 c -0.3471757,0.34722 -0.5420863,0.81842 -0.5420863,1.30945 0,0.49117 0.1952546,0.96273 0.5426022,1.31 l 0.3741367,-0.37465 c -0.2482294,-0.24818 -0.3875722,-0.58434 -0.3875722,-0.93535 0,-0.35091 0.1394671,-0.68718 0.3875722,-0.93534 z m 1.309997,0.5157 c -0.4352422,0 -0.79375,0.35851 -0.79375,0.79375 0,0.26901 0.1373056,0.5083 0.3446807,0.65216 l -1.1007064,4.11034 H 2.1166663 v 0.52917 h 4.2333333 v -0.52917 H 5.7831087 l -1.1007064,-4.11034 c 0.2073751,-0.14386 0.3446807,-0.38315 0.3446807,-0.65216 0,-0.43524 -0.3585078,-0.79375 -0.7937501,-0.79375 z m 0,1.81695 0.2930049,1.09347 H 3.9403281 Z M 3.7987337,293.825 h 0.8691985 l 0.2129076,0.79375 H 3.5858261 Z m -0.355018,1.32291 h 1.5792345 l 0.2123889,0.79375 H 3.2313268 Z"
         id="path2849" />
    </g>
  </g>
</svg>
